<?xml version="1.0" encoding="UTF-8" standalone="no"?>
<!DOCTYPE svg PUBLIC "-//W3C//DTD SVG 20010904//EN"
              "http://www.w3.org/TR/2001/REC-SVG-20010904/DTD/svg10.dtd">

<svg xmlns="http://www.w3.org/2000/svg"
     width="12.5in" height="12.5in"
     viewBox="0 0 3000 3000">
  <path id="Selection"
        fill="none" stroke="black" stroke-width="1"
        d="M 863.00,1036.04
           C 864.98,1014.20 888.75,996.31 910.09,997.42
             910.09,997.42 927.00,1000.47 927.00,1000.47
             929.77,1000.42 935.00,998.17 942.00,998.01
             946.01,997.92 952.15,998.12 956.00,999.10
             974.15,1003.70 990.06,1019.73 991.00,1039.00
             997.47,1039.00 1013.20,1037.47 1018.00,1041.00
             1018.00,1041.00 1000.00,1040.00 1000.00,1040.00
             1000.00,1040.00 999.00,1043.00 999.00,1043.00
             999.00,1043.00 992.00,1040.00 992.00,1040.00
             992.00,1040.00 991.00,1043.00 991.00,1043.00
             996.63,1042.57 997.59,1044.45 1003.01,1044.62
             1003.01,1044.62 1023.72,1044.62 1023.72,1044.62
             1029.01,1044.26 1033.05,1045.58 1038.00,1043.00
             1038.00,1043.00 1019.00,1043.00 1019.00,1043.00
             1022.12,1038.33 1029.96,1039.96 1035.00,1040.00
             1046.83,1040.11 1069.02,1040.38 1079.00,1046.00
             1067.52,1048.82 1047.74,1048.46 1035.33,1048.75
             1035.33,1048.75 1011.00,1050.00 1011.00,1050.00
             1011.00,1050.00 991.00,1050.00 991.00,1050.00
             990.64,1066.38 978.94,1081.61 964.00,1087.85
             958.48,1090.16 951.81,1092.31 946.00,1090.00
             960.88,1089.40 972.05,1082.64 981.18,1071.00
             986.05,1064.78 989.59,1058.05 988.00,1050.00
             988.00,1050.00 956.00,1051.00 956.00,1051.00
             954.26,1056.37 953.41,1061.98 950.68,1066.99
             944.47,1078.37 938.25,1080.80 929.00,1088.00
             929.00,1088.00 945.00,1090.91 945.00,1090.91
             945.00,1090.91 935.00,1090.91 935.00,1090.91
             935.00,1090.91 926.58,1089.01 926.58,1089.01
             923.92,1089.01 915.97,1092.33 905.70,1091.65
             885.44,1090.29 864.89,1073.94 863.00,1053.00
             863.00,1053.00 833.87,1053.84 833.87,1053.84
             830.93,1053.89 822.61,1053.45 820.51,1055.02
             818.39,1056.60 818.78,1059.69 819.14,1062.00
             819.14,1062.00 819.14,1074.00 819.14,1074.00
             819.34,1075.80 820.10,1078.94 819.14,1080.57
             818.44,1082.73 813.80,1084.51 813.22,1077.98
             813.22,1077.98 813.88,1061.00 813.88,1061.00
             813.88,1061.00 813.00,1050.84 813.00,1050.84
             813.00,1050.84 749.11,1050.84 749.11,1050.84
             749.11,1050.84 720.00,1049.00 720.00,1049.00
             720.00,1049.00 719.00,1043.00 719.00,1043.00
             718.81,1044.75 718.75,1046.24 717.99,1047.89
             714.60,1055.34 701.31,1051.62 703.45,1043.06
             703.84,1041.48 704.57,1040.40 706.06,1039.70
             707.10,1039.21 709.77,1039.10 711.00,1039.00
             711.00,1039.00 711.00,1041.00 711.00,1041.00
             711.00,1041.00 717.00,1042.00 717.00,1042.00
             717.00,1042.00 712.00,1037.00 712.00,1037.00
             712.00,1037.00 722.04,1040.62 722.04,1040.62
             722.04,1040.62 751.00,1039.00 751.00,1039.00
             751.00,1039.00 792.00,1039.00 792.00,1039.00
             792.00,1039.00 812.81,1038.00 812.81,1038.00
             812.81,1038.00 812.81,1011.02 812.81,1011.02
             813.04,1006.44 816.38,1005.66 817.98,1007.62
             821.96,1012.47 814.03,1030.57 821.23,1034.98
             823.82,1036.56 832.74,1036.23 836.09,1036.04
             836.09,1036.04 863.00,1036.04 863.00,1036.04 Z
           M 924.00,1002.00
           C 900.30,992.14 866.46,1009.48 865.00,1036.00
             865.00,1036.00 898.00,1037.00 898.00,1037.00
             901.59,1026.64 904.52,1019.24 912.42,1011.29
             912.42,1011.29 924.00,1002.00 924.00,1002.00 Z
           M 989.00,1039.00
           C 988.42,1015.81 964.41,997.51 942.01,999.78
             936.89,1000.30 933.55,1000.23 929.00,1003.00
             943.97,1009.50 952.07,1022.45 955.00,1038.00
             955.00,1038.00 989.00,1039.00 989.00,1039.00 Z
           M 954.00,1037.10
           C 950.39,1024.56 947.01,1016.01 936.00,1008.02
             934.20,1006.71 931.14,1004.51 929.00,1004.00
             924.82,1003.01 920.10,1006.59 917.00,1009.02
             908.15,1015.95 901.11,1025.47 901.00,1037.10
             901.00,1037.10 925.00,1037.10 925.00,1037.10
             933.25,1037.50 946.49,1039.13 954.00,1037.10 Z
           M 817.00,1032.00
           C 817.00,1032.00 816.00,1032.00 816.00,1032.00
             816.00,1032.00 817.00,1033.00 817.00,1033.00
             817.00,1033.00 817.00,1032.00 817.00,1032.00 Z
           M 816.00,1034.00
           C 816.00,1034.00 815.00,1034.00 815.00,1034.00
             815.00,1034.00 816.00,1035.00 816.00,1035.00
             816.00,1035.00 816.00,1034.00 816.00,1034.00 Z
           M 814.00,1039.00
           C 814.00,1039.00 809.00,1042.00 809.00,1042.00
             809.00,1042.00 814.00,1044.00 814.00,1044.00
             814.00,1044.00 814.00,1039.00 814.00,1039.00 Z
           M 835.00,1040.00
           C 835.00,1040.00 827.00,1042.00 827.00,1042.00
             827.00,1042.00 835.00,1040.00 835.00,1040.00 Z
           M 850.00,1042.00
           C 848.02,1039.79 846.98,1039.79 845.00,1042.00
             845.00,1042.00 850.00,1042.00 850.00,1042.00 Z
           M 870.00,1040.00
           C 870.00,1040.00 869.00,1040.00 869.00,1040.00
             869.00,1040.00 870.00,1041.00 870.00,1041.00
             870.00,1041.00 870.00,1040.00 870.00,1040.00 Z
           M 873.00,1040.00
           C 873.00,1040.00 872.00,1040.00 872.00,1040.00
             872.00,1040.00 873.00,1041.00 873.00,1041.00
             873.00,1041.00 873.00,1040.00 873.00,1040.00 Z
           M 769.00,1041.00
           C 769.00,1041.00 764.00,1043.00 764.00,1043.00
             764.00,1043.00 769.00,1043.00 769.00,1043.00
             769.00,1043.00 769.00,1041.00 769.00,1041.00 Z
           M 839.00,1041.00
           C 839.00,1041.00 838.00,1041.00 838.00,1041.00
             838.00,1041.00 839.00,1042.00 839.00,1042.00
             839.00,1042.00 839.00,1041.00 839.00,1041.00 Z
           M 865.00,1041.00
           C 865.00,1041.00 864.00,1041.00 864.00,1041.00
             864.00,1041.00 865.00,1042.00 865.00,1042.00
             865.00,1042.00 865.00,1041.00 865.00,1041.00 Z
           M 877.00,1041.00
           C 877.00,1041.00 876.00,1041.00 876.00,1041.00
             876.00,1041.00 877.00,1042.00 877.00,1042.00
             877.00,1042.00 877.00,1041.00 877.00,1041.00 Z
           M 715.00,1043.00
           C 715.00,1043.00 710.00,1042.00 710.00,1042.00
             710.00,1042.00 709.00,1050.00 709.00,1050.00
             709.00,1050.00 714.00,1049.00 714.00,1049.00
             713.08,1045.80 713.26,1045.81 715.00,1043.00 Z
           M 716.00,1042.00
           C 716.00,1042.00 715.00,1042.00 715.00,1042.00
             715.00,1042.00 716.00,1043.00 716.00,1043.00
             716.00,1043.00 716.00,1042.00 716.00,1042.00 Z
           M 736.00,1042.00
           C 736.00,1042.00 735.00,1042.00 735.00,1042.00
             735.00,1042.00 736.00,1043.00 736.00,1043.00
             736.00,1043.00 736.00,1042.00 736.00,1042.00 Z
           M 747.00,1042.00
           C 747.00,1042.00 742.00,1043.00 742.00,1043.00
             742.00,1043.00 747.00,1042.00 747.00,1042.00 Z
           M 752.00,1042.00
           C 752.00,1042.00 751.00,1042.00 751.00,1042.00
             751.00,1042.00 752.00,1043.00 752.00,1043.00
             752.00,1043.00 752.00,1042.00 752.00,1042.00 Z
           M 795.00,1042.00
           C 795.00,1042.00 770.00,1043.00 770.00,1043.00
             770.00,1043.00 795.00,1042.00 795.00,1042.00 Z
           M 861.00,1042.00
           C 861.00,1042.00 860.00,1042.00 860.00,1042.00
             860.00,1042.00 861.00,1043.00 861.00,1043.00
             861.00,1043.00 861.00,1042.00 861.00,1042.00 Z
           M 1014.00,1042.00
           C 1014.00,1042.00 1015.00,1042.00 1015.00,1042.00
             1015.00,1042.00 1014.00,1043.00 1014.00,1043.00
             1014.00,1043.00 1014.00,1042.00 1014.00,1042.00 Z
           M 1017.00,1042.00
           C 1017.00,1042.00 1018.00,1042.00 1018.00,1042.00
             1018.00,1042.00 1017.00,1043.00 1017.00,1043.00
             1017.00,1043.00 1017.00,1042.00 1017.00,1042.00 Z
           M 939.00,1044.00
           C 939.00,1044.00 928.00,1046.00 928.00,1046.00
             928.00,1046.00 929.00,1052.00 929.00,1052.00
             929.00,1052.00 924.00,1051.00 924.00,1051.00
             924.00,1051.00 926.00,1052.00 926.00,1052.00
             926.00,1052.00 922.00,1052.00 922.00,1052.00
             922.00,1052.00 924.00,1050.00 924.00,1050.00
             924.00,1050.00 924.00,1049.00 924.00,1049.00
             920.43,1048.66 918.46,1048.07 916.00,1051.00
             916.00,1051.00 921.00,1050.00 921.00,1050.00
             921.00,1050.00 921.00,1052.00 921.00,1052.00
             918.39,1051.70 915.06,1052.56 914.00,1050.00
             914.00,1050.00 900.00,1053.00 900.00,1053.00
             902.28,1064.19 907.16,1072.77 916.01,1080.07
             918.83,1082.39 923.16,1085.64 927.00,1085.53
             930.89,1085.41 936.20,1081.36 938.99,1078.83
             949.15,1069.57 953.64,1058.51 954.00,1045.00
             954.00,1045.00 939.00,1046.00 939.00,1046.00
             939.00,1046.00 939.00,1044.00 939.00,1044.00 Z
           M 955.00,1044.00
           C 955.00,1044.00 954.00,1044.00 954.00,1044.00
             954.00,1044.00 955.00,1045.00 955.00,1045.00
             955.00,1045.00 955.00,1044.00 955.00,1044.00 Z
           M 990.00,1044.00
           C 990.00,1044.00 957.00,1044.00 957.00,1044.00
             956.42,1047.43 956.52,1047.57 959.00,1050.00
             959.00,1050.00 968.00,1047.73 968.00,1047.73
             968.00,1047.73 990.00,1047.00 990.00,1047.00
             990.00,1047.00 990.00,1044.00 990.00,1044.00 Z
           M 996.00,1046.00
           C 996.00,1046.00 991.00,1044.00 991.00,1044.00
             992.31,1047.11 992.87,1046.69 996.00,1046.00 Z
           M 1042.00,1044.00
           C 1042.00,1044.00 1041.00,1044.00 1041.00,1044.00
             1041.00,1044.00 1042.00,1045.00 1042.00,1045.00
             1042.00,1045.00 1042.00,1044.00 1042.00,1044.00 Z
           M 831.00,1045.00
           C 831.00,1045.00 830.00,1045.00 830.00,1045.00
             830.00,1045.00 831.00,1046.00 831.00,1046.00
             831.00,1046.00 831.00,1045.00 831.00,1045.00 Z
           M 829.00,1046.00
           C 829.00,1046.00 825.00,1048.00 825.00,1048.00
             825.00,1048.00 828.00,1049.00 828.00,1049.00
             828.00,1049.00 829.00,1046.00 829.00,1046.00 Z
           M 926.00,1047.00
           C 926.00,1047.00 921.00,1047.00 921.00,1047.00
             921.00,1047.00 926.00,1047.00 926.00,1047.00 Z
           M 861.00,1048.00
           C 861.00,1048.00 838.00,1048.00 838.00,1048.00
             838.00,1048.00 840.41,1050.43 840.41,1050.43
             840.41,1050.43 860.00,1051.00 860.00,1051.00
             860.00,1051.00 861.00,1048.00 861.00,1048.00 Z
           M 941.00,1046.00
           C 943.55,1048.44 945.63,1048.29 949.00,1048.00
             949.00,1048.00 950.00,1051.00 950.00,1051.00
             950.00,1051.00 952.00,1048.00 952.00,1048.00
             952.00,1048.00 949.71,1050.73 949.71,1050.73
             949.71,1050.73 930.00,1052.00 930.00,1052.00
             930.00,1052.00 932.00,1048.00 932.00,1048.00
             932.00,1048.00 940.00,1049.00 940.00,1049.00
             940.00,1049.00 941.00,1046.00 941.00,1046.00 Z
           M 837.00,1048.00
           C 837.00,1048.00 829.00,1049.00 829.00,1049.00
             829.00,1049.00 837.00,1048.00 837.00,1048.00 Z
           M 872.00,1048.00
           C 872.00,1048.00 864.00,1048.00 864.00,1048.00
             864.00,1048.00 864.00,1052.00 864.00,1052.00
             868.11,1051.12 869.00,1051.05 872.00,1048.00 Z
           M 904.00,1049.00
           C 904.00,1049.00 903.00,1049.00 903.00,1049.00
             903.00,1049.00 904.00,1050.00 904.00,1050.00
             904.00,1050.00 904.00,1049.00 904.00,1049.00 Z
           M 715.00,1050.00
           C 715.00,1050.00 714.00,1050.00 714.00,1050.00
             714.00,1050.00 715.00,1051.00 715.00,1051.00
             715.00,1051.00 715.00,1050.00 715.00,1050.00 Z
           M 893.00,1050.00
           C 893.00,1050.00 892.00,1050.00 892.00,1050.00
             892.00,1050.00 893.00,1051.00 893.00,1051.00
             893.00,1051.00 893.00,1050.00 893.00,1050.00 Z
           M 958.00,1050.00
           C 958.00,1050.00 957.00,1050.00 957.00,1050.00
             957.00,1050.00 958.00,1051.00 958.00,1051.00
             958.00,1051.00 958.00,1050.00 958.00,1050.00 Z
           M 923.00,1088.24
           C 919.93,1083.08 910.83,1079.36 904.20,1068.00
             902.45,1065.00 899.14,1054.03 897.00,1052.86
             895.41,1051.98 889.85,1052.31 887.83,1052.33
             887.83,1052.33 865.00,1053.00 865.00,1053.00
             865.91,1069.44 881.45,1084.73 897.00,1088.24
             906.89,1090.86 913.32,1089.93 923.00,1088.24 Z" />
</svg>
