  0
SECTION
  2
HEADER
  9
$ACADVER
  1
AC1009
  9
$FILLMODE
 70
 0
  9
$SPLFRAME
 70
 1
  9
$EXTMIN
 10
0
 20
0
 30
0.0
  9
$EXTMAX
 10
1058.33
 20
1058.33
 30
0.0
  0
ENDSEC
  0
SECTION
  2
TABLES
  0
TABLE
  2
LAYER
 70
1
  0
LAYER
  2
0
 70
     0
 62
     7
  6
CONTINUOUS
  0
ENDTAB
  0
ENDSEC
  0
SECTION
  2
ENTITIES
  0
LINE
  8
0
 62
     0
 10
388.624
 20
100.446
 30
0.0
 11
388.779
 21
100.44
 31
0.0
  0
LINE
  8
0
 62
     0
 10
388.779
 20
100.44
 30
0.0
 11
388.934
 21
100.422
 31
0.0
  0
LINE
  8
0
 62
     0
 10
388.934
 20
100.422
 30
0.0
 11
389.089
 21
100.391
 31
0.0
  0
LINE
  8
0
 62
     0
 10
389.089
 20
100.391
 30
0.0
 11
389.241
 21
100.349
 31
0.0
  0
LINE
  8
0
 62
     0
 10
389.241
 20
100.349
 30
0.0
 11
389.386
 21
100.294
 31
0.0
  0
LINE
  8
0
 62
     0
 10
389.386
 20
100.294
 30
0.0
 11
389.53
 21
100.229
 31
0.0
  0
LINE
  8
0
 62
     0
 10
389.53
 20
100.229
 30
0.0
 11
389.664
 21
100.152
 31
0.0
  0
LINE
  8
0
 62
     0
 10
389.664
 20
100.152
 30
0.0
 11
389.795
 21
100.065
 31
0.0
  0
LINE
  8
0
 62
     0
 10
389.795
 20
100.065
 30
0.0
 11
389.922
 21
99.967
 31
0.0
  0
LINE
  8
0
 62
     0
 10
389.922
 20
99.967
 30
0.0
 11
390.035
 21
99.8608
 31
0.0
  0
LINE
  8
0
 62
     0
 10
390.035
 20
99.8608
 30
0.0
 11
390.14
 21
99.7451
 31
0.0
  0
LINE
  8
0
 62
     0
 10
390.14
 20
99.7451
 30
0.0
 11
390.239
 21
99.6227
 31
0.0
  0
LINE
  8
0
 62
     0
 10
390.239
 20
99.6227
 30
0.0
 11
390.327
 21
99.4915
 31
0.0
  0
LINE
  8
0
 62
     0
 10
390.327
 20
99.4915
 30
0.0
 11
390.405
 21
99.3539
 31
0.0
  0
LINE
  8
0
 62
     0
 10
390.405
 20
99.3539
 30
0.0
 11
390.469
 21
99.2117
 31
0.0
  0
LINE
  8
0
 62
     0
 10
390.469
 20
99.2117
 30
0.0
 11
390.525
 21
99.0656
 31
0.0
  0
LINE
  8
0
 62
     0
 10
390.525
 20
99.0656
 30
0.0
 11
390.564
 21
98.9129
 31
0.0
  0
LINE
  8
0
 62
     0
 10
390.564
 20
98.9129
 30
0.0
 11
390.596
 21
98.7598
 31
0.0
  0
LINE
  8
0
 62
     0
 10
390.596
 20
98.7598
 30
0.0
 11
390.613
 21
98.6028
 31
0.0
  0
LINE
  8
0
 62
     0
 10
390.613
 20
98.6028
 30
0.0
 11
390.62
 21
98.4458
 31
0.0
  0
LINE
  8
0
 62
     0
 10
390.62
 20
98.4458
 30
0.0
 11
390.62
 21
2.43362
 31
0.0
  0
LINE
  8
0
 62
     0
 10
390.62
 20
2.43362
 30
0.0
 11
390.613
 21
2.27652
 31
0.0
  0
LINE
  8
0
 62
     0
 10
390.613
 20
2.27652
 30
0.0
 11
390.596
 21
2.1208
 31
0.0
  0
LINE
  8
0
 62
     0
 10
390.596
 20
2.1208
 30
0.0
 11
390.564
 21
1.96646
 31
0.0
  0
LINE
  8
0
 62
     0
 10
390.564
 20
1.96646
 30
0.0
 11
390.525
 21
1.81488
 31
0.0
  0
LINE
  8
0
 62
     0
 10
390.525
 20
1.81488
 30
0.0
 11
390.469
 21
1.6688
 31
0.0
  0
LINE
  8
0
 62
     0
 10
390.469
 20
1.6688
 30
0.0
 11
390.405
 21
1.52549
 31
0.0
  0
LINE
  8
0
 62
     0
 10
390.405
 20
1.52549
 30
0.0
 11
390.327
 21
1.38768
 31
0.0
  0
LINE
  8
0
 62
     0
 10
390.327
 20
1.38768
 30
0.0
 11
390.239
 21
1.25677
 31
0.0
  0
LINE
  8
0
 62
     0
 10
390.239
 20
1.25677
 30
0.0
 11
390.14
 21
1.13412
 31
0.0
  0
LINE
  8
0
 62
     0
 10
390.14
 20
1.13412
 30
0.0
 11
390.035
 21
1.01975
 31
0.0
  0
LINE
  8
0
 62
     0
 10
390.035
 20
1.01975
 30
0.0
 11
389.922
 21
0.912262
 31
0.0
  0
LINE
  8
0
 62
     0
 10
389.922
 20
0.912262
 30
0.0
 11
389.795
 21
0.815799
 31
0.0
  0
LINE
  8
0
 62
     0
 10
389.795
 20
0.815799
 30
0.0
 11
389.664
 21
0.727604
 31
0.0
  0
LINE
  8
0
 62
     0
 10
389.664
 20
0.727604
 30
0.0
 11
389.53
 21
0.651813
 31
0.0
  0
LINE
  8
0
 62
     0
 10
389.53
 20
0.651813
 30
0.0
 11
389.386
 21
0.585668
 31
0.0
  0
LINE
  8
0
 62
     0
 10
389.386
 20
0.585668
 30
0.0
 11
389.241
 21
0.530546
 31
0.0
  0
LINE
  8
0
 62
     0
 10
389.241
 20
0.530546
 30
0.0
 11
389.089
 21
0.487825
 31
0.0
  0
LINE
  8
0
 62
     0
 10
389.089
 20
0.487825
 30
0.0
 11
388.934
 21
0.45751
 31
0.0
  0
LINE
  8
0
 62
     0
 10
388.934
 20
0.45751
 30
0.0
 11
388.779
 21
0.439593
 31
0.0
  0
LINE
  8
0
 62
     0
 10
388.779
 20
0.439593
 30
0.0
 11
388.624
 21
0.432703
 31
0.0
  0
LINE
  8
0
 62
     0
 10
388.624
 20
0.432703
 30
0.0
 11
2.096
 21
0.432703
 31
0.0
  0
LINE
  8
0
 62
     0
 10
2.096
 20
0.432703
 30
0.0
 11
1.9389
 21
0.439593
 31
0.0
  0
LINE
  8
0
 62
     0
 10
1.9389
 20
0.439593
 30
0.0
 11
1.7818
 21
0.45751
 31
0.0
  0
LINE
  8
0
 62
     0
 10
1.7818
 20
0.45751
 30
0.0
 11
1.62884
 21
0.487825
 31
0.0
  0
LINE
  8
0
 62
     0
 10
1.62884
 20
0.487825
 30
0.0
 11
1.47588
 21
0.530546
 31
0.0
  0
LINE
  8
0
 62
     0
 10
1.47588
 20
0.530546
 30
0.0
 11
1.32981
 21
0.585668
 31
0.0
  0
LINE
  8
0
 62
     0
 10
1.32981
 20
0.585668
 30
0.0
 11
1.18787
 21
0.651813
 31
0.0
  0
LINE
  8
0
 62
     0
 10
1.18787
 20
0.651813
 30
0.0
 11
1.05006
 21
0.727604
 31
0.0
  0
LINE
  8
0
 62
     0
 10
1.05006
 20
0.727604
 30
0.0
 11
0.919152
 21
0.815799
 31
0.0
  0
LINE
  8
0
 62
     0
 10
0.919152
 20
0.815799
 30
0.0
 11
0.796505
 21
0.912262
 31
0.0
  0
LINE
  8
0
 62
     0
 10
0.796505
 20
0.912262
 30
0.0
 11
0.680752
 21
1.01975
 31
0.0
  0
LINE
  8
0
 62
     0
 10
0.680752
 20
1.01975
 30
0.0
 11
0.574643
 21
1.13412
 31
0.0
  0
LINE
  8
0
 62
     0
 10
0.574643
 20
1.13412
 30
0.0
 11
0.4768
 21
1.25677
 31
0.0
  0
LINE
  8
0
 62
     0
 10
0.4768
 20
1.25677
 30
0.0
 11
0.389985
 21
1.38768
 31
0.0
  0
LINE
  8
0
 62
     0
 10
0.389985
 20
1.38768
 30
0.0
 11
0.312815
 21
1.52549
 31
0.0
  0
LINE
  8
0
 62
     0
 10
0.312815
 20
1.52549
 30
0.0
 11
0.248047
 21
1.6688
 31
0.0
  0
LINE
  8
0
 62
     0
 10
0.248047
 20
1.6688
 30
0.0
 11
0.192925
 21
1.81488
 31
0.0
  0
LINE
  8
0
 62
     0
 10
0.192925
 20
1.81488
 30
0.0
 11
0.150206
 21
1.96646
 31
0.0
  0
LINE
  8
0
 62
     0
 10
0.150206
 20
1.96646
 30
0.0
 11
0.119889
 21
2.1208
 31
0.0
  0
LINE
  8
0
 62
     0
 10
0.119889
 20
2.1208
 30
0.0
 11
0.101975
 21
2.27652
 31
0.0
  0
LINE
  8
0
 62
     0
 10
0.101975
 20
2.27652
 30
0.0
 11
0.0950846
 21
2.43362
 31
0.0
  0
LINE
  8
0
 62
     0
 10
0.0950846
 20
2.43362
 30
0.0
 11
0.0950846
 21
98.4458
 31
0.0
  0
LINE
  8
0
 62
     0
 10
0.0950846
 20
98.4458
 30
0.0
 11
0.101975
 21
98.6028
 31
0.0
  0
LINE
  8
0
 62
     0
 10
0.101975
 20
98.6028
 30
0.0
 11
0.119889
 21
98.7598
 31
0.0
  0
LINE
  8
0
 62
     0
 10
0.119889
 20
98.7598
 30
0.0
 11
0.150206
 21
98.9129
 31
0.0
  0
LINE
  8
0
 62
     0
 10
0.150206
 20
98.9129
 30
0.0
 11
0.192925
 21
99.0656
 31
0.0
  0
LINE
  8
0
 62
     0
 10
0.192925
 20
99.0656
 30
0.0
 11
0.248047
 21
99.2117
 31
0.0
  0
LINE
  8
0
 62
     0
 10
0.248047
 20
99.2117
 30
0.0
 11
0.312815
 21
99.3539
 31
0.0
  0
LINE
  8
0
 62
     0
 10
0.312815
 20
99.3539
 30
0.0
 11
0.389985
 21
99.4915
 31
0.0
  0
LINE
  8
0
 62
     0
 10
0.389985
 20
99.4915
 30
0.0
 11
0.4768
 21
99.6227
 31
0.0
  0
LINE
  8
0
 62
     0
 10
0.4768
 20
99.6227
 30
0.0
 11
0.574643
 21
99.7451
 31
0.0
  0
LINE
  8
0
 62
     0
 10
0.574643
 20
99.7451
 30
0.0
 11
0.680752
 21
99.8608
 31
0.0
  0
LINE
  8
0
 62
     0
 10
0.680752
 20
99.8608
 30
0.0
 11
0.796505
 21
99.967
 31
0.0
  0
LINE
  8
0
 62
     0
 10
0.796505
 20
99.967
 30
0.0
 11
0.919152
 21
100.065
 31
0.0
  0
LINE
  8
0
 62
     0
 10
0.919152
 20
100.065
 30
0.0
 11
1.05006
 21
100.152
 31
0.0
  0
LINE
  8
0
 62
     0
 10
1.05006
 20
100.152
 30
0.0
 11
1.18787
 21
100.229
 31
0.0
  0
LINE
  8
0
 62
     0
 10
1.18787
 20
100.229
 30
0.0
 11
1.32981
 21
100.294
 31
0.0
  0
LINE
  8
0
 62
     0
 10
1.32981
 20
100.294
 30
0.0
 11
1.47588
 21
100.349
 31
0.0
  0
LINE
  8
0
 62
     0
 10
1.47588
 20
100.349
 30
0.0
 11
1.62884
 21
100.391
 31
0.0
  0
LINE
  8
0
 62
     0
 10
1.62884
 20
100.391
 30
0.0
 11
1.7818
 21
100.422
 31
0.0
  0
LINE
  8
0
 62
     0
 10
1.7818
 20
100.422
 30
0.0
 11
1.9389
 21
100.44
 31
0.0
  0
LINE
  8
0
 62
     0
 10
1.9389
 20
100.44
 30
0.0
 11
2.096
 21
100.446
 31
0.0
  0
LINE
  8
0
 62
     0
 10
2.096
 20
100.446
 30
0.0
 11
388.624
 21
100.446
 31
0.0
  0
LINE
  8
0
 62
     0
 10
64.5322
 20
16.9595
 30
0.0
 11
64.5322
 21
15.9591
 31
0.0
  0
LINE
  8
0
 62
     0
 10
64.5322
 20
15.9591
 30
0.0
 11
63.7328
 21
15.9591
 31
0.0
  0
LINE
  8
0
 62
     0
 10
63.7328
 20
15.9591
 30
0.0
 11
63.7328
 21
12.8598
 31
0.0
  0
LINE
  8
0
 62
     0
 10
63.7328
 20
12.8598
 30
0.0
 11
64.5322
 21
12.8598
 31
0.0
  0
LINE
  8
0
 62
     0
 10
64.5322
 20
12.8598
 30
0.0
 11
64.5322
 21
7.05968
 31
0.0
  0
LINE
  8
0
 62
     0
 10
64.5322
 20
7.05968
 30
0.0
 11
63.7328
 21
7.05968
 31
0.0
  0
LINE
  8
0
 62
     0
 10
63.7328
 20
7.05968
 30
0.0
 11
63.7328
 21
3.95912
 31
0.0
  0
LINE
  8
0
 62
     0
 10
63.7328
 20
3.95912
 30
0.0
 11
64.5322
 21
3.95912
 31
0.0
  0
LINE
  8
0
 62
     0
 10
64.5322
 20
3.95912
 30
0.0
 11
64.5322
 21
2.95865
 31
0.0
  0
LINE
  8
0
 62
     0
 10
64.5322
 20
2.95865
 30
0.0
 11
78.5329
 21
2.95865
 31
0.0
  0
LINE
  8
0
 62
     0
 10
78.5329
 20
2.95865
 30
0.0
 11
78.5329
 21
3.95912
 31
0.0
  0
LINE
  8
0
 62
     0
 10
78.5329
 20
3.95912
 30
0.0
 11
79.3323
 21
3.95912
 31
0.0
  0
LINE
  8
0
 62
     0
 10
79.3323
 20
3.95912
 30
0.0
 11
79.3323
 21
7.05968
 31
0.0
  0
LINE
  8
0
 62
     0
 10
79.3323
 20
7.05968
 30
0.0
 11
78.5329
 21
7.05968
 31
0.0
  0
LINE
  8
0
 62
     0
 10
78.5329
 20
7.05968
 30
0.0
 11
78.5329
 21
12.8598
 31
0.0
  0
LINE
  8
0
 62
     0
 10
78.5329
 20
12.8598
 30
0.0
 11
79.3323
 21
12.8598
 31
0.0
  0
LINE
  8
0
 62
     0
 10
79.3323
 20
12.8598
 30
0.0
 11
79.3323
 21
15.9591
 31
0.0
  0
LINE
  8
0
 62
     0
 10
79.3323
 20
15.9591
 30
0.0
 11
78.5329
 21
15.9591
 31
0.0
  0
LINE
  8
0
 62
     0
 10
78.5329
 20
15.9591
 30
0.0
 11
78.5329
 21
16.9595
 31
0.0
  0
LINE
  8
0
 62
     0
 10
78.5329
 20
16.9595
 30
0.0
 11
64.5322
 21
16.9595
 31
0.0
  0
LINE
  8
0
 62
     0
 10
83.5822
 20
16.9595
 30
0.0
 11
83.5822
 21
15.9591
 31
0.0
  0
LINE
  8
0
 62
     0
 10
83.5822
 20
15.9591
 30
0.0
 11
82.7828
 21
15.9591
 31
0.0
  0
LINE
  8
0
 62
     0
 10
82.7828
 20
15.9591
 30
0.0
 11
82.7828
 21
12.8598
 31
0.0
  0
LINE
  8
0
 62
     0
 10
82.7828
 20
12.8598
 30
0.0
 11
83.5822
 21
12.8598
 31
0.0
  0
LINE
  8
0
 62
     0
 10
83.5822
 20
12.8598
 30
0.0
 11
83.5822
 21
7.05968
 31
0.0
  0
LINE
  8
0
 62
     0
 10
83.5822
 20
7.05968
 30
0.0
 11
82.7828
 21
7.05968
 31
0.0
  0
LINE
  8
0
 62
     0
 10
82.7828
 20
7.05968
 30
0.0
 11
82.7828
 21
3.95912
 31
0.0
  0
LINE
  8
0
 62
     0
 10
82.7828
 20
3.95912
 30
0.0
 11
83.5822
 21
3.95912
 31
0.0
  0
LINE
  8
0
 62
     0
 10
83.5822
 20
3.95912
 30
0.0
 11
83.5822
 21
2.95865
 31
0.0
  0
LINE
  8
0
 62
     0
 10
83.5822
 20
2.95865
 30
0.0
 11
97.5829
 21
2.95865
 31
0.0
  0
LINE
  8
0
 62
     0
 10
97.5829
 20
2.95865
 30
0.0
 11
97.5829
 21
3.95912
 31
0.0
  0
LINE
  8
0
 62
     0
 10
97.5829
 20
3.95912
 30
0.0
 11
98.3823
 21
3.95912
 31
0.0
  0
LINE
  8
0
 62
     0
 10
98.3823
 20
3.95912
 30
0.0
 11
98.3823
 21
7.05968
 31
0.0
  0
LINE
  8
0
 62
     0
 10
98.3823
 20
7.05968
 30
0.0
 11
97.5829
 21
7.05968
 31
0.0
  0
LINE
  8
0
 62
     0
 10
97.5829
 20
7.05968
 30
0.0
 11
97.5829
 21
12.8598
 31
0.0
  0
LINE
  8
0
 62
     0
 10
97.5829
 20
12.8598
 30
0.0
 11
98.3823
 21
12.8598
 31
0.0
  0
LINE
  8
0
 62
     0
 10
98.3823
 20
12.8598
 30
0.0
 11
98.3823
 21
15.9591
 31
0.0
  0
LINE
  8
0
 62
     0
 10
98.3823
 20
15.9591
 30
0.0
 11
97.5829
 21
15.9591
 31
0.0
  0
LINE
  8
0
 62
     0
 10
97.5829
 20
15.9591
 30
0.0
 11
97.5829
 21
16.9595
 31
0.0
  0
LINE
  8
0
 62
     0
 10
97.5829
 20
16.9595
 30
0.0
 11
83.5822
 21
16.9595
 31
0.0
  0
LINE
  8
0
 62
     0
 10
102.632
 20
16.9595
 30
0.0
 11
102.632
 21
15.9591
 31
0.0
  0
LINE
  8
0
 62
     0
 10
102.632
 20
15.9591
 30
0.0
 11
101.833
 21
15.9591
 31
0.0
  0
LINE
  8
0
 62
     0
 10
101.833
 20
15.9591
 30
0.0
 11
101.833
 21
12.8598
 31
0.0
  0
LINE
  8
0
 62
     0
 10
101.833
 20
12.8598
 30
0.0
 11
102.632
 21
12.8598
 31
0.0
  0
LINE
  8
0
 62
     0
 10
102.632
 20
12.8598
 30
0.0
 11
102.632
 21
7.05968
 31
0.0
  0
LINE
  8
0
 62
     0
 10
102.632
 20
7.05968
 30
0.0
 11
101.833
 21
7.05968
 31
0.0
  0
LINE
  8
0
 62
     0
 10
101.833
 20
7.05968
 30
0.0
 11
101.833
 21
3.95912
 31
0.0
  0
LINE
  8
0
 62
     0
 10
101.833
 20
3.95912
 30
0.0
 11
102.632
 21
3.95912
 31
0.0
  0
LINE
  8
0
 62
     0
 10
102.632
 20
3.95912
 30
0.0
 11
102.632
 21
2.95865
 31
0.0
  0
LINE
  8
0
 62
     0
 10
102.632
 20
2.95865
 30
0.0
 11
116.633
 21
2.95865
 31
0.0
  0
LINE
  8
0
 62
     0
 10
116.633
 20
2.95865
 30
0.0
 11
116.633
 21
3.95912
 31
0.0
  0
LINE
  8
0
 62
     0
 10
116.633
 20
3.95912
 30
0.0
 11
117.432
 21
3.95912
 31
0.0
  0
LINE
  8
0
 62
     0
 10
117.432
 20
3.95912
 30
0.0
 11
117.432
 21
7.05968
 31
0.0
  0
LINE
  8
0
 62
     0
 10
117.432
 20
7.05968
 30
0.0
 11
116.633
 21
7.05968
 31
0.0
  0
LINE
  8
0
 62
     0
 10
116.633
 20
7.05968
 30
0.0
 11
116.633
 21
12.8598
 31
0.0
  0
LINE
  8
0
 62
     0
 10
116.633
 20
12.8598
 30
0.0
 11
117.432
 21
12.8598
 31
0.0
  0
LINE
  8
0
 62
     0
 10
117.432
 20
12.8598
 30
0.0
 11
117.432
 21
15.9591
 31
0.0
  0
LINE
  8
0
 62
     0
 10
117.432
 20
15.9591
 30
0.0
 11
116.633
 21
15.9591
 31
0.0
  0
LINE
  8
0
 62
     0
 10
116.633
 20
15.9591
 30
0.0
 11
116.633
 21
16.9595
 31
0.0
  0
LINE
  8
0
 62
     0
 10
116.633
 20
16.9595
 30
0.0
 11
102.632
 21
16.9595
 31
0.0
  0
LINE
  8
0
 62
     0
 10
195.501
 20
21.7206
 30
0.0
 11
195.501
 21
20.7216
 31
0.0
  0
LINE
  8
0
 62
     0
 10
195.501
 20
20.7216
 30
0.0
 11
194.702
 21
20.7216
 31
0.0
  0
LINE
  8
0
 62
     0
 10
194.702
 20
20.7216
 30
0.0
 11
194.702
 21
17.6223
 31
0.0
  0
LINE
  8
0
 62
     0
 10
194.702
 20
17.6223
 30
0.0
 11
195.501
 21
17.6223
 31
0.0
  0
LINE
  8
0
 62
     0
 10
195.501
 20
17.6223
 30
0.0
 11
195.501
 21
17.0215
 31
0.0
  0
LINE
  8
0
 62
     0
 10
195.501
 20
17.0215
 30
0.0
 11
193.977
 21
17.0215
 31
0.0
  0
LINE
  8
0
 62
     0
 10
193.977
 20
17.0215
 30
0.0
 11
193.977
 21
20.2517
 31
0.0
  0
LINE
  8
0
 62
     0
 10
193.977
 20
20.2517
 30
0.0
 11
187.227
 21
20.2517
 31
0.0
  0
LINE
  8
0
 62
     0
 10
187.227
 20
20.2517
 30
0.0
 11
187.227
 21
17.0215
 31
0.0
  0
LINE
  8
0
 62
     0
 10
187.227
 20
17.0215
 30
0.0
 11
186.402
 21
17.0215
 31
0.0
  0
LINE
  8
0
 62
     0
 10
186.402
 20
17.0215
 30
0.0
 11
186.402
 21
14.2214
 31
0.0
  0
LINE
  8
0
 62
     0
 10
186.402
 20
14.2214
 30
0.0
 11
187.227
 21
14.2214
 31
0.0
  0
LINE
  8
0
 62
     0
 10
187.227
 20
14.2214
 30
0.0
 11
187.227
 21
7.95267
 31
0.0
  0
LINE
  8
0
 62
     0
 10
187.227
 20
7.95267
 30
0.0
 11
188.951
 21
7.95267
 31
0.0
  0
LINE
  8
0
 62
     0
 10
188.951
 20
7.95267
 30
0.0
 11
188.951
 21
6.751
 31
0.0
  0
LINE
  8
0
 62
     0
 10
188.951
 20
6.751
 30
0.0
 11
192.252
 21
6.751
 31
0.0
  0
LINE
  8
0
 62
     0
 10
192.252
 20
6.751
 30
0.0
 11
192.252
 21
7.95267
 31
0.0
  0
LINE
  8
0
 62
     0
 10
192.252
 20
7.95267
 30
0.0
 11
193.977
 21
7.95267
 31
0.0
  0
LINE
  8
0
 62
     0
 10
193.977
 20
7.95267
 30
0.0
 11
193.977
 21
12.4216
 31
0.0
  0
LINE
  8
0
 62
     0
 10
193.977
 20
12.4216
 30
0.0
 11
195.501
 21
12.4216
 31
0.0
  0
LINE
  8
0
 62
     0
 10
195.501
 20
12.4216
 30
0.0
 11
195.501
 21
11.8208
 31
0.0
  0
LINE
  8
0
 62
     0
 10
195.501
 20
11.8208
 30
0.0
 11
194.702
 21
11.8208
 31
0.0
  0
LINE
  8
0
 62
     0
 10
194.702
 20
11.8208
 30
0.0
 11
194.702
 21
8.72162
 31
0.0
  0
LINE
  8
0
 62
     0
 10
194.702
 20
8.72162
 30
0.0
 11
195.501
 21
8.72162
 31
0.0
  0
LINE
  8
0
 62
     0
 10
195.501
 20
8.72162
 30
0.0
 11
195.501
 21
7.72114
 31
0.0
  0
LINE
  8
0
 62
     0
 10
195.501
 20
7.72114
 30
0.0
 11
209.502
 21
7.72114
 31
0.0
  0
LINE
  8
0
 62
     0
 10
209.502
 20
7.72114
 30
0.0
 11
209.502
 21
8.72162
 31
0.0
  0
LINE
  8
0
 62
     0
 10
209.502
 20
8.72162
 30
0.0
 11
210.301
 21
8.72162
 31
0.0
  0
LINE
  8
0
 62
     0
 10
210.301
 20
8.72162
 30
0.0
 11
210.301
 21
11.8208
 31
0.0
  0
LINE
  8
0
 62
     0
 10
210.301
 20
11.8208
 30
0.0
 11
209.502
 21
11.8208
 31
0.0
  0
LINE
  8
0
 62
     0
 10
209.502
 20
11.8208
 30
0.0
 11
209.502
 21
12.4216
 31
0.0
  0
LINE
  8
0
 62
     0
 10
209.502
 20
12.4216
 30
0.0
 11
211.026
 21
12.4216
 31
0.0
  0
LINE
  8
0
 62
     0
 10
211.026
 20
12.4216
 30
0.0
 11
211.026
 21
7.95267
 31
0.0
  0
LINE
  8
0
 62
     0
 10
211.026
 20
7.95267
 30
0.0
 11
212.751
 21
7.95267
 31
0.0
  0
LINE
  8
0
 62
     0
 10
212.751
 20
7.95267
 30
0.0
 11
212.751
 21
6.751
 31
0.0
  0
LINE
  8
0
 62
     0
 10
212.751
 20
6.751
 30
0.0
 11
216.052
 21
6.751
 31
0.0
  0
LINE
  8
0
 62
     0
 10
216.052
 20
6.751
 30
0.0
 11
216.052
 21
7.95267
 31
0.0
  0
LINE
  8
0
 62
     0
 10
216.052
 20
7.95267
 30
0.0
 11
217.777
 21
7.95267
 31
0.0
  0
LINE
  8
0
 62
     0
 10
217.777
 20
7.95267
 30
0.0
 11
217.777
 21
14.2214
 31
0.0
  0
LINE
  8
0
 62
     0
 10
217.777
 20
14.2214
 30
0.0
 11
218.601
 21
14.2214
 31
0.0
  0
LINE
  8
0
 62
     0
 10
218.601
 20
14.2214
 30
0.0
 11
218.601
 21
17.0215
 31
0.0
  0
LINE
  8
0
 62
     0
 10
218.601
 20
17.0215
 30
0.0
 11
217.777
 21
17.0215
 31
0.0
  0
LINE
  8
0
 62
     0
 10
217.777
 20
17.0215
 30
0.0
 11
217.777
 21
20.2517
 31
0.0
  0
LINE
  8
0
 62
     0
 10
217.777
 20
20.2517
 30
0.0
 11
211.026
 21
20.2517
 31
0.0
  0
LINE
  8
0
 62
     0
 10
211.026
 20
20.2517
 30
0.0
 11
211.026
 21
17.0215
 31
0.0
  0
LINE
  8
0
 62
     0
 10
211.026
 20
17.0215
 30
0.0
 11
209.502
 21
17.0215
 31
0.0
  0
LINE
  8
0
 62
     0
 10
209.502
 20
17.0215
 30
0.0
 11
209.502
 21
17.6223
 31
0.0
  0
LINE
  8
0
 62
     0
 10
209.502
 20
17.6223
 30
0.0
 11
210.301
 21
17.6223
 31
0.0
  0
LINE
  8
0
 62
     0
 10
210.301
 20
17.6223
 30
0.0
 11
210.301
 21
20.7216
 31
0.0
  0
LINE
  8
0
 62
     0
 10
210.301
 20
20.7216
 30
0.0
 11
209.502
 21
20.7216
 31
0.0
  0
LINE
  8
0
 62
     0
 10
209.502
 20
20.7216
 30
0.0
 11
209.502
 21
21.7206
 31
0.0
  0
LINE
  8
0
 62
     0
 10
209.502
 20
21.7206
 30
0.0
 11
195.501
 21
21.7206
 31
0.0
  0
LINE
  8
0
 62
     0
 10
271.701
 20
21.7206
 30
0.0
 11
271.701
 21
20.7216
 31
0.0
  0
LINE
  8
0
 62
     0
 10
271.701
 20
20.7216
 30
0.0
 11
270.902
 21
20.7216
 31
0.0
  0
LINE
  8
0
 62
     0
 10
270.902
 20
20.7216
 30
0.0
 11
270.902
 21
17.6223
 31
0.0
  0
LINE
  8
0
 62
     0
 10
270.902
 20
17.6223
 30
0.0
 11
271.701
 21
17.6223
 31
0.0
  0
LINE
  8
0
 62
     0
 10
271.701
 20
17.6223
 30
0.0
 11
271.701
 21
17.0215
 31
0.0
  0
LINE
  8
0
 62
     0
 10
271.701
 20
17.0215
 30
0.0
 11
270.177
 21
17.0215
 31
0.0
  0
LINE
  8
0
 62
     0
 10
270.177
 20
17.0215
 30
0.0
 11
270.177
 21
20.2517
 31
0.0
  0
LINE
  8
0
 62
     0
 10
270.177
 20
20.2517
 30
0.0
 11
263.427
 21
20.2517
 31
0.0
  0
LINE
  8
0
 62
     0
 10
263.427
 20
20.2517
 30
0.0
 11
263.427
 21
17.0215
 31
0.0
  0
LINE
  8
0
 62
     0
 10
263.427
 20
17.0215
 30
0.0
 11
262.602
 21
17.0215
 31
0.0
  0
LINE
  8
0
 62
     0
 10
262.602
 20
17.0215
 30
0.0
 11
262.602
 21
14.2214
 31
0.0
  0
LINE
  8
0
 62
     0
 10
262.602
 20
14.2214
 30
0.0
 11
263.427
 21
14.2214
 31
0.0
  0
LINE
  8
0
 62
     0
 10
263.427
 20
14.2214
 30
0.0
 11
263.427
 21
7.95267
 31
0.0
  0
LINE
  8
0
 62
     0
 10
263.427
 20
7.95267
 30
0.0
 11
265.151
 21
7.95267
 31
0.0
  0
LINE
  8
0
 62
     0
 10
265.151
 20
7.95267
 30
0.0
 11
265.151
 21
6.751
 31
0.0
  0
LINE
  8
0
 62
     0
 10
265.151
 20
6.751
 30
0.0
 11
268.452
 21
6.751
 31
0.0
  0
LINE
  8
0
 62
     0
 10
268.452
 20
6.751
 30
0.0
 11
268.452
 21
7.95267
 31
0.0
  0
LINE
  8
0
 62
     0
 10
268.452
 20
7.95267
 30
0.0
 11
270.177
 21
7.95267
 31
0.0
  0
LINE
  8
0
 62
     0
 10
270.177
 20
7.95267
 30
0.0
 11
270.177
 21
12.4216
 31
0.0
  0
LINE
  8
0
 62
     0
 10
270.177
 20
12.4216
 30
0.0
 11
271.701
 21
12.4216
 31
0.0
  0
LINE
  8
0
 62
     0
 10
271.701
 20
12.4216
 30
0.0
 11
271.701
 21
11.8208
 31
0.0
  0
LINE
  8
0
 62
     0
 10
271.701
 20
11.8208
 30
0.0
 11
270.902
 21
11.8208
 31
0.0
  0
LINE
  8
0
 62
     0
 10
270.902
 20
11.8208
 30
0.0
 11
270.902
 21
8.72162
 31
0.0
  0
LINE
  8
0
 62
     0
 10
270.902
 20
8.72162
 30
0.0
 11
271.701
 21
8.72162
 31
0.0
  0
LINE
  8
0
 62
     0
 10
271.701
 20
8.72162
 30
0.0
 11
271.701
 21
7.72114
 31
0.0
  0
LINE
  8
0
 62
     0
 10
271.701
 20
7.72114
 30
0.0
 11
285.702
 21
7.72114
 31
0.0
  0
LINE
  8
0
 62
     0
 10
285.702
 20
7.72114
 30
0.0
 11
285.702
 21
8.72162
 31
0.0
  0
LINE
  8
0
 62
     0
 10
285.702
 20
8.72162
 30
0.0
 11
286.501
 21
8.72162
 31
0.0
  0
LINE
  8
0
 62
     0
 10
286.501
 20
8.72162
 30
0.0
 11
286.501
 21
11.8208
 31
0.0
  0
LINE
  8
0
 62
     0
 10
286.501
 20
11.8208
 30
0.0
 11
285.702
 21
11.8208
 31
0.0
  0
LINE
  8
0
 62
     0
 10
285.702
 20
11.8208
 30
0.0
 11
285.702
 21
12.4216
 31
0.0
  0
LINE
  8
0
 62
     0
 10
285.702
 20
12.4216
 30
0.0
 11
287.226
 21
12.4216
 31
0.0
  0
LINE
  8
0
 62
     0
 10
287.226
 20
12.4216
 30
0.0
 11
287.226
 21
7.95267
 31
0.0
  0
LINE
  8
0
 62
     0
 10
287.226
 20
7.95267
 30
0.0
 11
288.951
 21
7.95267
 31
0.0
  0
LINE
  8
0
 62
     0
 10
288.951
 20
7.95267
 30
0.0
 11
288.951
 21
6.751
 31
0.0
  0
LINE
  8
0
 62
     0
 10
288.951
 20
6.751
 30
0.0
 11
292.252
 21
6.751
 31
0.0
  0
LINE
  8
0
 62
     0
 10
292.252
 20
6.751
 30
0.0
 11
292.252
 21
7.95267
 31
0.0
  0
LINE
  8
0
 62
     0
 10
292.252
 20
7.95267
 30
0.0
 11
293.977
 21
7.95267
 31
0.0
  0
LINE
  8
0
 62
     0
 10
293.977
 20
7.95267
 30
0.0
 11
293.977
 21
14.2214
 31
0.0
  0
LINE
  8
0
 62
     0
 10
293.977
 20
14.2214
 30
0.0
 11
294.801
 21
14.2214
 31
0.0
  0
LINE
  8
0
 62
     0
 10
294.801
 20
14.2214
 30
0.0
 11
294.801
 21
17.0215
 31
0.0
  0
LINE
  8
0
 62
     0
 10
294.801
 20
17.0215
 30
0.0
 11
293.977
 21
17.0215
 31
0.0
  0
LINE
  8
0
 62
     0
 10
293.977
 20
17.0215
 30
0.0
 11
293.977
 21
20.2517
 31
0.0
  0
LINE
  8
0
 62
     0
 10
293.977
 20
20.2517
 30
0.0
 11
287.226
 21
20.2517
 31
0.0
  0
LINE
  8
0
 62
     0
 10
287.226
 20
20.2517
 30
0.0
 11
287.226
 21
17.0215
 31
0.0
  0
LINE
  8
0
 62
     0
 10
287.226
 20
17.0215
 30
0.0
 11
285.702
 21
17.0215
 31
0.0
  0
LINE
  8
0
 62
     0
 10
285.702
 20
17.0215
 30
0.0
 11
285.702
 21
17.6223
 31
0.0
  0
LINE
  8
0
 62
     0
 10
285.702
 20
17.6223
 30
0.0
 11
286.501
 21
17.6223
 31
0.0
  0
LINE
  8
0
 62
     0
 10
286.501
 20
17.6223
 30
0.0
 11
286.501
 21
20.7216
 31
0.0
  0
LINE
  8
0
 62
     0
 10
286.501
 20
20.7216
 30
0.0
 11
285.702
 21
20.7216
 31
0.0
  0
LINE
  8
0
 62
     0
 10
285.702
 20
20.7216
 30
0.0
 11
285.702
 21
21.7206
 31
0.0
  0
LINE
  8
0
 62
     0
 10
285.702
 20
21.7206
 30
0.0
 11
271.701
 21
21.7206
 31
0.0
  0
LINE
  8
0
 62
     0
 10
21.671
 20
21.7206
 30
0.0
 11
21.671
 21
20.7216
 31
0.0
  0
LINE
  8
0
 62
     0
 10
21.671
 20
20.7216
 30
0.0
 11
20.8704
 21
20.7216
 31
0.0
  0
LINE
  8
0
 62
     0
 10
20.8704
 20
20.7216
 30
0.0
 11
20.8704
 21
17.6223
 31
0.0
  0
LINE
  8
0
 62
     0
 10
20.8704
 20
17.6223
 30
0.0
 11
21.671
 21
17.6223
 31
0.0
  0
LINE
  8
0
 62
     0
 10
21.671
 20
17.6223
 30
0.0
 11
21.671
 21
11.8208
 31
0.0
  0
LINE
  8
0
 62
     0
 10
21.671
 20
11.8208
 30
0.0
 11
20.8704
 21
11.8208
 31
0.0
  0
LINE
  8
0
 62
     0
 10
20.8704
 20
11.8208
 30
0.0
 11
20.8704
 21
8.72162
 31
0.0
  0
LINE
  8
0
 62
     0
 10
20.8704
 20
8.72162
 30
0.0
 11
21.671
 21
8.72162
 31
0.0
  0
LINE
  8
0
 62
     0
 10
21.671
 20
8.72162
 30
0.0
 11
21.671
 21
7.72114
 31
0.0
  0
LINE
  8
0
 62
     0
 10
21.671
 20
7.72114
 30
0.0
 11
35.6704
 21
7.72114
 31
0.0
  0
LINE
  8
0
 62
     0
 10
35.6704
 20
7.72114
 30
0.0
 11
35.6704
 21
8.72162
 31
0.0
  0
LINE
  8
0
 62
     0
 10
35.6704
 20
8.72162
 30
0.0
 11
36.4712
 21
8.72162
 31
0.0
  0
LINE
  8
0
 62
     0
 10
36.4712
 20
8.72162
 30
0.0
 11
36.4712
 21
11.8208
 31
0.0
  0
LINE
  8
0
 62
     0
 10
36.4712
 20
11.8208
 30
0.0
 11
35.6704
 21
11.8208
 31
0.0
  0
LINE
  8
0
 62
     0
 10
35.6704
 20
11.8208
 30
0.0
 11
35.6704
 21
17.6223
 31
0.0
  0
LINE
  8
0
 62
     0
 10
35.6704
 20
17.6223
 30
0.0
 11
36.4712
 21
17.6223
 31
0.0
  0
LINE
  8
0
 62
     0
 10
36.4712
 20
17.6223
 30
0.0
 11
36.4712
 21
20.7216
 31
0.0
  0
LINE
  8
0
 62
     0
 10
36.4712
 20
20.7216
 30
0.0
 11
35.6704
 21
20.7216
 31
0.0
  0
LINE
  8
0
 62
     0
 10
35.6704
 20
20.7216
 30
0.0
 11
35.6704
 21
21.7206
 31
0.0
  0
LINE
  8
0
 62
     0
 10
35.6704
 20
21.7206
 30
0.0
 11
21.671
 21
21.7206
 31
0.0
  0
LINE
  8
0
 62
     0
 10
40.7211
 20
21.7206
 30
0.0
 11
40.7211
 21
20.7216
 31
0.0
  0
LINE
  8
0
 62
     0
 10
40.7211
 20
20.7216
 30
0.0
 11
39.9203
 21
20.7216
 31
0.0
  0
LINE
  8
0
 62
     0
 10
39.9203
 20
20.7216
 30
0.0
 11
39.9203
 21
17.6223
 31
0.0
  0
LINE
  8
0
 62
     0
 10
39.9203
 20
17.6223
 30
0.0
 11
40.7211
 21
17.6223
 31
0.0
  0
LINE
  8
0
 62
     0
 10
40.7211
 20
17.6223
 30
0.0
 11
40.7211
 21
11.8208
 31
0.0
  0
LINE
  8
0
 62
     0
 10
40.7211
 20
11.8208
 30
0.0
 11
39.9203
 21
11.8208
 31
0.0
  0
LINE
  8
0
 62
     0
 10
39.9203
 20
11.8208
 30
0.0
 11
39.9203
 21
8.72162
 31
0.0
  0
LINE
  8
0
 62
     0
 10
39.9203
 20
8.72162
 30
0.0
 11
40.7211
 21
8.72162
 31
0.0
  0
LINE
  8
0
 62
     0
 10
40.7211
 20
8.72162
 30
0.0
 11
40.7211
 21
7.72114
 31
0.0
  0
LINE
  8
0
 62
     0
 10
40.7211
 20
7.72114
 30
0.0
 11
54.7204
 21
7.72114
 31
0.0
  0
LINE
  8
0
 62
     0
 10
54.7204
 20
7.72114
 30
0.0
 11
54.7204
 21
8.72162
 31
0.0
  0
LINE
  8
0
 62
     0
 10
54.7204
 20
8.72162
 30
0.0
 11
55.5212
 21
8.72162
 31
0.0
  0
LINE
  8
0
 62
     0
 10
55.5212
 20
8.72162
 30
0.0
 11
55.5212
 21
11.8208
 31
0.0
  0
LINE
  8
0
 62
     0
 10
55.5212
 20
11.8208
 30
0.0
 11
54.7204
 21
11.8208
 31
0.0
  0
LINE
  8
0
 62
     0
 10
54.7204
 20
11.8208
 30
0.0
 11
54.7204
 21
17.6223
 31
0.0
  0
LINE
  8
0
 62
     0
 10
54.7204
 20
17.6223
 30
0.0
 11
55.5212
 21
17.6223
 31
0.0
  0
LINE
  8
0
 62
     0
 10
55.5212
 20
17.6223
 30
0.0
 11
55.5212
 21
20.7216
 31
0.0
  0
LINE
  8
0
 62
     0
 10
55.5212
 20
20.7216
 30
0.0
 11
54.7204
 21
20.7216
 31
0.0
  0
LINE
  8
0
 62
     0
 10
54.7204
 20
20.7216
 30
0.0
 11
54.7204
 21
21.7206
 31
0.0
  0
LINE
  8
0
 62
     0
 10
54.7204
 20
21.7206
 30
0.0
 11
40.7211
 21
21.7206
 31
0.0
  0
LINE
  8
0
 62
     0
 10
128.826
 20
21.7206
 30
0.0
 11
128.826
 21
20.7216
 31
0.0
  0
LINE
  8
0
 62
     0
 10
128.826
 20
20.7216
 30
0.0
 11
128.027
 21
20.7216
 31
0.0
  0
LINE
  8
0
 62
     0
 10
128.027
 20
20.7216
 30
0.0
 11
128.027
 21
17.6223
 31
0.0
  0
LINE
  8
0
 62
     0
 10
128.027
 20
17.6223
 30
0.0
 11
128.826
 21
17.6223
 31
0.0
  0
LINE
  8
0
 62
     0
 10
128.826
 20
17.6223
 30
0.0
 11
128.826
 21
11.8208
 31
0.0
  0
LINE
  8
0
 62
     0
 10
128.826
 20
11.8208
 30
0.0
 11
128.027
 21
11.8208
 31
0.0
  0
LINE
  8
0
 62
     0
 10
128.027
 20
11.8208
 30
0.0
 11
128.027
 21
8.72162
 31
0.0
  0
LINE
  8
0
 62
     0
 10
128.027
 20
8.72162
 30
0.0
 11
128.826
 21
8.72162
 31
0.0
  0
LINE
  8
0
 62
     0
 10
128.826
 20
8.72162
 30
0.0
 11
128.826
 21
7.72114
 31
0.0
  0
LINE
  8
0
 62
     0
 10
128.826
 20
7.72114
 30
0.0
 11
142.827
 21
7.72114
 31
0.0
  0
LINE
  8
0
 62
     0
 10
142.827
 20
7.72114
 30
0.0
 11
142.827
 21
8.72162
 31
0.0
  0
LINE
  8
0
 62
     0
 10
142.827
 20
8.72162
 30
0.0
 11
143.626
 21
8.72162
 31
0.0
  0
LINE
  8
0
 62
     0
 10
143.626
 20
8.72162
 30
0.0
 11
143.626
 21
11.8208
 31
0.0
  0
LINE
  8
0
 62
     0
 10
143.626
 20
11.8208
 30
0.0
 11
142.827
 21
11.8208
 31
0.0
  0
LINE
  8
0
 62
     0
 10
142.827
 20
11.8208
 30
0.0
 11
142.827
 21
17.6223
 31
0.0
  0
LINE
  8
0
 62
     0
 10
142.827
 20
17.6223
 30
0.0
 11
143.626
 21
17.6223
 31
0.0
  0
LINE
  8
0
 62
     0
 10
143.626
 20
17.6223
 30
0.0
 11
143.626
 21
20.7216
 31
0.0
  0
LINE
  8
0
 62
     0
 10
143.626
 20
20.7216
 30
0.0
 11
142.827
 21
20.7216
 31
0.0
  0
LINE
  8
0
 62
     0
 10
142.827
 20
20.7216
 30
0.0
 11
142.827
 21
21.7206
 31
0.0
  0
LINE
  8
0
 62
     0
 10
142.827
 20
21.7206
 30
0.0
 11
128.826
 21
21.7206
 31
0.0
  0
LINE
  8
0
 62
     0
 10
157.401
 20
21.7206
 30
0.0
 11
157.401
 21
20.7216
 31
0.0
  0
LINE
  8
0
 62
     0
 10
157.401
 20
20.7216
 30
0.0
 11
156.602
 21
20.7216
 31
0.0
  0
LINE
  8
0
 62
     0
 10
156.602
 20
20.7216
 30
0.0
 11
156.602
 21
17.6223
 31
0.0
  0
LINE
  8
0
 62
     0
 10
156.602
 20
17.6223
 30
0.0
 11
157.401
 21
17.6223
 31
0.0
  0
LINE
  8
0
 62
     0
 10
157.401
 20
17.6223
 30
0.0
 11
157.401
 21
11.8208
 31
0.0
  0
LINE
  8
0
 62
     0
 10
157.401
 20
11.8208
 30
0.0
 11
156.602
 21
11.8208
 31
0.0
  0
LINE
  8
0
 62
     0
 10
156.602
 20
11.8208
 30
0.0
 11
156.602
 21
8.72162
 31
0.0
  0
LINE
  8
0
 62
     0
 10
156.602
 20
8.72162
 30
0.0
 11
157.401
 21
8.72162
 31
0.0
  0
LINE
  8
0
 62
     0
 10
157.401
 20
8.72162
 30
0.0
 11
157.401
 21
7.72114
 31
0.0
  0
LINE
  8
0
 62
     0
 10
157.401
 20
7.72114
 30
0.0
 11
171.402
 21
7.72114
 31
0.0
  0
LINE
  8
0
 62
     0
 10
171.402
 20
7.72114
 30
0.0
 11
171.402
 21
8.72162
 31
0.0
  0
LINE
  8
0
 62
     0
 10
171.402
 20
8.72162
 30
0.0
 11
172.201
 21
8.72162
 31
0.0
  0
LINE
  8
0
 62
     0
 10
172.201
 20
8.72162
 30
0.0
 11
172.201
 21
11.8208
 31
0.0
  0
LINE
  8
0
 62
     0
 10
172.201
 20
11.8208
 30
0.0
 11
171.402
 21
11.8208
 31
0.0
  0
LINE
  8
0
 62
     0
 10
171.402
 20
11.8208
 30
0.0
 11
171.402
 21
17.6223
 31
0.0
  0
LINE
  8
0
 62
     0
 10
171.402
 20
17.6223
 30
0.0
 11
172.201
 21
17.6223
 31
0.0
  0
LINE
  8
0
 62
     0
 10
172.201
 20
17.6223
 30
0.0
 11
172.201
 21
20.7216
 31
0.0
  0
LINE
  8
0
 62
     0
 10
172.201
 20
20.7216
 30
0.0
 11
171.402
 21
20.7216
 31
0.0
  0
LINE
  8
0
 62
     0
 10
171.402
 20
20.7216
 30
0.0
 11
171.402
 21
21.7206
 31
0.0
  0
LINE
  8
0
 62
     0
 10
171.402
 20
21.7206
 30
0.0
 11
157.401
 21
21.7206
 31
0.0
  0
LINE
  8
0
 62
     0
 10
231.22
 20
21.7206
 30
0.0
 11
231.22
 21
20.7216
 31
0.0
  0
LINE
  8
0
 62
     0
 10
231.22
 20
20.7216
 30
0.0
 11
230.419
 21
20.7216
 31
0.0
  0
LINE
  8
0
 62
     0
 10
230.419
 20
20.7216
 30
0.0
 11
230.419
 21
17.6223
 31
0.0
  0
LINE
  8
0
 62
     0
 10
230.419
 20
17.6223
 30
0.0
 11
231.22
 21
17.6223
 31
0.0
  0
LINE
  8
0
 62
     0
 10
231.22
 20
17.6223
 30
0.0
 11
231.22
 21
11.8208
 31
0.0
  0
LINE
  8
0
 62
     0
 10
231.22
 20
11.8208
 30
0.0
 11
230.419
 21
11.8208
 31
0.0
  0
LINE
  8
0
 62
     0
 10
230.419
 20
11.8208
 30
0.0
 11
230.419
 21
8.72162
 31
0.0
  0
LINE
  8
0
 62
     0
 10
230.419
 20
8.72162
 30
0.0
 11
231.22
 21
8.72162
 31
0.0
  0
LINE
  8
0
 62
     0
 10
231.22
 20
8.72162
 30
0.0
 11
231.22
 21
7.72114
 31
0.0
  0
LINE
  8
0
 62
     0
 10
231.22
 20
7.72114
 30
0.0
 11
245.219
 21
7.72114
 31
0.0
  0
LINE
  8
0
 62
     0
 10
245.219
 20
7.72114
 30
0.0
 11
245.219
 21
8.72162
 31
0.0
  0
LINE
  8
0
 62
     0
 10
245.219
 20
8.72162
 30
0.0
 11
246.02
 21
8.72162
 31
0.0
  0
LINE
  8
0
 62
     0
 10
246.02
 20
8.72162
 30
0.0
 11
246.02
 21
11.8208
 31
0.0
  0
LINE
  8
0
 62
     0
 10
246.02
 20
11.8208
 30
0.0
 11
245.219
 21
11.8208
 31
0.0
  0
LINE
  8
0
 62
     0
 10
245.219
 20
11.8208
 30
0.0
 11
245.219
 21
17.6223
 31
0.0
  0
LINE
  8
0
 62
     0
 10
245.219
 20
17.6223
 30
0.0
 11
246.02
 21
17.6223
 31
0.0
  0
LINE
  8
0
 62
     0
 10
246.02
 20
17.6223
 30
0.0
 11
246.02
 21
20.7216
 31
0.0
  0
LINE
  8
0
 62
     0
 10
246.02
 20
20.7216
 30
0.0
 11
245.219
 21
20.7216
 31
0.0
  0
LINE
  8
0
 62
     0
 10
245.219
 20
20.7216
 30
0.0
 11
245.219
 21
21.7206
 31
0.0
  0
LINE
  8
0
 62
     0
 10
245.219
 20
21.7206
 30
0.0
 11
231.22
 21
21.7206
 31
0.0
  0
LINE
  8
0
 62
     0
 10
314.563
 20
21.7206
 30
0.0
 11
314.563
 21
20.7216
 31
0.0
  0
LINE
  8
0
 62
     0
 10
314.563
 20
20.7216
 30
0.0
 11
313.764
 21
20.7216
 31
0.0
  0
LINE
  8
0
 62
     0
 10
313.764
 20
20.7216
 30
0.0
 11
313.764
 21
17.6223
 31
0.0
  0
LINE
  8
0
 62
     0
 10
313.764
 20
17.6223
 30
0.0
 11
314.563
 21
17.6223
 31
0.0
  0
LINE
  8
0
 62
     0
 10
314.563
 20
17.6223
 30
0.0
 11
314.563
 21
11.8208
 31
0.0
  0
LINE
  8
0
 62
     0
 10
314.563
 20
11.8208
 30
0.0
 11
313.764
 21
11.8208
 31
0.0
  0
LINE
  8
0
 62
     0
 10
313.764
 20
11.8208
 30
0.0
 11
313.764
 21
8.72162
 31
0.0
  0
LINE
  8
0
 62
     0
 10
313.764
 20
8.72162
 30
0.0
 11
314.563
 21
8.72162
 31
0.0
  0
LINE
  8
0
 62
     0
 10
314.563
 20
8.72162
 30
0.0
 11
314.563
 21
7.72114
 31
0.0
  0
LINE
  8
0
 62
     0
 10
314.563
 20
7.72114
 30
0.0
 11
328.563
 21
7.72114
 31
0.0
  0
LINE
  8
0
 62
     0
 10
328.563
 20
7.72114
 30
0.0
 11
328.563
 21
8.72162
 31
0.0
  0
LINE
  8
0
 62
     0
 10
328.563
 20
8.72162
 30
0.0
 11
329.364
 21
8.72162
 31
0.0
  0
LINE
  8
0
 62
     0
 10
329.364
 20
8.72162
 30
0.0
 11
329.364
 21
11.8208
 31
0.0
  0
LINE
  8
0
 62
     0
 10
329.364
 20
11.8208
 30
0.0
 11
328.563
 21
11.8208
 31
0.0
  0
LINE
  8
0
 62
     0
 10
328.563
 20
11.8208
 30
0.0
 11
328.563
 21
17.6223
 31
0.0
  0
LINE
  8
0
 62
     0
 10
328.563
 20
17.6223
 30
0.0
 11
329.364
 21
17.6223
 31
0.0
  0
LINE
  8
0
 62
     0
 10
329.364
 20
17.6223
 30
0.0
 11
329.364
 21
20.7216
 31
0.0
  0
LINE
  8
0
 62
     0
 10
329.364
 20
20.7216
 30
0.0
 11
328.563
 21
20.7216
 31
0.0
  0
LINE
  8
0
 62
     0
 10
328.563
 20
20.7216
 30
0.0
 11
328.563
 21
21.7206
 31
0.0
  0
LINE
  8
0
 62
     0
 10
328.563
 20
21.7206
 30
0.0
 11
314.563
 21
21.7206
 31
0.0
  0
LINE
  8
0
 62
     0
 10
343.138
 20
21.7206
 30
0.0
 11
343.138
 21
20.7216
 31
0.0
  0
LINE
  8
0
 62
     0
 10
343.138
 20
20.7216
 30
0.0
 11
342.339
 21
20.7216
 31
0.0
  0
LINE
  8
0
 62
     0
 10
342.339
 20
20.7216
 30
0.0
 11
342.339
 21
17.6223
 31
0.0
  0
LINE
  8
0
 62
     0
 10
342.339
 20
17.6223
 30
0.0
 11
343.138
 21
17.6223
 31
0.0
  0
LINE
  8
0
 62
     0
 10
343.138
 20
17.6223
 30
0.0
 11
343.138
 21
11.8208
 31
0.0
  0
LINE
  8
0
 62
     0
 10
343.138
 20
11.8208
 30
0.0
 11
342.339
 21
11.8208
 31
0.0
  0
LINE
  8
0
 62
     0
 10
342.339
 20
11.8208
 30
0.0
 11
342.339
 21
8.72162
 31
0.0
  0
LINE
  8
0
 62
     0
 10
342.339
 20
8.72162
 30
0.0
 11
343.138
 21
8.72162
 31
0.0
  0
LINE
  8
0
 62
     0
 10
343.138
 20
8.72162
 30
0.0
 11
343.138
 21
7.72114
 31
0.0
  0
LINE
  8
0
 62
     0
 10
343.138
 20
7.72114
 30
0.0
 11
357.138
 21
7.72114
 31
0.0
  0
LINE
  8
0
 62
     0
 10
357.138
 20
7.72114
 30
0.0
 11
357.138
 21
8.72162
 31
0.0
  0
LINE
  8
0
 62
     0
 10
357.138
 20
8.72162
 30
0.0
 11
357.939
 21
8.72162
 31
0.0
  0
LINE
  8
0
 62
     0
 10
357.939
 20
8.72162
 30
0.0
 11
357.939
 21
11.8208
 31
0.0
  0
LINE
  8
0
 62
     0
 10
357.939
 20
11.8208
 30
0.0
 11
357.138
 21
11.8208
 31
0.0
  0
LINE
  8
0
 62
     0
 10
357.138
 20
11.8208
 30
0.0
 11
357.138
 21
17.6223
 31
0.0
  0
LINE
  8
0
 62
     0
 10
357.138
 20
17.6223
 30
0.0
 11
357.939
 21
17.6223
 31
0.0
  0
LINE
  8
0
 62
     0
 10
357.939
 20
17.6223
 30
0.0
 11
357.939
 21
20.7216
 31
0.0
  0
LINE
  8
0
 62
     0
 10
357.939
 20
20.7216
 30
0.0
 11
357.138
 21
20.7216
 31
0.0
  0
LINE
  8
0
 62
     0
 10
357.138
 20
20.7216
 30
0.0
 11
357.138
 21
21.7206
 31
0.0
  0
LINE
  8
0
 62
     0
 10
357.138
 20
21.7206
 30
0.0
 11
343.138
 21
21.7206
 31
0.0
  0
LINE
  8
0
 62
     0
 10
369.334
 20
21.7206
 30
0.0
 11
369.334
 21
20.7216
 31
0.0
  0
LINE
  8
0
 62
     0
 10
369.334
 20
20.7216
 30
0.0
 11
368.533
 21
20.7216
 31
0.0
  0
LINE
  8
0
 62
     0
 10
368.533
 20
20.7216
 30
0.0
 11
368.533
 21
17.6223
 31
0.0
  0
LINE
  8
0
 62
     0
 10
368.533
 20
17.6223
 30
0.0
 11
369.334
 21
17.6223
 31
0.0
  0
LINE
  8
0
 62
     0
 10
369.334
 20
17.6223
 30
0.0
 11
369.334
 21
11.8208
 31
0.0
  0
LINE
  8
0
 62
     0
 10
369.334
 20
11.8208
 30
0.0
 11
368.533
 21
11.8208
 31
0.0
  0
LINE
  8
0
 62
     0
 10
368.533
 20
11.8208
 30
0.0
 11
368.533
 21
8.72162
 31
0.0
  0
LINE
  8
0
 62
     0
 10
368.533
 20
8.72162
 30
0.0
 11
369.334
 21
8.72162
 31
0.0
  0
LINE
  8
0
 62
     0
 10
369.334
 20
8.72162
 30
0.0
 11
369.334
 21
7.72114
 31
0.0
  0
LINE
  8
0
 62
     0
 10
369.334
 20
7.72114
 30
0.0
 11
383.332
 21
7.72114
 31
0.0
  0
LINE
  8
0
 62
     0
 10
383.332
 20
7.72114
 30
0.0
 11
383.332
 21
8.72162
 31
0.0
  0
LINE
  8
0
 62
     0
 10
383.332
 20
8.72162
 30
0.0
 11
384.133
 21
8.72162
 31
0.0
  0
LINE
  8
0
 62
     0
 10
384.133
 20
8.72162
 30
0.0
 11
384.133
 21
11.8208
 31
0.0
  0
LINE
  8
0
 62
     0
 10
384.133
 20
11.8208
 30
0.0
 11
383.332
 21
11.8208
 31
0.0
  0
LINE
  8
0
 62
     0
 10
383.332
 20
11.8208
 30
0.0
 11
383.332
 21
17.6223
 31
0.0
  0
LINE
  8
0
 62
     0
 10
383.332
 20
17.6223
 30
0.0
 11
384.133
 21
17.6223
 31
0.0
  0
LINE
  8
0
 62
     0
 10
384.133
 20
17.6223
 30
0.0
 11
384.133
 21
20.7216
 31
0.0
  0
LINE
  8
0
 62
     0
 10
384.133
 20
20.7216
 30
0.0
 11
383.332
 21
20.7216
 31
0.0
  0
LINE
  8
0
 62
     0
 10
383.332
 20
20.7216
 30
0.0
 11
383.332
 21
21.7206
 31
0.0
  0
LINE
  8
0
 62
     0
 10
383.332
 20
21.7206
 30
0.0
 11
369.334
 21
21.7206
 31
0.0
  0
LINE
  8
0
 62
     0
 10
9.11987
 20
40.3475
 30
0.0
 11
9.11987
 21
39.5206
 31
0.0
  0
LINE
  8
0
 62
     0
 10
9.11987
 20
39.5206
 30
0.0
 11
2.85116
 21
39.5206
 31
0.0
  0
LINE
  8
0
 62
     0
 10
2.85116
 20
39.5206
 30
0.0
 11
2.85116
 21
37.797
 31
0.0
  0
LINE
  8
0
 62
     0
 10
2.85116
 20
37.797
 30
0.0
 11
1.65089
 21
37.797
 31
0.0
  0
LINE
  8
0
 62
     0
 10
1.65089
 20
37.797
 30
0.0
 11
1.65089
 21
34.4964
 31
0.0
  0
LINE
  8
0
 62
     0
 10
1.65089
 20
34.4964
 30
0.0
 11
2.85116
 21
34.4964
 31
0.0
  0
LINE
  8
0
 62
     0
 10
2.85116
 20
34.4964
 30
0.0
 11
2.85116
 21
32.7711
 31
0.0
  0
LINE
  8
0
 62
     0
 10
2.85116
 20
32.7711
 30
0.0
 11
7.32014
 21
32.7711
 31
0.0
  0
LINE
  8
0
 62
     0
 10
7.32014
 20
32.7711
 30
0.0
 11
7.32014
 21
31.2456
 31
0.0
  0
LINE
  8
0
 62
     0
 10
7.32014
 20
31.2456
 30
0.0
 11
6.7207
 21
31.2456
 31
0.0
  0
LINE
  8
0
 62
     0
 10
6.7207
 20
31.2456
 30
0.0
 11
6.7207
 21
32.0463
 31
0.0
  0
LINE
  8
0
 62
     0
 10
6.7207
 20
32.0463
 30
0.0
 11
3.6201
 21
32.0463
 31
0.0
  0
LINE
  8
0
 62
     0
 10
3.6201
 20
32.0463
 30
0.0
 11
3.6201
 21
31.2456
 31
0.0
  0
LINE
  8
0
 62
     0
 10
3.6201
 20
31.2456
 30
0.0
 11
2.62103
 21
31.2456
 31
0.0
  0
LINE
  8
0
 62
     0
 10
2.62103
 20
31.2456
 30
0.0
 11
2.62103
 21
17.2461
 31
0.0
  0
LINE
  8
0
 62
     0
 10
2.62103
 20
17.2461
 30
0.0
 11
3.6201
 21
17.2461
 31
0.0
  0
LINE
  8
0
 62
     0
 10
3.6201
 20
17.2461
 30
0.0
 11
3.6201
 21
16.4455
 31
0.0
  0
LINE
  8
0
 62
     0
 10
3.6201
 20
16.4455
 30
0.0
 11
6.7207
 21
16.4455
 31
0.0
  0
LINE
  8
0
 62
     0
 10
6.7207
 20
16.4455
 30
0.0
 11
6.7207
 21
17.2461
 31
0.0
  0
LINE
  8
0
 62
     0
 10
6.7207
 20
17.2461
 30
0.0
 11
7.32014
 21
17.2461
 31
0.0
  0
LINE
  8
0
 62
     0
 10
7.32014
 20
17.2461
 30
0.0
 11
7.32014
 21
15.7207
 31
0.0
  0
LINE
  8
0
 62
     0
 10
7.32014
 20
15.7207
 30
0.0
 11
2.85116
 21
15.7207
 31
0.0
  0
LINE
  8
0
 62
     0
 10
2.85116
 20
15.7207
 30
0.0
 11
2.85116
 21
13.9967
 31
0.0
  0
LINE
  8
0
 62
     0
 10
2.85116
 20
13.9967
 30
0.0
 11
1.65089
 21
13.9967
 31
0.0
  0
LINE
  8
0
 62
     0
 10
1.65089
 20
13.9967
 30
0.0
 11
1.65089
 21
10.6963
 31
0.0
  0
LINE
  8
0
 62
     0
 10
1.65089
 20
10.6963
 30
0.0
 11
2.85116
 21
10.6963
 31
0.0
  0
LINE
  8
0
 62
     0
 10
2.85116
 20
10.6963
 30
0.0
 11
2.85116
 21
8.97103
 31
0.0
  0
LINE
  8
0
 62
     0
 10
2.85116
 20
8.97103
 30
0.0
 11
9.11987
 21
8.97103
 31
0.0
  0
LINE
  8
0
 62
     0
 10
9.11987
 20
8.97103
 30
0.0
 11
9.11987
 21
8.14557
 31
0.0
  0
LINE
  8
0
 62
     0
 10
9.11987
 20
8.14557
 30
0.0
 11
11.92
 21
8.14557
 31
0.0
  0
LINE
  8
0
 62
     0
 10
11.92
 20
8.14557
 30
0.0
 11
11.92
 21
8.97103
 31
0.0
  0
LINE
  8
0
 62
     0
 10
11.92
 20
8.97103
 30
0.0
 11
15.1501
 21
8.97103
 31
0.0
  0
LINE
  8
0
 62
     0
 10
15.1501
 20
8.97103
 30
0.0
 11
15.1501
 21
15.7207
 31
0.0
  0
LINE
  8
0
 62
     0
 10
15.1501
 20
15.7207
 30
0.0
 11
11.92
 21
15.7207
 31
0.0
  0
LINE
  8
0
 62
     0
 10
11.92
 20
15.7207
 30
0.0
 11
11.92
 21
17.2461
 31
0.0
  0
LINE
  8
0
 62
     0
 10
11.92
 20
17.2461
 30
0.0
 11
12.5209
 21
17.2461
 31
0.0
  0
LINE
  8
0
 62
     0
 10
12.5209
 20
17.2461
 30
0.0
 11
12.5209
 21
16.4455
 31
0.0
  0
LINE
  8
0
 62
     0
 10
12.5209
 20
16.4455
 30
0.0
 11
15.62
 21
16.4455
 31
0.0
  0
LINE
  8
0
 62
     0
 10
15.62
 20
16.4455
 30
0.0
 11
15.62
 21
17.2461
 31
0.0
  0
LINE
  8
0
 62
     0
 10
15.62
 20
17.2461
 30
0.0
 11
16.6205
 21
17.2461
 31
0.0
  0
LINE
  8
0
 62
     0
 10
16.6205
 20
17.2461
 30
0.0
 11
16.6205
 21
31.2456
 31
0.0
  0
LINE
  8
0
 62
     0
 10
16.6205
 20
31.2456
 30
0.0
 11
15.62
 21
31.2456
 31
0.0
  0
LINE
  8
0
 62
     0
 10
15.62
 20
31.2456
 30
0.0
 11
15.62
 21
32.0463
 31
0.0
  0
LINE
  8
0
 62
     0
 10
15.62
 20
32.0463
 30
0.0
 11
12.5209
 21
32.0463
 31
0.0
  0
LINE
  8
0
 62
     0
 10
12.5209
 20
32.0463
 30
0.0
 11
12.5209
 21
31.2456
 31
0.0
  0
LINE
  8
0
 62
     0
 10
12.5209
 20
31.2456
 30
0.0
 11
11.92
 21
31.2456
 31
0.0
  0
LINE
  8
0
 62
     0
 10
11.92
 20
31.2456
 30
0.0
 11
11.92
 21
32.7711
 31
0.0
  0
LINE
  8
0
 62
     0
 10
11.92
 20
32.7711
 30
0.0
 11
15.1501
 21
32.7711
 31
0.0
  0
LINE
  8
0
 62
     0
 10
15.1501
 20
32.7711
 30
0.0
 11
15.1501
 21
39.5206
 31
0.0
  0
LINE
  8
0
 62
     0
 10
15.1501
 20
39.5206
 30
0.0
 11
11.92
 21
39.5206
 31
0.0
  0
LINE
  8
0
 62
     0
 10
11.92
 20
39.5206
 30
0.0
 11
11.92
 21
40.3475
 31
0.0
  0
LINE
  8
0
 62
     0
 10
11.92
 20
40.3475
 30
0.0
 11
9.11987
 21
40.3475
 31
0.0
  0
LINE
  8
0
 62
     0
 10
83.5822
 20
36.0094
 30
0.0
 11
83.5822
 21
35.0091
 31
0.0
  0
LINE
  8
0
 62
     0
 10
83.5822
 20
35.0091
 30
0.0
 11
82.7828
 21
35.0091
 31
0.0
  0
LINE
  8
0
 62
     0
 10
82.7828
 20
35.0091
 30
0.0
 11
82.7828
 21
31.9098
 31
0.0
  0
LINE
  8
0
 62
     0
 10
82.7828
 20
31.9098
 30
0.0
 11
83.5822
 21
31.9098
 31
0.0
  0
LINE
  8
0
 62
     0
 10
83.5822
 20
31.9098
 30
0.0
 11
83.5822
 21
26.1097
 31
0.0
  0
LINE
  8
0
 62
     0
 10
83.5822
 20
26.1097
 30
0.0
 11
82.7828
 21
26.1097
 31
0.0
  0
LINE
  8
0
 62
     0
 10
82.7828
 20
26.1097
 30
0.0
 11
82.7828
 21
23.0091
 31
0.0
  0
LINE
  8
0
 62
     0
 10
82.7828
 20
23.0091
 30
0.0
 11
83.5822
 21
23.0091
 31
0.0
  0
LINE
  8
0
 62
     0
 10
83.5822
 20
23.0091
 30
0.0
 11
83.5822
 21
22.0086
 31
0.0
  0
LINE
  8
0
 62
     0
 10
83.5822
 20
22.0086
 30
0.0
 11
97.5829
 21
22.0086
 31
0.0
  0
LINE
  8
0
 62
     0
 10
97.5829
 20
22.0086
 30
0.0
 11
97.5829
 21
23.0091
 31
0.0
  0
LINE
  8
0
 62
     0
 10
97.5829
 20
23.0091
 30
0.0
 11
98.3823
 21
23.0091
 31
0.0
  0
LINE
  8
0
 62
     0
 10
98.3823
 20
23.0091
 30
0.0
 11
98.3823
 21
26.1097
 31
0.0
  0
LINE
  8
0
 62
     0
 10
98.3823
 20
26.1097
 30
0.0
 11
97.5829
 21
26.1097
 31
0.0
  0
LINE
  8
0
 62
     0
 10
97.5829
 20
26.1097
 30
0.0
 11
97.5829
 21
31.9098
 31
0.0
  0
LINE
  8
0
 62
     0
 10
97.5829
 20
31.9098
 30
0.0
 11
98.3823
 21
31.9098
 31
0.0
  0
LINE
  8
0
 62
     0
 10
98.3823
 20
31.9098
 30
0.0
 11
98.3823
 21
35.0091
 31
0.0
  0
LINE
  8
0
 62
     0
 10
98.3823
 20
35.0091
 30
0.0
 11
97.5829
 21
35.0091
 31
0.0
  0
LINE
  8
0
 62
     0
 10
97.5829
 20
35.0091
 30
0.0
 11
97.5829
 21
36.0094
 31
0.0
  0
LINE
  8
0
 62
     0
 10
97.5829
 20
36.0094
 30
0.0
 11
83.5822
 21
36.0094
 31
0.0
  0
LINE
  8
0
 62
     0
 10
119.301
 20
40.7705
 30
0.0
 11
119.301
 21
39.7715
 31
0.0
  0
LINE
  8
0
 62
     0
 10
119.301
 20
39.7715
 30
0.0
 11
118.502
 21
39.7715
 31
0.0
  0
LINE
  8
0
 62
     0
 10
118.502
 20
39.7715
 30
0.0
 11
118.502
 21
36.6723
 31
0.0
  0
LINE
  8
0
 62
     0
 10
118.502
 20
36.6723
 30
0.0
 11
119.301
 21
36.6723
 31
0.0
  0
LINE
  8
0
 62
     0
 10
119.301
 20
36.6723
 30
0.0
 11
119.301
 21
36.0715
 31
0.0
  0
LINE
  8
0
 62
     0
 10
119.301
 20
36.0715
 30
0.0
 11
117.777
 21
36.0715
 31
0.0
  0
LINE
  8
0
 62
     0
 10
117.777
 20
36.0715
 30
0.0
 11
117.777
 21
39.3016
 31
0.0
  0
LINE
  8
0
 62
     0
 10
117.777
 20
39.3016
 30
0.0
 11
111.027
 21
39.3016
 31
0.0
  0
LINE
  8
0
 62
     0
 10
111.027
 20
39.3016
 30
0.0
 11
111.027
 21
36.0715
 31
0.0
  0
LINE
  8
0
 62
     0
 10
111.027
 20
36.0715
 30
0.0
 11
110.202
 21
36.0715
 31
0.0
  0
LINE
  8
0
 62
     0
 10
110.202
 20
36.0715
 30
0.0
 11
110.202
 21
33.2714
 31
0.0
  0
LINE
  8
0
 62
     0
 10
110.202
 20
33.2714
 30
0.0
 11
111.027
 21
33.2714
 31
0.0
  0
LINE
  8
0
 62
     0
 10
111.027
 20
33.2714
 30
0.0
 11
111.027
 21
27.0013
 31
0.0
  0
LINE
  8
0
 62
     0
 10
111.027
 20
27.0013
 30
0.0
 11
112.751
 21
27.0013
 31
0.0
  0
LINE
  8
0
 62
     0
 10
112.751
 20
27.0013
 30
0.0
 11
112.751
 21
25.801
 31
0.0
  0
LINE
  8
0
 62
     0
 10
112.751
 20
25.801
 30
0.0
 11
116.052
 21
25.801
 31
0.0
  0
LINE
  8
0
 62
     0
 10
116.052
 20
25.801
 30
0.0
 11
116.052
 21
27.0013
 31
0.0
  0
LINE
  8
0
 62
     0
 10
116.052
 20
27.0013
 30
0.0
 11
117.777
 21
27.0013
 31
0.0
  0
LINE
  8
0
 62
     0
 10
117.777
 20
27.0013
 30
0.0
 11
117.777
 21
31.4716
 31
0.0
  0
LINE
  8
0
 62
     0
 10
117.777
 20
31.4716
 30
0.0
 11
119.301
 21
31.4716
 31
0.0
  0
LINE
  8
0
 62
     0
 10
119.301
 20
31.4716
 30
0.0
 11
119.301
 21
30.8708
 31
0.0
  0
LINE
  8
0
 62
     0
 10
119.301
 20
30.8708
 30
0.0
 11
118.502
 21
30.8708
 31
0.0
  0
LINE
  8
0
 62
     0
 10
118.502
 20
30.8708
 30
0.0
 11
118.502
 21
27.7716
 31
0.0
  0
LINE
  8
0
 62
     0
 10
118.502
 20
27.7716
 30
0.0
 11
119.301
 21
27.7716
 31
0.0
  0
LINE
  8
0
 62
     0
 10
119.301
 20
27.7716
 30
0.0
 11
119.301
 21
26.7711
 31
0.0
  0
LINE
  8
0
 62
     0
 10
119.301
 20
26.7711
 30
0.0
 11
133.302
 21
26.7711
 31
0.0
  0
LINE
  8
0
 62
     0
 10
133.302
 20
26.7711
 30
0.0
 11
133.302
 21
27.7716
 31
0.0
  0
LINE
  8
0
 62
     0
 10
133.302
 20
27.7716
 30
0.0
 11
134.101
 21
27.7716
 31
0.0
  0
LINE
  8
0
 62
     0
 10
134.101
 20
27.7716
 30
0.0
 11
134.101
 21
30.8708
 31
0.0
  0
LINE
  8
0
 62
     0
 10
134.101
 20
30.8708
 30
0.0
 11
133.302
 21
30.8708
 31
0.0
  0
LINE
  8
0
 62
     0
 10
133.302
 20
30.8708
 30
0.0
 11
133.302
 21
31.4716
 31
0.0
  0
LINE
  8
0
 62
     0
 10
133.302
 20
31.4716
 30
0.0
 11
134.826
 21
31.4716
 31
0.0
  0
LINE
  8
0
 62
     0
 10
134.826
 20
31.4716
 30
0.0
 11
134.826
 21
27.0013
 31
0.0
  0
LINE
  8
0
 62
     0
 10
134.826
 20
27.0013
 30
0.0
 11
136.551
 21
27.0013
 31
0.0
  0
LINE
  8
0
 62
     0
 10
136.551
 20
27.0013
 30
0.0
 11
136.551
 21
25.801
 31
0.0
  0
LINE
  8
0
 62
     0
 10
136.551
 20
25.801
 30
0.0
 11
139.852
 21
25.801
 31
0.0
  0
LINE
  8
0
 62
     0
 10
139.852
 20
25.801
 30
0.0
 11
139.852
 21
27.0013
 31
0.0
  0
LINE
  8
0
 62
     0
 10
139.852
 20
27.0013
 30
0.0
 11
141.577
 21
27.0013
 31
0.0
  0
LINE
  8
0
 62
     0
 10
141.577
 20
27.0013
 30
0.0
 11
141.577
 21
33.2714
 31
0.0
  0
LINE
  8
0
 62
     0
 10
141.577
 20
33.2714
 30
0.0
 11
142.401
 21
33.2714
 31
0.0
  0
LINE
  8
0
 62
     0
 10
142.401
 20
33.2714
 30
0.0
 11
142.401
 21
36.0715
 31
0.0
  0
LINE
  8
0
 62
     0
 10
142.401
 20
36.0715
 30
0.0
 11
141.577
 21
36.0715
 31
0.0
  0
LINE
  8
0
 62
     0
 10
141.577
 20
36.0715
 30
0.0
 11
141.577
 21
39.3016
 31
0.0
  0
LINE
  8
0
 62
     0
 10
141.577
 20
39.3016
 30
0.0
 11
134.826
 21
39.3016
 31
0.0
  0
LINE
  8
0
 62
     0
 10
134.826
 20
39.3016
 30
0.0
 11
134.826
 21
36.0715
 31
0.0
  0
LINE
  8
0
 62
     0
 10
134.826
 20
36.0715
 30
0.0
 11
133.302
 21
36.0715
 31
0.0
  0
LINE
  8
0
 62
     0
 10
133.302
 20
36.0715
 30
0.0
 11
133.302
 21
36.6723
 31
0.0
  0
LINE
  8
0
 62
     0
 10
133.302
 20
36.6723
 30
0.0
 11
134.101
 21
36.6723
 31
0.0
  0
LINE
  8
0
 62
     0
 10
134.101
 20
36.6723
 30
0.0
 11
134.101
 21
39.7715
 31
0.0
  0
LINE
  8
0
 62
     0
 10
134.101
 20
39.7715
 30
0.0
 11
133.302
 21
39.7715
 31
0.0
  0
LINE
  8
0
 62
     0
 10
133.302
 20
39.7715
 30
0.0
 11
133.302
 21
40.7705
 31
0.0
  0
LINE
  8
0
 62
     0
 10
133.302
 20
40.7705
 30
0.0
 11
119.301
 21
40.7705
 31
0.0
  0
LINE
  8
0
 62
     0
 10
357.427
 20
40.7705
 30
0.0
 11
357.427
 21
39.7715
 31
0.0
  0
LINE
  8
0
 62
     0
 10
357.427
 20
39.7715
 30
0.0
 11
356.627
 21
39.7715
 31
0.0
  0
LINE
  8
0
 62
     0
 10
356.627
 20
39.7715
 30
0.0
 11
356.627
 21
36.6723
 31
0.0
  0
LINE
  8
0
 62
     0
 10
356.627
 20
36.6723
 30
0.0
 11
357.427
 21
36.6723
 31
0.0
  0
LINE
  8
0
 62
     0
 10
357.427
 20
36.6723
 30
0.0
 11
357.427
 21
36.0715
 31
0.0
  0
LINE
  8
0
 62
     0
 10
357.427
 20
36.0715
 30
0.0
 11
355.903
 21
36.0715
 31
0.0
  0
LINE
  8
0
 62
     0
 10
355.903
 20
36.0715
 30
0.0
 11
355.903
 21
39.3016
 31
0.0
  0
LINE
  8
0
 62
     0
 10
355.903
 20
39.3016
 30
0.0
 11
349.152
 21
39.3016
 31
0.0
  0
LINE
  8
0
 62
     0
 10
349.152
 20
39.3016
 30
0.0
 11
349.152
 21
36.0715
 31
0.0
  0
LINE
  8
0
 62
     0
 10
349.152
 20
36.0715
 30
0.0
 11
348.327
 21
36.0715
 31
0.0
  0
LINE
  8
0
 62
     0
 10
348.327
 20
36.0715
 30
0.0
 11
348.327
 21
33.2714
 31
0.0
  0
LINE
  8
0
 62
     0
 10
348.327
 20
33.2714
 30
0.0
 11
349.152
 21
33.2714
 31
0.0
  0
LINE
  8
0
 62
     0
 10
349.152
 20
33.2714
 30
0.0
 11
349.152
 21
27.0013
 31
0.0
  0
LINE
  8
0
 62
     0
 10
349.152
 20
27.0013
 30
0.0
 11
350.876
 21
27.0013
 31
0.0
  0
LINE
  8
0
 62
     0
 10
350.876
 20
27.0013
 30
0.0
 11
350.876
 21
25.801
 31
0.0
  0
LINE
  8
0
 62
     0
 10
350.876
 20
25.801
 30
0.0
 11
354.175
 21
25.801
 31
0.0
  0
LINE
  8
0
 62
     0
 10
354.175
 20
25.801
 30
0.0
 11
354.175
 21
27.0013
 31
0.0
  0
LINE
  8
0
 62
     0
 10
354.175
 20
27.0013
 30
0.0
 11
355.903
 21
27.0013
 31
0.0
  0
LINE
  8
0
 62
     0
 10
355.903
 20
27.0013
 30
0.0
 11
355.903
 21
31.4716
 31
0.0
  0
LINE
  8
0
 62
     0
 10
355.903
 20
31.4716
 30
0.0
 11
357.427
 21
31.4716
 31
0.0
  0
LINE
  8
0
 62
     0
 10
357.427
 20
31.4716
 30
0.0
 11
357.427
 21
30.8708
 31
0.0
  0
LINE
  8
0
 62
     0
 10
357.427
 20
30.8708
 30
0.0
 11
356.627
 21
30.8708
 31
0.0
  0
LINE
  8
0
 62
     0
 10
356.627
 20
30.8708
 30
0.0
 11
356.627
 21
27.7716
 31
0.0
  0
LINE
  8
0
 62
     0
 10
356.627
 20
27.7716
 30
0.0
 11
357.427
 21
27.7716
 31
0.0
  0
LINE
  8
0
 62
     0
 10
357.427
 20
27.7716
 30
0.0
 11
357.427
 21
26.7711
 31
0.0
  0
LINE
  8
0
 62
     0
 10
357.427
 20
26.7711
 30
0.0
 11
371.426
 21
26.7711
 31
0.0
  0
LINE
  8
0
 62
     0
 10
371.426
 20
26.7711
 30
0.0
 11
371.426
 21
27.7716
 31
0.0
  0
LINE
  8
0
 62
     0
 10
371.426
 20
27.7716
 30
0.0
 11
372.226
 21
27.7716
 31
0.0
  0
LINE
  8
0
 62
     0
 10
372.226
 20
27.7716
 30
0.0
 11
372.226
 21
30.8708
 31
0.0
  0
LINE
  8
0
 62
     0
 10
372.226
 20
30.8708
 30
0.0
 11
371.426
 21
30.8708
 31
0.0
  0
LINE
  8
0
 62
     0
 10
371.426
 20
30.8708
 30
0.0
 11
371.426
 21
31.4716
 31
0.0
  0
LINE
  8
0
 62
     0
 10
371.426
 20
31.4716
 30
0.0
 11
372.95
 21
31.4716
 31
0.0
  0
LINE
  8
0
 62
     0
 10
372.95
 20
31.4716
 30
0.0
 11
372.95
 21
27.0013
 31
0.0
  0
LINE
  8
0
 62
     0
 10
372.95
 20
27.0013
 30
0.0
 11
374.675
 21
27.0013
 31
0.0
  0
LINE
  8
0
 62
     0
 10
374.675
 20
27.0013
 30
0.0
 11
374.675
 21
25.801
 31
0.0
  0
LINE
  8
0
 62
     0
 10
374.675
 20
25.801
 30
0.0
 11
377.977
 21
25.801
 31
0.0
  0
LINE
  8
0
 62
     0
 10
377.977
 20
25.801
 30
0.0
 11
377.977
 21
27.0013
 31
0.0
  0
LINE
  8
0
 62
     0
 10
377.977
 20
27.0013
 30
0.0
 11
379.702
 21
27.0013
 31
0.0
  0
LINE
  8
0
 62
     0
 10
379.702
 20
27.0013
 30
0.0
 11
379.702
 21
33.2714
 31
0.0
  0
LINE
  8
0
 62
     0
 10
379.702
 20
33.2714
 30
0.0
 11
380.527
 21
33.2714
 31
0.0
  0
LINE
  8
0
 62
     0
 10
380.527
 20
33.2714
 30
0.0
 11
380.527
 21
36.0715
 31
0.0
  0
LINE
  8
0
 62
     0
 10
380.527
 20
36.0715
 30
0.0
 11
379.702
 21
36.0715
 31
0.0
  0
LINE
  8
0
 62
     0
 10
379.702
 20
36.0715
 30
0.0
 11
379.702
 21
39.3016
 31
0.0
  0
LINE
  8
0
 62
     0
 10
379.702
 20
39.3016
 30
0.0
 11
372.95
 21
39.3016
 31
0.0
  0
LINE
  8
0
 62
     0
 10
372.95
 20
39.3016
 30
0.0
 11
372.95
 21
36.0715
 31
0.0
  0
LINE
  8
0
 62
     0
 10
372.95
 20
36.0715
 30
0.0
 11
371.426
 21
36.0715
 31
0.0
  0
LINE
  8
0
 62
     0
 10
371.426
 20
36.0715
 30
0.0
 11
371.426
 21
36.6723
 31
0.0
  0
LINE
  8
0
 62
     0
 10
371.426
 20
36.6723
 30
0.0
 11
372.226
 21
36.6723
 31
0.0
  0
LINE
  8
0
 62
     0
 10
372.226
 20
36.6723
 30
0.0
 11
372.226
 21
39.7715
 31
0.0
  0
LINE
  8
0
 62
     0
 10
372.226
 20
39.7715
 30
0.0
 11
371.426
 21
39.7715
 31
0.0
  0
LINE
  8
0
 62
     0
 10
371.426
 20
39.7715
 30
0.0
 11
371.426
 21
40.7705
 31
0.0
  0
LINE
  8
0
 62
     0
 10
371.426
 20
40.7705
 30
0.0
 11
357.427
 21
40.7705
 31
0.0
  0
LINE
  8
0
 62
     0
 10
21.671
 20
40.7705
 30
0.0
 11
21.671
 21
39.7715
 31
0.0
  0
LINE
  8
0
 62
     0
 10
21.671
 20
39.7715
 30
0.0
 11
20.8704
 21
39.7715
 31
0.0
  0
LINE
  8
0
 62
     0
 10
20.8704
 20
39.7715
 30
0.0
 11
20.8704
 21
36.6723
 31
0.0
  0
LINE
  8
0
 62
     0
 10
20.8704
 20
36.6723
 30
0.0
 11
21.671
 21
36.6723
 31
0.0
  0
LINE
  8
0
 62
     0
 10
21.671
 20
36.6723
 30
0.0
 11
21.671
 21
30.8708
 31
0.0
  0
LINE
  8
0
 62
     0
 10
21.671
 20
30.8708
 30
0.0
 11
20.8704
 21
30.8708
 31
0.0
  0
LINE
  8
0
 62
     0
 10
20.8704
 20
30.8708
 30
0.0
 11
20.8704
 21
27.7716
 31
0.0
  0
LINE
  8
0
 62
     0
 10
20.8704
 20
27.7716
 30
0.0
 11
21.671
 21
27.7716
 31
0.0
  0
LINE
  8
0
 62
     0
 10
21.671
 20
27.7716
 30
0.0
 11
21.671
 21
26.7711
 31
0.0
  0
LINE
  8
0
 62
     0
 10
21.671
 20
26.7711
 30
0.0
 11
35.6704
 21
26.7711
 31
0.0
  0
LINE
  8
0
 62
     0
 10
35.6704
 20
26.7711
 30
0.0
 11
35.6704
 21
27.7716
 31
0.0
  0
LINE
  8
0
 62
     0
 10
35.6704
 20
27.7716
 30
0.0
 11
36.4712
 21
27.7716
 31
0.0
  0
LINE
  8
0
 62
     0
 10
36.4712
 20
27.7716
 30
0.0
 11
36.4712
 21
30.8708
 31
0.0
  0
LINE
  8
0
 62
     0
 10
36.4712
 20
30.8708
 30
0.0
 11
35.6704
 21
30.8708
 31
0.0
  0
LINE
  8
0
 62
     0
 10
35.6704
 20
30.8708
 30
0.0
 11
35.6704
 21
36.6723
 31
0.0
  0
LINE
  8
0
 62
     0
 10
35.6704
 20
36.6723
 30
0.0
 11
36.4712
 21
36.6723
 31
0.0
  0
LINE
  8
0
 62
     0
 10
36.4712
 20
36.6723
 30
0.0
 11
36.4712
 21
39.7715
 31
0.0
  0
LINE
  8
0
 62
     0
 10
36.4712
 20
39.7715
 30
0.0
 11
35.6704
 21
39.7715
 31
0.0
  0
LINE
  8
0
 62
     0
 10
35.6704
 20
39.7715
 30
0.0
 11
35.6704
 21
40.7705
 31
0.0
  0
LINE
  8
0
 62
     0
 10
35.6704
 20
40.7705
 30
0.0
 11
21.671
 21
40.7705
 31
0.0
  0
LINE
  8
0
 62
     0
 10
40.7211
 20
40.7705
 30
0.0
 11
40.7211
 21
39.7715
 31
0.0
  0
LINE
  8
0
 62
     0
 10
40.7211
 20
39.7715
 30
0.0
 11
39.9203
 21
39.7715
 31
0.0
  0
LINE
  8
0
 62
     0
 10
39.9203
 20
39.7715
 30
0.0
 11
39.9203
 21
36.6723
 31
0.0
  0
LINE
  8
0
 62
     0
 10
39.9203
 20
36.6723
 30
0.0
 11
40.7211
 21
36.6723
 31
0.0
  0
LINE
  8
0
 62
     0
 10
40.7211
 20
36.6723
 30
0.0
 11
40.7211
 21
30.8708
 31
0.0
  0
LINE
  8
0
 62
     0
 10
40.7211
 20
30.8708
 30
0.0
 11
39.9203
 21
30.8708
 31
0.0
  0
LINE
  8
0
 62
     0
 10
39.9203
 20
30.8708
 30
0.0
 11
39.9203
 21
27.7716
 31
0.0
  0
LINE
  8
0
 62
     0
 10
39.9203
 20
27.7716
 30
0.0
 11
40.7211
 21
27.7716
 31
0.0
  0
LINE
  8
0
 62
     0
 10
40.7211
 20
27.7716
 30
0.0
 11
40.7211
 21
26.7711
 31
0.0
  0
LINE
  8
0
 62
     0
 10
40.7211
 20
26.7711
 30
0.0
 11
54.7204
 21
26.7711
 31
0.0
  0
LINE
  8
0
 62
     0
 10
54.7204
 20
26.7711
 30
0.0
 11
54.7204
 21
27.7716
 31
0.0
  0
LINE
  8
0
 62
     0
 10
54.7204
 20
27.7716
 30
0.0
 11
55.5212
 21
27.7716
 31
0.0
  0
LINE
  8
0
 62
     0
 10
55.5212
 20
27.7716
 30
0.0
 11
55.5212
 21
30.8708
 31
0.0
  0
LINE
  8
0
 62
     0
 10
55.5212
 20
30.8708
 30
0.0
 11
54.7204
 21
30.8708
 31
0.0
  0
LINE
  8
0
 62
     0
 10
54.7204
 20
30.8708
 30
0.0
 11
54.7204
 21
36.6723
 31
0.0
  0
LINE
  8
0
 62
     0
 10
54.7204
 20
36.6723
 30
0.0
 11
55.5212
 21
36.6723
 31
0.0
  0
LINE
  8
0
 62
     0
 10
55.5212
 20
36.6723
 30
0.0
 11
55.5212
 21
39.7715
 31
0.0
  0
LINE
  8
0
 62
     0
 10
55.5212
 20
39.7715
 30
0.0
 11
54.7204
 21
39.7715
 31
0.0
  0
LINE
  8
0
 62
     0
 10
54.7204
 20
39.7715
 30
0.0
 11
54.7204
 21
40.7705
 31
0.0
  0
LINE
  8
0
 62
     0
 10
54.7204
 20
40.7705
 30
0.0
 11
40.7211
 21
40.7705
 31
0.0
  0
LINE
  8
0
 62
     0
 10
59.7711
 20
40.7705
 30
0.0
 11
59.7711
 21
39.7715
 31
0.0
  0
LINE
  8
0
 62
     0
 10
59.7711
 20
39.7715
 30
0.0
 11
58.9703
 21
39.7715
 31
0.0
  0
LINE
  8
0
 62
     0
 10
58.9703
 20
39.7715
 30
0.0
 11
58.9703
 21
36.6723
 31
0.0
  0
LINE
  8
0
 62
     0
 10
58.9703
 20
36.6723
 30
0.0
 11
59.7711
 21
36.6723
 31
0.0
  0
LINE
  8
0
 62
     0
 10
59.7711
 20
36.6723
 30
0.0
 11
59.7711
 21
30.8708
 31
0.0
  0
LINE
  8
0
 62
     0
 10
59.7711
 20
30.8708
 30
0.0
 11
58.9703
 21
30.8708
 31
0.0
  0
LINE
  8
0
 62
     0
 10
58.9703
 20
30.8708
 30
0.0
 11
58.9703
 21
27.7716
 31
0.0
  0
LINE
  8
0
 62
     0
 10
58.9703
 20
27.7716
 30
0.0
 11
59.7711
 21
27.7716
 31
0.0
  0
LINE
  8
0
 62
     0
 10
59.7711
 20
27.7716
 30
0.0
 11
59.7711
 21
26.7711
 31
0.0
  0
LINE
  8
0
 62
     0
 10
59.7711
 20
26.7711
 30
0.0
 11
73.7704
 21
26.7711
 31
0.0
  0
LINE
  8
0
 62
     0
 10
73.7704
 20
26.7711
 30
0.0
 11
73.7704
 21
27.7716
 31
0.0
  0
LINE
  8
0
 62
     0
 10
73.7704
 20
27.7716
 30
0.0
 11
74.5712
 21
27.7716
 31
0.0
  0
LINE
  8
0
 62
     0
 10
74.5712
 20
27.7716
 30
0.0
 11
74.5712
 21
30.8708
 31
0.0
  0
LINE
  8
0
 62
     0
 10
74.5712
 20
30.8708
 30
0.0
 11
73.7704
 21
30.8708
 31
0.0
  0
LINE
  8
0
 62
     0
 10
73.7704
 20
30.8708
 30
0.0
 11
73.7704
 21
36.6723
 31
0.0
  0
LINE
  8
0
 62
     0
 10
73.7704
 20
36.6723
 30
0.0
 11
74.5712
 21
36.6723
 31
0.0
  0
LINE
  8
0
 62
     0
 10
74.5712
 20
36.6723
 30
0.0
 11
74.5712
 21
39.7715
 31
0.0
  0
LINE
  8
0
 62
     0
 10
74.5712
 20
39.7715
 30
0.0
 11
73.7704
 21
39.7715
 31
0.0
  0
LINE
  8
0
 62
     0
 10
73.7704
 20
39.7715
 30
0.0
 11
73.7704
 21
40.7705
 31
0.0
  0
LINE
  8
0
 62
     0
 10
73.7704
 20
40.7705
 30
0.0
 11
59.7711
 21
40.7705
 31
0.0
  0
LINE
  8
0
 62
     0
 10
150.257
 20
40.7705
 30
0.0
 11
150.257
 21
39.7715
 31
0.0
  0
LINE
  8
0
 62
     0
 10
150.257
 20
39.7715
 30
0.0
 11
149.458
 21
39.7715
 31
0.0
  0
LINE
  8
0
 62
     0
 10
149.458
 20
39.7715
 30
0.0
 11
149.458
 21
36.6723
 31
0.0
  0
LINE
  8
0
 62
     0
 10
149.458
 20
36.6723
 30
0.0
 11
150.257
 21
36.6723
 31
0.0
  0
LINE
  8
0
 62
     0
 10
150.257
 20
36.6723
 30
0.0
 11
150.257
 21
30.8708
 31
0.0
  0
LINE
  8
0
 62
     0
 10
150.257
 20
30.8708
 30
0.0
 11
149.458
 21
30.8708
 31
0.0
  0
LINE
  8
0
 62
     0
 10
149.458
 20
30.8708
 30
0.0
 11
149.458
 21
27.7716
 31
0.0
  0
LINE
  8
0
 62
     0
 10
149.458
 20
27.7716
 30
0.0
 11
150.257
 21
27.7716
 31
0.0
  0
LINE
  8
0
 62
     0
 10
150.257
 20
27.7716
 30
0.0
 11
150.257
 21
26.7711
 31
0.0
  0
LINE
  8
0
 62
     0
 10
150.257
 20
26.7711
 30
0.0
 11
164.258
 21
26.7711
 31
0.0
  0
LINE
  8
0
 62
     0
 10
164.258
 20
26.7711
 30
0.0
 11
164.258
 21
27.7716
 31
0.0
  0
LINE
  8
0
 62
     0
 10
164.258
 20
27.7716
 30
0.0
 11
165.057
 21
27.7716
 31
0.0
  0
LINE
  8
0
 62
     0
 10
165.057
 20
27.7716
 30
0.0
 11
165.057
 21
30.8708
 31
0.0
  0
LINE
  8
0
 62
     0
 10
165.057
 20
30.8708
 30
0.0
 11
164.258
 21
30.8708
 31
0.0
  0
LINE
  8
0
 62
     0
 10
164.258
 20
30.8708
 30
0.0
 11
164.258
 21
36.6723
 31
0.0
  0
LINE
  8
0
 62
     0
 10
164.258
 20
36.6723
 30
0.0
 11
165.057
 21
36.6723
 31
0.0
  0
LINE
  8
0
 62
     0
 10
165.057
 20
36.6723
 30
0.0
 11
165.057
 21
39.7715
 31
0.0
  0
LINE
  8
0
 62
     0
 10
165.057
 20
39.7715
 30
0.0
 11
164.258
 21
39.7715
 31
0.0
  0
LINE
  8
0
 62
     0
 10
164.258
 20
39.7715
 30
0.0
 11
164.258
 21
40.7705
 31
0.0
  0
LINE
  8
0
 62
     0
 10
164.258
 20
40.7705
 30
0.0
 11
150.257
 21
40.7705
 31
0.0
  0
LINE
  8
0
 62
     0
 10
169.307
 20
40.7705
 30
0.0
 11
169.307
 21
39.7715
 31
0.0
  0
LINE
  8
0
 62
     0
 10
169.307
 20
39.7715
 30
0.0
 11
168.508
 21
39.7715
 31
0.0
  0
LINE
  8
0
 62
     0
 10
168.508
 20
39.7715
 30
0.0
 11
168.508
 21
36.6723
 31
0.0
  0
LINE
  8
0
 62
     0
 10
168.508
 20
36.6723
 30
0.0
 11
169.307
 21
36.6723
 31
0.0
  0
LINE
  8
0
 62
     0
 10
169.307
 20
36.6723
 30
0.0
 11
169.307
 21
30.8708
 31
0.0
  0
LINE
  8
0
 62
     0
 10
169.307
 20
30.8708
 30
0.0
 11
168.508
 21
30.8708
 31
0.0
  0
LINE
  8
0
 62
     0
 10
168.508
 20
30.8708
 30
0.0
 11
168.508
 21
27.7716
 31
0.0
  0
LINE
  8
0
 62
     0
 10
168.508
 20
27.7716
 30
0.0
 11
169.307
 21
27.7716
 31
0.0
  0
LINE
  8
0
 62
     0
 10
169.307
 20
27.7716
 30
0.0
 11
169.307
 21
26.7711
 31
0.0
  0
LINE
  8
0
 62
     0
 10
169.307
 20
26.7711
 30
0.0
 11
183.308
 21
26.7711
 31
0.0
  0
LINE
  8
0
 62
     0
 10
183.308
 20
26.7711
 30
0.0
 11
183.308
 21
27.7716
 31
0.0
  0
LINE
  8
0
 62
     0
 10
183.308
 20
27.7716
 30
0.0
 11
184.107
 21
27.7716
 31
0.0
  0
LINE
  8
0
 62
     0
 10
184.107
 20
27.7716
 30
0.0
 11
184.107
 21
30.8708
 31
0.0
  0
LINE
  8
0
 62
     0
 10
184.107
 20
30.8708
 30
0.0
 11
183.308
 21
30.8708
 31
0.0
  0
LINE
  8
0
 62
     0
 10
183.308
 20
30.8708
 30
0.0
 11
183.308
 21
36.6723
 31
0.0
  0
LINE
  8
0
 62
     0
 10
183.308
 20
36.6723
 30
0.0
 11
184.107
 21
36.6723
 31
0.0
  0
LINE
  8
0
 62
     0
 10
184.107
 20
36.6723
 30
0.0
 11
184.107
 21
39.7715
 31
0.0
  0
LINE
  8
0
 62
     0
 10
184.107
 20
39.7715
 30
0.0
 11
183.308
 21
39.7715
 31
0.0
  0
LINE
  8
0
 62
     0
 10
183.308
 20
39.7715
 30
0.0
 11
183.308
 21
40.7705
 31
0.0
  0
LINE
  8
0
 62
     0
 10
183.308
 20
40.7705
 30
0.0
 11
169.307
 21
40.7705
 31
0.0
  0
LINE
  8
0
 62
     0
 10
188.357
 20
40.7705
 30
0.0
 11
188.357
 21
39.7715
 31
0.0
  0
LINE
  8
0
 62
     0
 10
188.357
 20
39.7715
 30
0.0
 11
187.558
 21
39.7715
 31
0.0
  0
LINE
  8
0
 62
     0
 10
187.558
 20
39.7715
 30
0.0
 11
187.558
 21
36.6723
 31
0.0
  0
LINE
  8
0
 62
     0
 10
187.558
 20
36.6723
 30
0.0
 11
188.357
 21
36.6723
 31
0.0
  0
LINE
  8
0
 62
     0
 10
188.357
 20
36.6723
 30
0.0
 11
188.357
 21
30.8708
 31
0.0
  0
LINE
  8
0
 62
     0
 10
188.357
 20
30.8708
 30
0.0
 11
187.558
 21
30.8708
 31
0.0
  0
LINE
  8
0
 62
     0
 10
187.558
 20
30.8708
 30
0.0
 11
187.558
 21
27.7716
 31
0.0
  0
LINE
  8
0
 62
     0
 10
187.558
 20
27.7716
 30
0.0
 11
188.357
 21
27.7716
 31
0.0
  0
LINE
  8
0
 62
     0
 10
188.357
 20
27.7716
 30
0.0
 11
188.357
 21
26.7711
 31
0.0
  0
LINE
  8
0
 62
     0
 10
188.357
 20
26.7711
 30
0.0
 11
202.358
 21
26.7711
 31
0.0
  0
LINE
  8
0
 62
     0
 10
202.358
 20
26.7711
 30
0.0
 11
202.358
 21
27.7716
 31
0.0
  0
LINE
  8
0
 62
     0
 10
202.358
 20
27.7716
 30
0.0
 11
203.157
 21
27.7716
 31
0.0
  0
LINE
  8
0
 62
     0
 10
203.157
 20
27.7716
 30
0.0
 11
203.157
 21
30.8708
 31
0.0
  0
LINE
  8
0
 62
     0
 10
203.157
 20
30.8708
 30
0.0
 11
202.358
 21
30.8708
 31
0.0
  0
LINE
  8
0
 62
     0
 10
202.358
 20
30.8708
 30
0.0
 11
202.358
 21
36.6723
 31
0.0
  0
LINE
  8
0
 62
     0
 10
202.358
 20
36.6723
 30
0.0
 11
203.157
 21
36.6723
 31
0.0
  0
LINE
  8
0
 62
     0
 10
203.157
 20
36.6723
 30
0.0
 11
203.157
 21
39.7715
 31
0.0
  0
LINE
  8
0
 62
     0
 10
203.157
 20
39.7715
 30
0.0
 11
202.358
 21
39.7715
 31
0.0
  0
LINE
  8
0
 62
     0
 10
202.358
 20
39.7715
 30
0.0
 11
202.358
 21
40.7705
 31
0.0
  0
LINE
  8
0
 62
     0
 10
202.358
 20
40.7705
 30
0.0
 11
188.357
 21
40.7705
 31
0.0
  0
LINE
  8
0
 62
     0
 10
207.407
 20
40.7705
 30
0.0
 11
207.407
 21
39.7715
 31
0.0
  0
LINE
  8
0
 62
     0
 10
207.407
 20
39.7715
 30
0.0
 11
206.608
 21
39.7715
 31
0.0
  0
LINE
  8
0
 62
     0
 10
206.608
 20
39.7715
 30
0.0
 11
206.608
 21
36.6723
 31
0.0
  0
LINE
  8
0
 62
     0
 10
206.608
 20
36.6723
 30
0.0
 11
207.407
 21
36.6723
 31
0.0
  0
LINE
  8
0
 62
     0
 10
207.407
 20
36.6723
 30
0.0
 11
207.407
 21
30.8708
 31
0.0
  0
LINE
  8
0
 62
     0
 10
207.407
 20
30.8708
 30
0.0
 11
206.608
 21
30.8708
 31
0.0
  0
LINE
  8
0
 62
     0
 10
206.608
 20
30.8708
 30
0.0
 11
206.608
 21
27.7716
 31
0.0
  0
LINE
  8
0
 62
     0
 10
206.608
 20
27.7716
 30
0.0
 11
207.407
 21
27.7716
 31
0.0
  0
LINE
  8
0
 62
     0
 10
207.407
 20
27.7716
 30
0.0
 11
207.407
 21
26.7711
 31
0.0
  0
LINE
  8
0
 62
     0
 10
207.407
 20
26.7711
 30
0.0
 11
221.408
 21
26.7711
 31
0.0
  0
LINE
  8
0
 62
     0
 10
221.408
 20
26.7711
 30
0.0
 11
221.408
 21
27.7716
 31
0.0
  0
LINE
  8
0
 62
     0
 10
221.408
 20
27.7716
 30
0.0
 11
222.207
 21
27.7716
 31
0.0
  0
LINE
  8
0
 62
     0
 10
222.207
 20
27.7716
 30
0.0
 11
222.207
 21
30.8708
 31
0.0
  0
LINE
  8
0
 62
     0
 10
222.207
 20
30.8708
 30
0.0
 11
221.408
 21
30.8708
 31
0.0
  0
LINE
  8
0
 62
     0
 10
221.408
 20
30.8708
 30
0.0
 11
221.408
 21
36.6723
 31
0.0
  0
LINE
  8
0
 62
     0
 10
221.408
 20
36.6723
 30
0.0
 11
222.207
 21
36.6723
 31
0.0
  0
LINE
  8
0
 62
     0
 10
222.207
 20
36.6723
 30
0.0
 11
222.207
 21
39.7715
 31
0.0
  0
LINE
  8
0
 62
     0
 10
222.207
 20
39.7715
 30
0.0
 11
221.408
 21
39.7715
 31
0.0
  0
LINE
  8
0
 62
     0
 10
221.408
 20
39.7715
 30
0.0
 11
221.408
 21
40.7705
 31
0.0
  0
LINE
  8
0
 62
     0
 10
221.408
 20
40.7705
 30
0.0
 11
207.407
 21
40.7705
 31
0.0
  0
LINE
  8
0
 62
     0
 10
226.457
 20
40.7705
 30
0.0
 11
226.457
 21
39.7715
 31
0.0
  0
LINE
  8
0
 62
     0
 10
226.457
 20
39.7715
 30
0.0
 11
225.658
 21
39.7715
 31
0.0
  0
LINE
  8
0
 62
     0
 10
225.658
 20
39.7715
 30
0.0
 11
225.658
 21
36.6723
 31
0.0
  0
LINE
  8
0
 62
     0
 10
225.658
 20
36.6723
 30
0.0
 11
226.457
 21
36.6723
 31
0.0
  0
LINE
  8
0
 62
     0
 10
226.457
 20
36.6723
 30
0.0
 11
226.457
 21
30.8708
 31
0.0
  0
LINE
  8
0
 62
     0
 10
226.457
 20
30.8708
 30
0.0
 11
225.658
 21
30.8708
 31
0.0
  0
LINE
  8
0
 62
     0
 10
225.658
 20
30.8708
 30
0.0
 11
225.658
 21
27.7716
 31
0.0
  0
LINE
  8
0
 62
     0
 10
225.658
 20
27.7716
 30
0.0
 11
226.457
 21
27.7716
 31
0.0
  0
LINE
  8
0
 62
     0
 10
226.457
 20
27.7716
 30
0.0
 11
226.457
 21
26.7711
 31
0.0
  0
LINE
  8
0
 62
     0
 10
226.457
 20
26.7711
 30
0.0
 11
240.458
 21
26.7711
 31
0.0
  0
LINE
  8
0
 62
     0
 10
240.458
 20
26.7711
 30
0.0
 11
240.458
 21
27.7716
 31
0.0
  0
LINE
  8
0
 62
     0
 10
240.458
 20
27.7716
 30
0.0
 11
241.257
 21
27.7716
 31
0.0
  0
LINE
  8
0
 62
     0
 10
241.257
 20
27.7716
 30
0.0
 11
241.257
 21
30.8708
 31
0.0
  0
LINE
  8
0
 62
     0
 10
241.257
 20
30.8708
 30
0.0
 11
240.458
 21
30.8708
 31
0.0
  0
LINE
  8
0
 62
     0
 10
240.458
 20
30.8708
 30
0.0
 11
240.458
 21
36.6723
 31
0.0
  0
LINE
  8
0
 62
     0
 10
240.458
 20
36.6723
 30
0.0
 11
241.257
 21
36.6723
 31
0.0
  0
LINE
  8
0
 62
     0
 10
241.257
 20
36.6723
 30
0.0
 11
241.257
 21
39.7715
 31
0.0
  0
LINE
  8
0
 62
     0
 10
241.257
 20
39.7715
 30
0.0
 11
240.458
 21
39.7715
 31
0.0
  0
LINE
  8
0
 62
     0
 10
240.458
 20
39.7715
 30
0.0
 11
240.458
 21
40.7705
 31
0.0
  0
LINE
  8
0
 62
     0
 10
240.458
 20
40.7705
 30
0.0
 11
226.457
 21
40.7705
 31
0.0
  0
LINE
  8
0
 62
     0
 10
245.507
 20
40.7705
 30
0.0
 11
245.507
 21
39.7715
 31
0.0
  0
LINE
  8
0
 62
     0
 10
245.507
 20
39.7715
 30
0.0
 11
244.708
 21
39.7715
 31
0.0
  0
LINE
  8
0
 62
     0
 10
244.708
 20
39.7715
 30
0.0
 11
244.708
 21
36.6723
 31
0.0
  0
LINE
  8
0
 62
     0
 10
244.708
 20
36.6723
 30
0.0
 11
245.507
 21
36.6723
 31
0.0
  0
LINE
  8
0
 62
     0
 10
245.507
 20
36.6723
 30
0.0
 11
245.507
 21
30.8708
 31
0.0
  0
LINE
  8
0
 62
     0
 10
245.507
 20
30.8708
 30
0.0
 11
244.708
 21
30.8708
 31
0.0
  0
LINE
  8
0
 62
     0
 10
244.708
 20
30.8708
 30
0.0
 11
244.708
 21
27.7716
 31
0.0
  0
LINE
  8
0
 62
     0
 10
244.708
 20
27.7716
 30
0.0
 11
245.507
 21
27.7716
 31
0.0
  0
LINE
  8
0
 62
     0
 10
245.507
 20
27.7716
 30
0.0
 11
245.507
 21
26.7711
 31
0.0
  0
LINE
  8
0
 62
     0
 10
245.507
 20
26.7711
 30
0.0
 11
259.508
 21
26.7711
 31
0.0
  0
LINE
  8
0
 62
     0
 10
259.508
 20
26.7711
 30
0.0
 11
259.508
 21
27.7716
 31
0.0
  0
LINE
  8
0
 62
     0
 10
259.508
 20
27.7716
 30
0.0
 11
260.307
 21
27.7716
 31
0.0
  0
LINE
  8
0
 62
     0
 10
260.307
 20
27.7716
 30
0.0
 11
260.307
 21
30.8708
 31
0.0
  0
LINE
  8
0
 62
     0
 10
260.307
 20
30.8708
 30
0.0
 11
259.508
 21
30.8708
 31
0.0
  0
LINE
  8
0
 62
     0
 10
259.508
 20
30.8708
 30
0.0
 11
259.508
 21
36.6723
 31
0.0
  0
LINE
  8
0
 62
     0
 10
259.508
 20
36.6723
 30
0.0
 11
260.307
 21
36.6723
 31
0.0
  0
LINE
  8
0
 62
     0
 10
260.307
 20
36.6723
 30
0.0
 11
260.307
 21
39.7715
 31
0.0
  0
LINE
  8
0
 62
     0
 10
260.307
 20
39.7715
 30
0.0
 11
259.508
 21
39.7715
 31
0.0
  0
LINE
  8
0
 62
     0
 10
259.508
 20
39.7715
 30
0.0
 11
259.508
 21
40.7705
 31
0.0
  0
LINE
  8
0
 62
     0
 10
259.508
 20
40.7705
 30
0.0
 11
245.507
 21
40.7705
 31
0.0
  0
LINE
  8
0
 62
     0
 10
264.557
 20
40.7705
 30
0.0
 11
264.557
 21
39.7715
 31
0.0
  0
LINE
  8
0
 62
     0
 10
264.557
 20
39.7715
 30
0.0
 11
263.758
 21
39.7715
 31
0.0
  0
LINE
  8
0
 62
     0
 10
263.758
 20
39.7715
 30
0.0
 11
263.758
 21
36.6723
 31
0.0
  0
LINE
  8
0
 62
     0
 10
263.758
 20
36.6723
 30
0.0
 11
264.557
 21
36.6723
 31
0.0
  0
LINE
  8
0
 62
     0
 10
264.557
 20
36.6723
 30
0.0
 11
264.557
 21
30.8708
 31
0.0
  0
LINE
  8
0
 62
     0
 10
264.557
 20
30.8708
 30
0.0
 11
263.758
 21
30.8708
 31
0.0
  0
LINE
  8
0
 62
     0
 10
263.758
 20
30.8708
 30
0.0
 11
263.758
 21
27.7716
 31
0.0
  0
LINE
  8
0
 62
     0
 10
263.758
 20
27.7716
 30
0.0
 11
264.557
 21
27.7716
 31
0.0
  0
LINE
  8
0
 62
     0
 10
264.557
 20
27.7716
 30
0.0
 11
264.557
 21
26.7711
 31
0.0
  0
LINE
  8
0
 62
     0
 10
264.557
 20
26.7711
 30
0.0
 11
278.558
 21
26.7711
 31
0.0
  0
LINE
  8
0
 62
     0
 10
278.558
 20
26.7711
 30
0.0
 11
278.558
 21
27.7716
 31
0.0
  0
LINE
  8
0
 62
     0
 10
278.558
 20
27.7716
 30
0.0
 11
279.357
 21
27.7716
 31
0.0
  0
LINE
  8
0
 62
     0
 10
279.357
 20
27.7716
 30
0.0
 11
279.357
 21
30.8708
 31
0.0
  0
LINE
  8
0
 62
     0
 10
279.357
 20
30.8708
 30
0.0
 11
278.558
 21
30.8708
 31
0.0
  0
LINE
  8
0
 62
     0
 10
278.558
 20
30.8708
 30
0.0
 11
278.558
 21
36.6723
 31
0.0
  0
LINE
  8
0
 62
     0
 10
278.558
 20
36.6723
 30
0.0
 11
279.357
 21
36.6723
 31
0.0
  0
LINE
  8
0
 62
     0
 10
279.357
 20
36.6723
 30
0.0
 11
279.357
 21
39.7715
 31
0.0
  0
LINE
  8
0
 62
     0
 10
279.357
 20
39.7715
 30
0.0
 11
278.558
 21
39.7715
 31
0.0
  0
LINE
  8
0
 62
     0
 10
278.558
 20
39.7715
 30
0.0
 11
278.558
 21
40.7705
 31
0.0
  0
LINE
  8
0
 62
     0
 10
278.558
 20
40.7705
 30
0.0
 11
264.557
 21
40.7705
 31
0.0
  0
LINE
  8
0
 62
     0
 10
283.607
 20
40.7705
 30
0.0
 11
283.607
 21
39.7715
 31
0.0
  0
LINE
  8
0
 62
     0
 10
283.607
 20
39.7715
 30
0.0
 11
282.808
 21
39.7715
 31
0.0
  0
LINE
  8
0
 62
     0
 10
282.808
 20
39.7715
 30
0.0
 11
282.808
 21
36.6723
 31
0.0
  0
LINE
  8
0
 62
     0
 10
282.808
 20
36.6723
 30
0.0
 11
283.607
 21
36.6723
 31
0.0
  0
LINE
  8
0
 62
     0
 10
283.607
 20
36.6723
 30
0.0
 11
283.607
 21
30.8708
 31
0.0
  0
LINE
  8
0
 62
     0
 10
283.607
 20
30.8708
 30
0.0
 11
282.808
 21
30.8708
 31
0.0
  0
LINE
  8
0
 62
     0
 10
282.808
 20
30.8708
 30
0.0
 11
282.808
 21
27.7716
 31
0.0
  0
LINE
  8
0
 62
     0
 10
282.808
 20
27.7716
 30
0.0
 11
283.607
 21
27.7716
 31
0.0
  0
LINE
  8
0
 62
     0
 10
283.607
 20
27.7716
 30
0.0
 11
283.607
 21
26.7711
 31
0.0
  0
LINE
  8
0
 62
     0
 10
283.607
 20
26.7711
 30
0.0
 11
297.608
 21
26.7711
 31
0.0
  0
LINE
  8
0
 62
     0
 10
297.608
 20
26.7711
 30
0.0
 11
297.608
 21
27.7716
 31
0.0
  0
LINE
  8
0
 62
     0
 10
297.608
 20
27.7716
 30
0.0
 11
298.407
 21
27.7716
 31
0.0
  0
LINE
  8
0
 62
     0
 10
298.407
 20
27.7716
 30
0.0
 11
298.407
 21
30.8708
 31
0.0
  0
LINE
  8
0
 62
     0
 10
298.407
 20
30.8708
 30
0.0
 11
297.608
 21
30.8708
 31
0.0
  0
LINE
  8
0
 62
     0
 10
297.608
 20
30.8708
 30
0.0
 11
297.608
 21
36.6723
 31
0.0
  0
LINE
  8
0
 62
     0
 10
297.608
 20
36.6723
 30
0.0
 11
298.407
 21
36.6723
 31
0.0
  0
LINE
  8
0
 62
     0
 10
298.407
 20
36.6723
 30
0.0
 11
298.407
 21
39.7715
 31
0.0
  0
LINE
  8
0
 62
     0
 10
298.407
 20
39.7715
 30
0.0
 11
297.608
 21
39.7715
 31
0.0
  0
LINE
  8
0
 62
     0
 10
297.608
 20
39.7715
 30
0.0
 11
297.608
 21
40.7705
 31
0.0
  0
LINE
  8
0
 62
     0
 10
297.608
 20
40.7705
 30
0.0
 11
283.607
 21
40.7705
 31
0.0
  0
LINE
  8
0
 62
     0
 10
302.657
 20
40.7705
 30
0.0
 11
302.657
 21
39.7715
 31
0.0
  0
LINE
  8
0
 62
     0
 10
302.657
 20
39.7715
 30
0.0
 11
301.858
 21
39.7715
 31
0.0
  0
LINE
  8
0
 62
     0
 10
301.858
 20
39.7715
 30
0.0
 11
301.858
 21
36.6723
 31
0.0
  0
LINE
  8
0
 62
     0
 10
301.858
 20
36.6723
 30
0.0
 11
302.657
 21
36.6723
 31
0.0
  0
LINE
  8
0
 62
     0
 10
302.657
 20
36.6723
 30
0.0
 11
302.657
 21
30.8708
 31
0.0
  0
LINE
  8
0
 62
     0
 10
302.657
 20
30.8708
 30
0.0
 11
301.858
 21
30.8708
 31
0.0
  0
LINE
  8
0
 62
     0
 10
301.858
 20
30.8708
 30
0.0
 11
301.858
 21
27.7716
 31
0.0
  0
LINE
  8
0
 62
     0
 10
301.858
 20
27.7716
 30
0.0
 11
302.657
 21
27.7716
 31
0.0
  0
LINE
  8
0
 62
     0
 10
302.657
 20
27.7716
 30
0.0
 11
302.657
 21
26.7711
 31
0.0
  0
LINE
  8
0
 62
     0
 10
302.657
 20
26.7711
 30
0.0
 11
316.658
 21
26.7711
 31
0.0
  0
LINE
  8
0
 62
     0
 10
316.658
 20
26.7711
 30
0.0
 11
316.658
 21
27.7716
 31
0.0
  0
LINE
  8
0
 62
     0
 10
316.658
 20
27.7716
 30
0.0
 11
317.457
 21
27.7716
 31
0.0
  0
LINE
  8
0
 62
     0
 10
317.457
 20
27.7716
 30
0.0
 11
317.457
 21
30.8708
 31
0.0
  0
LINE
  8
0
 62
     0
 10
317.457
 20
30.8708
 30
0.0
 11
316.658
 21
30.8708
 31
0.0
  0
LINE
  8
0
 62
     0
 10
316.658
 20
30.8708
 30
0.0
 11
316.658
 21
36.6723
 31
0.0
  0
LINE
  8
0
 62
     0
 10
316.658
 20
36.6723
 30
0.0
 11
317.457
 21
36.6723
 31
0.0
  0
LINE
  8
0
 62
     0
 10
317.457
 20
36.6723
 30
0.0
 11
317.457
 21
39.7715
 31
0.0
  0
LINE
  8
0
 62
     0
 10
317.457
 20
39.7715
 30
0.0
 11
316.658
 21
39.7715
 31
0.0
  0
LINE
  8
0
 62
     0
 10
316.658
 20
39.7715
 30
0.0
 11
316.658
 21
40.7705
 31
0.0
  0
LINE
  8
0
 62
     0
 10
316.658
 20
40.7705
 30
0.0
 11
302.657
 21
40.7705
 31
0.0
  0
LINE
  8
0
 62
     0
 10
321.707
 20
40.7705
 30
0.0
 11
321.707
 21
39.7715
 31
0.0
  0
LINE
  8
0
 62
     0
 10
321.707
 20
39.7715
 30
0.0
 11
320.908
 21
39.7715
 31
0.0
  0
LINE
  8
0
 62
     0
 10
320.908
 20
39.7715
 30
0.0
 11
320.908
 21
36.6723
 31
0.0
  0
LINE
  8
0
 62
     0
 10
320.908
 20
36.6723
 30
0.0
 11
321.707
 21
36.6723
 31
0.0
  0
LINE
  8
0
 62
     0
 10
321.707
 20
36.6723
 30
0.0
 11
321.707
 21
30.8708
 31
0.0
  0
LINE
  8
0
 62
     0
 10
321.707
 20
30.8708
 30
0.0
 11
320.908
 21
30.8708
 31
0.0
  0
LINE
  8
0
 62
     0
 10
320.908
 20
30.8708
 30
0.0
 11
320.908
 21
27.7716
 31
0.0
  0
LINE
  8
0
 62
     0
 10
320.908
 20
27.7716
 30
0.0
 11
321.707
 21
27.7716
 31
0.0
  0
LINE
  8
0
 62
     0
 10
321.707
 20
27.7716
 30
0.0
 11
321.707
 21
26.7711
 31
0.0
  0
LINE
  8
0
 62
     0
 10
321.707
 20
26.7711
 30
0.0
 11
335.708
 21
26.7711
 31
0.0
  0
LINE
  8
0
 62
     0
 10
335.708
 20
26.7711
 30
0.0
 11
335.708
 21
27.7716
 31
0.0
  0
LINE
  8
0
 62
     0
 10
335.708
 20
27.7716
 30
0.0
 11
336.507
 21
27.7716
 31
0.0
  0
LINE
  8
0
 62
     0
 10
336.507
 20
27.7716
 30
0.0
 11
336.507
 21
30.8708
 31
0.0
  0
LINE
  8
0
 62
     0
 10
336.507
 20
30.8708
 30
0.0
 11
335.708
 21
30.8708
 31
0.0
  0
LINE
  8
0
 62
     0
 10
335.708
 20
30.8708
 30
0.0
 11
335.708
 21
36.6723
 31
0.0
  0
LINE
  8
0
 62
     0
 10
335.708
 20
36.6723
 30
0.0
 11
336.507
 21
36.6723
 31
0.0
  0
LINE
  8
0
 62
     0
 10
336.507
 20
36.6723
 30
0.0
 11
336.507
 21
39.7715
 31
0.0
  0
LINE
  8
0
 62
     0
 10
336.507
 20
39.7715
 30
0.0
 11
335.708
 21
39.7715
 31
0.0
  0
LINE
  8
0
 62
     0
 10
335.708
 20
39.7715
 30
0.0
 11
335.708
 21
40.7705
 31
0.0
  0
LINE
  8
0
 62
     0
 10
335.708
 20
40.7705
 30
0.0
 11
321.707
 21
40.7705
 31
0.0
  0
LINE
  8
0
 62
     0
 10
362.19
 20
59.8205
 30
0.0
 11
362.19
 21
58.8215
 31
0.0
  0
LINE
  8
0
 62
     0
 10
362.19
 20
58.8215
 30
0.0
 11
361.389
 21
58.8215
 31
0.0
  0
LINE
  8
0
 62
     0
 10
361.389
 20
58.8215
 30
0.0
 11
361.389
 21
55.7209
 31
0.0
  0
LINE
  8
0
 62
     0
 10
361.389
 20
55.7209
 30
0.0
 11
362.19
 21
55.7209
 31
0.0
  0
LINE
  8
0
 62
     0
 10
362.19
 20
55.7209
 30
0.0
 11
362.19
 21
55.1215
 31
0.0
  0
LINE
  8
0
 62
     0
 10
362.19
 20
55.1215
 30
0.0
 11
360.662
 21
55.1215
 31
0.0
  0
LINE
  8
0
 62
     0
 10
360.662
 20
55.1215
 30
0.0
 11
360.662
 21
58.3516
 31
0.0
  0
LINE
  8
0
 62
     0
 10
360.662
 20
58.3516
 30
0.0
 11
353.914
 21
58.3516
 31
0.0
  0
LINE
  8
0
 62
     0
 10
353.914
 20
58.3516
 30
0.0
 11
353.914
 21
55.1215
 31
0.0
  0
LINE
  8
0
 62
     0
 10
353.914
 20
55.1215
 30
0.0
 11
353.088
 21
55.1215
 31
0.0
  0
LINE
  8
0
 62
     0
 10
353.088
 20
55.1215
 30
0.0
 11
353.088
 21
52.3215
 31
0.0
  0
LINE
  8
0
 62
     0
 10
353.088
 20
52.3215
 30
0.0
 11
353.914
 21
52.3215
 31
0.0
  0
LINE
  8
0
 62
     0
 10
353.914
 20
52.3215
 30
0.0
 11
353.914
 21
46.0527
 31
0.0
  0
LINE
  8
0
 62
     0
 10
353.914
 20
46.0527
 30
0.0
 11
355.639
 21
46.0527
 31
0.0
  0
LINE
  8
0
 62
     0
 10
355.639
 20
46.0527
 30
0.0
 11
355.639
 21
44.8511
 31
0.0
  0
LINE
  8
0
 62
     0
 10
355.639
 20
44.8511
 30
0.0
 11
358.937
 21
44.8511
 31
0.0
  0
LINE
  8
0
 62
     0
 10
358.937
 20
44.8511
 30
0.0
 11
358.937
 21
46.0527
 31
0.0
  0
LINE
  8
0
 62
     0
 10
358.937
 20
46.0527
 30
0.0
 11
360.662
 21
46.0527
 31
0.0
  0
LINE
  8
0
 62
     0
 10
360.662
 20
46.0527
 30
0.0
 11
360.662
 21
50.5217
 31
0.0
  0
LINE
  8
0
 62
     0
 10
360.662
 20
50.5217
 30
0.0
 11
362.19
 21
50.5217
 31
0.0
  0
LINE
  8
0
 62
     0
 10
362.19
 20
50.5217
 30
0.0
 11
362.19
 21
49.9209
 31
0.0
  0
LINE
  8
0
 62
     0
 10
362.19
 20
49.9209
 30
0.0
 11
361.389
 21
49.9209
 31
0.0
  0
LINE
  8
0
 62
     0
 10
361.389
 20
49.9209
 30
0.0
 11
361.389
 21
46.8217
 31
0.0
  0
LINE
  8
0
 62
     0
 10
361.389
 20
46.8217
 30
0.0
 11
362.19
 21
46.8217
 31
0.0
  0
LINE
  8
0
 62
     0
 10
362.19
 20
46.8217
 30
0.0
 11
362.19
 21
45.8212
 31
0.0
  0
LINE
  8
0
 62
     0
 10
362.19
 20
45.8212
 30
0.0
 11
376.188
 21
45.8212
 31
0.0
  0
LINE
  8
0
 62
     0
 10
376.188
 20
45.8212
 30
0.0
 11
376.188
 21
46.8217
 31
0.0
  0
LINE
  8
0
 62
     0
 10
376.188
 20
46.8217
 30
0.0
 11
376.989
 21
46.8217
 31
0.0
  0
LINE
  8
0
 62
     0
 10
376.989
 20
46.8217
 30
0.0
 11
376.989
 21
49.9209
 31
0.0
  0
LINE
  8
0
 62
     0
 10
376.989
 20
49.9209
 30
0.0
 11
376.188
 21
49.9209
 31
0.0
  0
LINE
  8
0
 62
     0
 10
376.188
 20
49.9209
 30
0.0
 11
376.188
 21
50.5217
 31
0.0
  0
LINE
  8
0
 62
     0
 10
376.188
 20
50.5217
 30
0.0
 11
377.712
 21
50.5217
 31
0.0
  0
LINE
  8
0
 62
     0
 10
377.712
 20
50.5217
 30
0.0
 11
377.712
 21
46.0527
 31
0.0
  0
LINE
  8
0
 62
     0
 10
377.712
 20
46.0527
 30
0.0
 11
379.437
 21
46.0527
 31
0.0
  0
LINE
  8
0
 62
     0
 10
379.437
 20
46.0527
 30
0.0
 11
379.437
 21
44.8511
 31
0.0
  0
LINE
  8
0
 62
     0
 10
379.437
 20
44.8511
 30
0.0
 11
382.739
 21
44.8511
 31
0.0
  0
LINE
  8
0
 62
     0
 10
382.739
 20
44.8511
 30
0.0
 11
382.739
 21
46.0527
 31
0.0
  0
LINE
  8
0
 62
     0
 10
382.739
 20
46.0527
 30
0.0
 11
384.464
 21
46.0527
 31
0.0
  0
LINE
  8
0
 62
     0
 10
384.464
 20
46.0527
 30
0.0
 11
384.464
 21
52.3215
 31
0.0
  0
LINE
  8
0
 62
     0
 10
384.464
 20
52.3215
 30
0.0
 11
385.29
 21
52.3215
 31
0.0
  0
LINE
  8
0
 62
     0
 10
385.29
 20
52.3215
 30
0.0
 11
385.29
 21
55.1215
 31
0.0
  0
LINE
  8
0
 62
     0
 10
385.29
 20
55.1215
 30
0.0
 11
384.464
 21
55.1215
 31
0.0
  0
LINE
  8
0
 62
     0
 10
384.464
 20
55.1215
 30
0.0
 11
384.464
 21
58.3516
 31
0.0
  0
LINE
  8
0
 62
     0
 10
384.464
 20
58.3516
 30
0.0
 11
377.712
 21
58.3516
 31
0.0
  0
LINE
  8
0
 62
     0
 10
377.712
 20
58.3516
 30
0.0
 11
377.712
 21
55.1215
 31
0.0
  0
LINE
  8
0
 62
     0
 10
377.712
 20
55.1215
 30
0.0
 11
376.188
 21
55.1215
 31
0.0
  0
LINE
  8
0
 62
     0
 10
376.188
 20
55.1215
 30
0.0
 11
376.188
 21
55.7209
 31
0.0
  0
LINE
  8
0
 62
     0
 10
376.188
 20
55.7209
 30
0.0
 11
376.989
 21
55.7209
 31
0.0
  0
LINE
  8
0
 62
     0
 10
376.989
 20
55.7209
 30
0.0
 11
376.989
 21
58.8215
 31
0.0
  0
LINE
  8
0
 62
     0
 10
376.989
 20
58.8215
 30
0.0
 11
376.188
 21
58.8215
 31
0.0
  0
LINE
  8
0
 62
     0
 10
376.188
 20
58.8215
 30
0.0
 11
376.188
 21
59.8205
 31
0.0
  0
LINE
  8
0
 62
     0
 10
376.188
 20
59.8205
 30
0.0
 11
362.19
 21
59.8205
 31
0.0
  0
LINE
  8
0
 62
     0
 10
21.671
 20
59.8205
 30
0.0
 11
21.671
 21
58.8215
 31
0.0
  0
LINE
  8
0
 62
     0
 10
21.671
 20
58.8215
 30
0.0
 11
20.8704
 21
58.8215
 31
0.0
  0
LINE
  8
0
 62
     0
 10
20.8704
 20
58.8215
 30
0.0
 11
20.8704
 21
55.7209
 31
0.0
  0
LINE
  8
0
 62
     0
 10
20.8704
 20
55.7209
 30
0.0
 11
21.671
 21
55.7209
 31
0.0
  0
LINE
  8
0
 62
     0
 10
21.671
 20
55.7209
 30
0.0
 11
21.671
 21
49.9209
 31
0.0
  0
LINE
  8
0
 62
     0
 10
21.671
 20
49.9209
 30
0.0
 11
20.8704
 21
49.9209
 31
0.0
  0
LINE
  8
0
 62
     0
 10
20.8704
 20
49.9209
 30
0.0
 11
20.8704
 21
46.8217
 31
0.0
  0
LINE
  8
0
 62
     0
 10
20.8704
 20
46.8217
 30
0.0
 11
21.671
 21
46.8217
 31
0.0
  0
LINE
  8
0
 62
     0
 10
21.671
 20
46.8217
 30
0.0
 11
21.671
 21
45.8212
 31
0.0
  0
LINE
  8
0
 62
     0
 10
21.671
 20
45.8212
 30
0.0
 11
35.6704
 21
45.8212
 31
0.0
  0
LINE
  8
0
 62
     0
 10
35.6704
 20
45.8212
 30
0.0
 11
35.6704
 21
46.8217
 31
0.0
  0
LINE
  8
0
 62
     0
 10
35.6704
 20
46.8217
 30
0.0
 11
36.4712
 21
46.8217
 31
0.0
  0
LINE
  8
0
 62
     0
 10
36.4712
 20
46.8217
 30
0.0
 11
36.4712
 21
49.9209
 31
0.0
  0
LINE
  8
0
 62
     0
 10
36.4712
 20
49.9209
 30
0.0
 11
35.6704
 21
49.9209
 31
0.0
  0
LINE
  8
0
 62
     0
 10
35.6704
 20
49.9209
 30
0.0
 11
35.6704
 21
55.7209
 31
0.0
  0
LINE
  8
0
 62
     0
 10
35.6704
 20
55.7209
 30
0.0
 11
36.4712
 21
55.7209
 31
0.0
  0
LINE
  8
0
 62
     0
 10
36.4712
 20
55.7209
 30
0.0
 11
36.4712
 21
58.8215
 31
0.0
  0
LINE
  8
0
 62
     0
 10
36.4712
 20
58.8215
 30
0.0
 11
35.6704
 21
58.8215
 31
0.0
  0
LINE
  8
0
 62
     0
 10
35.6704
 20
58.8215
 30
0.0
 11
35.6704
 21
59.8205
 31
0.0
  0
LINE
  8
0
 62
     0
 10
35.6704
 20
59.8205
 30
0.0
 11
21.671
 21
59.8205
 31
0.0
  0
LINE
  8
0
 62
     0
 10
40.7211
 20
59.8205
 30
0.0
 11
40.7211
 21
58.8215
 31
0.0
  0
LINE
  8
0
 62
     0
 10
40.7211
 20
58.8215
 30
0.0
 11
39.9203
 21
58.8215
 31
0.0
  0
LINE
  8
0
 62
     0
 10
39.9203
 20
58.8215
 30
0.0
 11
39.9203
 21
55.7209
 31
0.0
  0
LINE
  8
0
 62
     0
 10
39.9203
 20
55.7209
 30
0.0
 11
40.7211
 21
55.7209
 31
0.0
  0
LINE
  8
0
 62
     0
 10
40.7211
 20
55.7209
 30
0.0
 11
40.7211
 21
49.9209
 31
0.0
  0
LINE
  8
0
 62
     0
 10
40.7211
 20
49.9209
 30
0.0
 11
39.9203
 21
49.9209
 31
0.0
  0
LINE
  8
0
 62
     0
 10
39.9203
 20
49.9209
 30
0.0
 11
39.9203
 21
46.8217
 31
0.0
  0
LINE
  8
0
 62
     0
 10
39.9203
 20
46.8217
 30
0.0
 11
40.7211
 21
46.8217
 31
0.0
  0
LINE
  8
0
 62
     0
 10
40.7211
 20
46.8217
 30
0.0
 11
40.7211
 21
45.8212
 31
0.0
  0
LINE
  8
0
 62
     0
 10
40.7211
 20
45.8212
 30
0.0
 11
54.7204
 21
45.8212
 31
0.0
  0
LINE
  8
0
 62
     0
 10
54.7204
 20
45.8212
 30
0.0
 11
54.7204
 21
46.8217
 31
0.0
  0
LINE
  8
0
 62
     0
 10
54.7204
 20
46.8217
 30
0.0
 11
55.5212
 21
46.8217
 31
0.0
  0
LINE
  8
0
 62
     0
 10
55.5212
 20
46.8217
 30
0.0
 11
55.5212
 21
49.9209
 31
0.0
  0
LINE
  8
0
 62
     0
 10
55.5212
 20
49.9209
 30
0.0
 11
54.7204
 21
49.9209
 31
0.0
  0
LINE
  8
0
 62
     0
 10
54.7204
 20
49.9209
 30
0.0
 11
54.7204
 21
55.7209
 31
0.0
  0
LINE
  8
0
 62
     0
 10
54.7204
 20
55.7209
 30
0.0
 11
55.5212
 21
55.7209
 31
0.0
  0
LINE
  8
0
 62
     0
 10
55.5212
 20
55.7209
 30
0.0
 11
55.5212
 21
58.8215
 31
0.0
  0
LINE
  8
0
 62
     0
 10
55.5212
 20
58.8215
 30
0.0
 11
54.7204
 21
58.8215
 31
0.0
  0
LINE
  8
0
 62
     0
 10
54.7204
 20
58.8215
 30
0.0
 11
54.7204
 21
59.8205
 31
0.0
  0
LINE
  8
0
 62
     0
 10
54.7204
 20
59.8205
 30
0.0
 11
40.7211
 21
59.8205
 31
0.0
  0
LINE
  8
0
 62
     0
 10
59.7711
 20
59.8205
 30
0.0
 11
59.7711
 21
58.8215
 31
0.0
  0
LINE
  8
0
 62
     0
 10
59.7711
 20
58.8215
 30
0.0
 11
58.9703
 21
58.8215
 31
0.0
  0
LINE
  8
0
 62
     0
 10
58.9703
 20
58.8215
 30
0.0
 11
58.9703
 21
55.7209
 31
0.0
  0
LINE
  8
0
 62
     0
 10
58.9703
 20
55.7209
 30
0.0
 11
59.7711
 21
55.7209
 31
0.0
  0
LINE
  8
0
 62
     0
 10
59.7711
 20
55.7209
 30
0.0
 11
59.7711
 21
49.9209
 31
0.0
  0
LINE
  8
0
 62
     0
 10
59.7711
 20
49.9209
 30
0.0
 11
58.9703
 21
49.9209
 31
0.0
  0
LINE
  8
0
 62
     0
 10
58.9703
 20
49.9209
 30
0.0
 11
58.9703
 21
46.8217
 31
0.0
  0
LINE
  8
0
 62
     0
 10
58.9703
 20
46.8217
 30
0.0
 11
59.7711
 21
46.8217
 31
0.0
  0
LINE
  8
0
 62
     0
 10
59.7711
 20
46.8217
 30
0.0
 11
59.7711
 21
45.8212
 31
0.0
  0
LINE
  8
0
 62
     0
 10
59.7711
 20
45.8212
 30
0.0
 11
73.7704
 21
45.8212
 31
0.0
  0
LINE
  8
0
 62
     0
 10
73.7704
 20
45.8212
 30
0.0
 11
73.7704
 21
46.8217
 31
0.0
  0
LINE
  8
0
 62
     0
 10
73.7704
 20
46.8217
 30
0.0
 11
74.5712
 21
46.8217
 31
0.0
  0
LINE
  8
0
 62
     0
 10
74.5712
 20
46.8217
 30
0.0
 11
74.5712
 21
49.9209
 31
0.0
  0
LINE
  8
0
 62
     0
 10
74.5712
 20
49.9209
 30
0.0
 11
73.7704
 21
49.9209
 31
0.0
  0
LINE
  8
0
 62
     0
 10
73.7704
 20
49.9209
 30
0.0
 11
73.7704
 21
55.7209
 31
0.0
  0
LINE
  8
0
 62
     0
 10
73.7704
 20
55.7209
 30
0.0
 11
74.5712
 21
55.7209
 31
0.0
  0
LINE
  8
0
 62
     0
 10
74.5712
 20
55.7209
 30
0.0
 11
74.5712
 21
58.8215
 31
0.0
  0
LINE
  8
0
 62
     0
 10
74.5712
 20
58.8215
 30
0.0
 11
73.7704
 21
58.8215
 31
0.0
  0
LINE
  8
0
 62
     0
 10
73.7704
 20
58.8215
 30
0.0
 11
73.7704
 21
59.8205
 31
0.0
  0
LINE
  8
0
 62
     0
 10
73.7704
 20
59.8205
 30
0.0
 11
59.7711
 21
59.8205
 31
0.0
  0
LINE
  8
0
 62
     0
 10
83.5822
 20
59.8205
 30
0.0
 11
83.5822
 21
58.8215
 31
0.0
  0
LINE
  8
0
 62
     0
 10
83.5822
 20
58.8215
 30
0.0
 11
82.7828
 21
58.8215
 31
0.0
  0
LINE
  8
0
 62
     0
 10
82.7828
 20
58.8215
 30
0.0
 11
82.7828
 21
55.7209
 31
0.0
  0
LINE
  8
0
 62
     0
 10
82.7828
 20
55.7209
 30
0.0
 11
83.5822
 21
55.7209
 31
0.0
  0
LINE
  8
0
 62
     0
 10
83.5822
 20
55.7209
 30
0.0
 11
83.5822
 21
49.9209
 31
0.0
  0
LINE
  8
0
 62
     0
 10
83.5822
 20
49.9209
 30
0.0
 11
82.7828
 21
49.9209
 31
0.0
  0
LINE
  8
0
 62
     0
 10
82.7828
 20
49.9209
 30
0.0
 11
82.7828
 21
46.8217
 31
0.0
  0
LINE
  8
0
 62
     0
 10
82.7828
 20
46.8217
 30
0.0
 11
83.5822
 21
46.8217
 31
0.0
  0
LINE
  8
0
 62
     0
 10
83.5822
 20
46.8217
 30
0.0
 11
83.5822
 21
45.8212
 31
0.0
  0
LINE
  8
0
 62
     0
 10
83.5822
 20
45.8212
 30
0.0
 11
97.5829
 21
45.8212
 31
0.0
  0
LINE
  8
0
 62
     0
 10
97.5829
 20
45.8212
 30
0.0
 11
97.5829
 21
46.8217
 31
0.0
  0
LINE
  8
0
 62
     0
 10
97.5829
 20
46.8217
 30
0.0
 11
98.3823
 21
46.8217
 31
0.0
  0
LINE
  8
0
 62
     0
 10
98.3823
 20
46.8217
 30
0.0
 11
98.3823
 21
49.9209
 31
0.0
  0
LINE
  8
0
 62
     0
 10
98.3823
 20
49.9209
 30
0.0
 11
97.5829
 21
49.9209
 31
0.0
  0
LINE
  8
0
 62
     0
 10
97.5829
 20
49.9209
 30
0.0
 11
97.5829
 21
55.7209
 31
0.0
  0
LINE
  8
0
 62
     0
 10
97.5829
 20
55.7209
 30
0.0
 11
98.3823
 21
55.7209
 31
0.0
  0
LINE
  8
0
 62
     0
 10
98.3823
 20
55.7209
 30
0.0
 11
98.3823
 21
58.8215
 31
0.0
  0
LINE
  8
0
 62
     0
 10
98.3823
 20
58.8215
 30
0.0
 11
97.5829
 21
58.8215
 31
0.0
  0
LINE
  8
0
 62
     0
 10
97.5829
 20
58.8215
 30
0.0
 11
97.5829
 21
59.8205
 31
0.0
  0
LINE
  8
0
 62
     0
 10
97.5829
 20
59.8205
 30
0.0
 11
83.5822
 21
59.8205
 31
0.0
  0
LINE
  8
0
 62
     0
 10
114.538
 20
59.8205
 30
0.0
 11
114.538
 21
58.8215
 31
0.0
  0
LINE
  8
0
 62
     0
 10
114.538
 20
58.8215
 30
0.0
 11
113.739
 21
58.8215
 31
0.0
  0
LINE
  8
0
 62
     0
 10
113.739
 20
58.8215
 30
0.0
 11
113.739
 21
55.7209
 31
0.0
  0
LINE
  8
0
 62
     0
 10
113.739
 20
55.7209
 30
0.0
 11
114.538
 21
55.7209
 31
0.0
  0
LINE
  8
0
 62
     0
 10
114.538
 20
55.7209
 30
0.0
 11
114.538
 21
49.9209
 31
0.0
  0
LINE
  8
0
 62
     0
 10
114.538
 20
49.9209
 30
0.0
 11
113.739
 21
49.9209
 31
0.0
  0
LINE
  8
0
 62
     0
 10
113.739
 20
49.9209
 30
0.0
 11
113.739
 21
46.8217
 31
0.0
  0
LINE
  8
0
 62
     0
 10
113.739
 20
46.8217
 30
0.0
 11
114.538
 21
46.8217
 31
0.0
  0
LINE
  8
0
 62
     0
 10
114.538
 20
46.8217
 30
0.0
 11
114.538
 21
45.8212
 31
0.0
  0
LINE
  8
0
 62
     0
 10
114.538
 20
45.8212
 30
0.0
 11
128.538
 21
45.8212
 31
0.0
  0
LINE
  8
0
 62
     0
 10
128.538
 20
45.8212
 30
0.0
 11
128.538
 21
46.8217
 31
0.0
  0
LINE
  8
0
 62
     0
 10
128.538
 20
46.8217
 30
0.0
 11
129.339
 21
46.8217
 31
0.0
  0
LINE
  8
0
 62
     0
 10
129.339
 20
46.8217
 30
0.0
 11
129.339
 21
49.9209
 31
0.0
  0
LINE
  8
0
 62
     0
 10
129.339
 20
49.9209
 30
0.0
 11
128.538
 21
49.9209
 31
0.0
  0
LINE
  8
0
 62
     0
 10
128.538
 20
49.9209
 30
0.0
 11
128.538
 21
55.7209
 31
0.0
  0
LINE
  8
0
 62
     0
 10
128.538
 20
55.7209
 30
0.0
 11
129.339
 21
55.7209
 31
0.0
  0
LINE
  8
0
 62
     0
 10
129.339
 20
55.7209
 30
0.0
 11
129.339
 21
58.8215
 31
0.0
  0
LINE
  8
0
 62
     0
 10
129.339
 20
58.8215
 30
0.0
 11
128.538
 21
58.8215
 31
0.0
  0
LINE
  8
0
 62
     0
 10
128.538
 20
58.8215
 30
0.0
 11
128.538
 21
59.8205
 31
0.0
  0
LINE
  8
0
 62
     0
 10
128.538
 20
59.8205
 30
0.0
 11
114.538
 21
59.8205
 31
0.0
  0
LINE
  8
0
 62
     0
 10
140.732
 20
59.8205
 30
0.0
 11
140.732
 21
58.8215
 31
0.0
  0
LINE
  8
0
 62
     0
 10
140.732
 20
58.8215
 30
0.0
 11
139.933
 21
58.8215
 31
0.0
  0
LINE
  8
0
 62
     0
 10
139.933
 20
58.8215
 30
0.0
 11
139.933
 21
55.7209
 31
0.0
  0
LINE
  8
0
 62
     0
 10
139.933
 20
55.7209
 30
0.0
 11
140.732
 21
55.7209
 31
0.0
  0
LINE
  8
0
 62
     0
 10
140.732
 20
55.7209
 30
0.0
 11
140.732
 21
49.9209
 31
0.0
  0
LINE
  8
0
 62
     0
 10
140.732
 20
49.9209
 30
0.0
 11
139.933
 21
49.9209
 31
0.0
  0
LINE
  8
0
 62
     0
 10
139.933
 20
49.9209
 30
0.0
 11
139.933
 21
46.8217
 31
0.0
  0
LINE
  8
0
 62
     0
 10
139.933
 20
46.8217
 30
0.0
 11
140.732
 21
46.8217
 31
0.0
  0
LINE
  8
0
 62
     0
 10
140.732
 20
46.8217
 30
0.0
 11
140.732
 21
45.8212
 31
0.0
  0
LINE
  8
0
 62
     0
 10
140.732
 20
45.8212
 30
0.0
 11
154.733
 21
45.8212
 31
0.0
  0
LINE
  8
0
 62
     0
 10
154.733
 20
45.8212
 30
0.0
 11
154.733
 21
46.8217
 31
0.0
  0
LINE
  8
0
 62
     0
 10
154.733
 20
46.8217
 30
0.0
 11
155.532
 21
46.8217
 31
0.0
  0
LINE
  8
0
 62
     0
 10
155.532
 20
46.8217
 30
0.0
 11
155.532
 21
49.9209
 31
0.0
  0
LINE
  8
0
 62
     0
 10
155.532
 20
49.9209
 30
0.0
 11
154.733
 21
49.9209
 31
0.0
  0
LINE
  8
0
 62
     0
 10
154.733
 20
49.9209
 30
0.0
 11
154.733
 21
55.7209
 31
0.0
  0
LINE
  8
0
 62
     0
 10
154.733
 20
55.7209
 30
0.0
 11
155.532
 21
55.7209
 31
0.0
  0
LINE
  8
0
 62
     0
 10
155.532
 20
55.7209
 30
0.0
 11
155.532
 21
58.8215
 31
0.0
  0
LINE
  8
0
 62
     0
 10
155.532
 20
58.8215
 30
0.0
 11
154.733
 21
58.8215
 31
0.0
  0
LINE
  8
0
 62
     0
 10
154.733
 20
58.8215
 30
0.0
 11
154.733
 21
59.8205
 31
0.0
  0
LINE
  8
0
 62
     0
 10
154.733
 20
59.8205
 30
0.0
 11
140.732
 21
59.8205
 31
0.0
  0
LINE
  8
0
 62
     0
 10
159.782
 20
59.8205
 30
0.0
 11
159.782
 21
58.8215
 31
0.0
  0
LINE
  8
0
 62
     0
 10
159.782
 20
58.8215
 30
0.0
 11
158.983
 21
58.8215
 31
0.0
  0
LINE
  8
0
 62
     0
 10
158.983
 20
58.8215
 30
0.0
 11
158.983
 21
55.7209
 31
0.0
  0
LINE
  8
0
 62
     0
 10
158.983
 20
55.7209
 30
0.0
 11
159.782
 21
55.7209
 31
0.0
  0
LINE
  8
0
 62
     0
 10
159.782
 20
55.7209
 30
0.0
 11
159.782
 21
49.9209
 31
0.0
  0
LINE
  8
0
 62
     0
 10
159.782
 20
49.9209
 30
0.0
 11
158.983
 21
49.9209
 31
0.0
  0
LINE
  8
0
 62
     0
 10
158.983
 20
49.9209
 30
0.0
 11
158.983
 21
46.8217
 31
0.0
  0
LINE
  8
0
 62
     0
 10
158.983
 20
46.8217
 30
0.0
 11
159.782
 21
46.8217
 31
0.0
  0
LINE
  8
0
 62
     0
 10
159.782
 20
46.8217
 30
0.0
 11
159.782
 21
45.8212
 31
0.0
  0
LINE
  8
0
 62
     0
 10
159.782
 20
45.8212
 30
0.0
 11
173.783
 21
45.8212
 31
0.0
  0
LINE
  8
0
 62
     0
 10
173.783
 20
45.8212
 30
0.0
 11
173.783
 21
46.8217
 31
0.0
  0
LINE
  8
0
 62
     0
 10
173.783
 20
46.8217
 30
0.0
 11
174.582
 21
46.8217
 31
0.0
  0
LINE
  8
0
 62
     0
 10
174.582
 20
46.8217
 30
0.0
 11
174.582
 21
49.9209
 31
0.0
  0
LINE
  8
0
 62
     0
 10
174.582
 20
49.9209
 30
0.0
 11
173.783
 21
49.9209
 31
0.0
  0
LINE
  8
0
 62
     0
 10
173.783
 20
49.9209
 30
0.0
 11
173.783
 21
55.7209
 31
0.0
  0
LINE
  8
0
 62
     0
 10
173.783
 20
55.7209
 30
0.0
 11
174.582
 21
55.7209
 31
0.0
  0
LINE
  8
0
 62
     0
 10
174.582
 20
55.7209
 30
0.0
 11
174.582
 21
58.8215
 31
0.0
  0
LINE
  8
0
 62
     0
 10
174.582
 20
58.8215
 30
0.0
 11
173.783
 21
58.8215
 31
0.0
  0
LINE
  8
0
 62
     0
 10
173.783
 20
58.8215
 30
0.0
 11
173.783
 21
59.8205
 31
0.0
  0
LINE
  8
0
 62
     0
 10
173.783
 20
59.8205
 30
0.0
 11
159.782
 21
59.8205
 31
0.0
  0
LINE
  8
0
 62
     0
 10
178.832
 20
59.8205
 30
0.0
 11
178.832
 21
58.8215
 31
0.0
  0
LINE
  8
0
 62
     0
 10
178.832
 20
58.8215
 30
0.0
 11
178.033
 21
58.8215
 31
0.0
  0
LINE
  8
0
 62
     0
 10
178.033
 20
58.8215
 30
0.0
 11
178.033
 21
55.7209
 31
0.0
  0
LINE
  8
0
 62
     0
 10
178.033
 20
55.7209
 30
0.0
 11
178.832
 21
55.7209
 31
0.0
  0
LINE
  8
0
 62
     0
 10
178.832
 20
55.7209
 30
0.0
 11
178.832
 21
49.9209
 31
0.0
  0
LINE
  8
0
 62
     0
 10
178.832
 20
49.9209
 30
0.0
 11
178.033
 21
49.9209
 31
0.0
  0
LINE
  8
0
 62
     0
 10
178.033
 20
49.9209
 30
0.0
 11
178.033
 21
46.8217
 31
0.0
  0
LINE
  8
0
 62
     0
 10
178.033
 20
46.8217
 30
0.0
 11
178.832
 21
46.8217
 31
0.0
  0
LINE
  8
0
 62
     0
 10
178.832
 20
46.8217
 30
0.0
 11
178.832
 21
45.8212
 31
0.0
  0
LINE
  8
0
 62
     0
 10
178.832
 20
45.8212
 30
0.0
 11
192.833
 21
45.8212
 31
0.0
  0
LINE
  8
0
 62
     0
 10
192.833
 20
45.8212
 30
0.0
 11
192.833
 21
46.8217
 31
0.0
  0
LINE
  8
0
 62
     0
 10
192.833
 20
46.8217
 30
0.0
 11
193.632
 21
46.8217
 31
0.0
  0
LINE
  8
0
 62
     0
 10
193.632
 20
46.8217
 30
0.0
 11
193.632
 21
49.9209
 31
0.0
  0
LINE
  8
0
 62
     0
 10
193.632
 20
49.9209
 30
0.0
 11
192.833
 21
49.9209
 31
0.0
  0
LINE
  8
0
 62
     0
 10
192.833
 20
49.9209
 30
0.0
 11
192.833
 21
55.7209
 31
0.0
  0
LINE
  8
0
 62
     0
 10
192.833
 20
55.7209
 30
0.0
 11
193.632
 21
55.7209
 31
0.0
  0
LINE
  8
0
 62
     0
 10
193.632
 20
55.7209
 30
0.0
 11
193.632
 21
58.8215
 31
0.0
  0
LINE
  8
0
 62
     0
 10
193.632
 20
58.8215
 30
0.0
 11
192.833
 21
58.8215
 31
0.0
  0
LINE
  8
0
 62
     0
 10
192.833
 20
58.8215
 30
0.0
 11
192.833
 21
59.8205
 31
0.0
  0
LINE
  8
0
 62
     0
 10
192.833
 20
59.8205
 30
0.0
 11
178.832
 21
59.8205
 31
0.0
  0
LINE
  8
0
 62
     0
 10
197.882
 20
59.8205
 30
0.0
 11
197.882
 21
58.8215
 31
0.0
  0
LINE
  8
0
 62
     0
 10
197.882
 20
58.8215
 30
0.0
 11
197.083
 21
58.8215
 31
0.0
  0
LINE
  8
0
 62
     0
 10
197.083
 20
58.8215
 30
0.0
 11
197.083
 21
55.7209
 31
0.0
  0
LINE
  8
0
 62
     0
 10
197.083
 20
55.7209
 30
0.0
 11
197.882
 21
55.7209
 31
0.0
  0
LINE
  8
0
 62
     0
 10
197.882
 20
55.7209
 30
0.0
 11
197.882
 21
49.9209
 31
0.0
  0
LINE
  8
0
 62
     0
 10
197.882
 20
49.9209
 30
0.0
 11
197.083
 21
49.9209
 31
0.0
  0
LINE
  8
0
 62
     0
 10
197.083
 20
49.9209
 30
0.0
 11
197.083
 21
46.8217
 31
0.0
  0
LINE
  8
0
 62
     0
 10
197.083
 20
46.8217
 30
0.0
 11
197.882
 21
46.8217
 31
0.0
  0
LINE
  8
0
 62
     0
 10
197.882
 20
46.8217
 30
0.0
 11
197.882
 21
45.8212
 31
0.0
  0
LINE
  8
0
 62
     0
 10
197.882
 20
45.8212
 30
0.0
 11
211.883
 21
45.8212
 31
0.0
  0
LINE
  8
0
 62
     0
 10
211.883
 20
45.8212
 30
0.0
 11
211.883
 21
46.8217
 31
0.0
  0
LINE
  8
0
 62
     0
 10
211.883
 20
46.8217
 30
0.0
 11
212.682
 21
46.8217
 31
0.0
  0
LINE
  8
0
 62
     0
 10
212.682
 20
46.8217
 30
0.0
 11
212.682
 21
49.9209
 31
0.0
  0
LINE
  8
0
 62
     0
 10
212.682
 20
49.9209
 30
0.0
 11
211.883
 21
49.9209
 31
0.0
  0
LINE
  8
0
 62
     0
 10
211.883
 20
49.9209
 30
0.0
 11
211.883
 21
55.7209
 31
0.0
  0
LINE
  8
0
 62
     0
 10
211.883
 20
55.7209
 30
0.0
 11
212.682
 21
55.7209
 31
0.0
  0
LINE
  8
0
 62
     0
 10
212.682
 20
55.7209
 30
0.0
 11
212.682
 21
58.8215
 31
0.0
  0
LINE
  8
0
 62
     0
 10
212.682
 20
58.8215
 30
0.0
 11
211.883
 21
58.8215
 31
0.0
  0
LINE
  8
0
 62
     0
 10
211.883
 20
58.8215
 30
0.0
 11
211.883
 21
59.8205
 31
0.0
  0
LINE
  8
0
 62
     0
 10
211.883
 20
59.8205
 30
0.0
 11
197.882
 21
59.8205
 31
0.0
  0
LINE
  8
0
 62
     0
 10
216.932
 20
59.8205
 30
0.0
 11
216.932
 21
58.8215
 31
0.0
  0
LINE
  8
0
 62
     0
 10
216.932
 20
58.8215
 30
0.0
 11
216.133
 21
58.8215
 31
0.0
  0
LINE
  8
0
 62
     0
 10
216.133
 20
58.8215
 30
0.0
 11
216.133
 21
55.7209
 31
0.0
  0
LINE
  8
0
 62
     0
 10
216.133
 20
55.7209
 30
0.0
 11
216.932
 21
55.7209
 31
0.0
  0
LINE
  8
0
 62
     0
 10
216.932
 20
55.7209
 30
0.0
 11
216.932
 21
49.9209
 31
0.0
  0
LINE
  8
0
 62
     0
 10
216.932
 20
49.9209
 30
0.0
 11
216.133
 21
49.9209
 31
0.0
  0
LINE
  8
0
 62
     0
 10
216.133
 20
49.9209
 30
0.0
 11
216.133
 21
46.8217
 31
0.0
  0
LINE
  8
0
 62
     0
 10
216.133
 20
46.8217
 30
0.0
 11
216.932
 21
46.8217
 31
0.0
  0
LINE
  8
0
 62
     0
 10
216.932
 20
46.8217
 30
0.0
 11
216.932
 21
45.8212
 31
0.0
  0
LINE
  8
0
 62
     0
 10
216.932
 20
45.8212
 30
0.0
 11
230.933
 21
45.8212
 31
0.0
  0
LINE
  8
0
 62
     0
 10
230.933
 20
45.8212
 30
0.0
 11
230.933
 21
46.8217
 31
0.0
  0
LINE
  8
0
 62
     0
 10
230.933
 20
46.8217
 30
0.0
 11
231.732
 21
46.8217
 31
0.0
  0
LINE
  8
0
 62
     0
 10
231.732
 20
46.8217
 30
0.0
 11
231.732
 21
49.9209
 31
0.0
  0
LINE
  8
0
 62
     0
 10
231.732
 20
49.9209
 30
0.0
 11
230.933
 21
49.9209
 31
0.0
  0
LINE
  8
0
 62
     0
 10
230.933
 20
49.9209
 30
0.0
 11
230.933
 21
55.7209
 31
0.0
  0
LINE
  8
0
 62
     0
 10
230.933
 20
55.7209
 30
0.0
 11
231.732
 21
55.7209
 31
0.0
  0
LINE
  8
0
 62
     0
 10
231.732
 20
55.7209
 30
0.0
 11
231.732
 21
58.8215
 31
0.0
  0
LINE
  8
0
 62
     0
 10
231.732
 20
58.8215
 30
0.0
 11
230.933
 21
58.8215
 31
0.0
  0
LINE
  8
0
 62
     0
 10
230.933
 20
58.8215
 30
0.0
 11
230.933
 21
59.8205
 31
0.0
  0
LINE
  8
0
 62
     0
 10
230.933
 20
59.8205
 30
0.0
 11
216.932
 21
59.8205
 31
0.0
  0
LINE
  8
0
 62
     0
 10
235.982
 20
59.8205
 30
0.0
 11
235.982
 21
58.8215
 31
0.0
  0
LINE
  8
0
 62
     0
 10
235.982
 20
58.8215
 30
0.0
 11
235.183
 21
58.8215
 31
0.0
  0
LINE
  8
0
 62
     0
 10
235.183
 20
58.8215
 30
0.0
 11
235.183
 21
55.7209
 31
0.0
  0
LINE
  8
0
 62
     0
 10
235.183
 20
55.7209
 30
0.0
 11
235.982
 21
55.7209
 31
0.0
  0
LINE
  8
0
 62
     0
 10
235.982
 20
55.7209
 30
0.0
 11
235.982
 21
49.9209
 31
0.0
  0
LINE
  8
0
 62
     0
 10
235.982
 20
49.9209
 30
0.0
 11
235.183
 21
49.9209
 31
0.0
  0
LINE
  8
0
 62
     0
 10
235.183
 20
49.9209
 30
0.0
 11
235.183
 21
46.8217
 31
0.0
  0
LINE
  8
0
 62
     0
 10
235.183
 20
46.8217
 30
0.0
 11
235.982
 21
46.8217
 31
0.0
  0
LINE
  8
0
 62
     0
 10
235.982
 20
46.8217
 30
0.0
 11
235.982
 21
45.8212
 31
0.0
  0
LINE
  8
0
 62
     0
 10
235.982
 20
45.8212
 30
0.0
 11
249.983
 21
45.8212
 31
0.0
  0
LINE
  8
0
 62
     0
 10
249.983
 20
45.8212
 30
0.0
 11
249.983
 21
46.8217
 31
0.0
  0
LINE
  8
0
 62
     0
 10
249.983
 20
46.8217
 30
0.0
 11
250.782
 21
46.8217
 31
0.0
  0
LINE
  8
0
 62
     0
 10
250.782
 20
46.8217
 30
0.0
 11
250.782
 21
49.9209
 31
0.0
  0
LINE
  8
0
 62
     0
 10
250.782
 20
49.9209
 30
0.0
 11
249.983
 21
49.9209
 31
0.0
  0
LINE
  8
0
 62
     0
 10
249.983
 20
49.9209
 30
0.0
 11
249.983
 21
55.7209
 31
0.0
  0
LINE
  8
0
 62
     0
 10
249.983
 20
55.7209
 30
0.0
 11
250.782
 21
55.7209
 31
0.0
  0
LINE
  8
0
 62
     0
 10
250.782
 20
55.7209
 30
0.0
 11
250.782
 21
58.8215
 31
0.0
  0
LINE
  8
0
 62
     0
 10
250.782
 20
58.8215
 30
0.0
 11
249.983
 21
58.8215
 31
0.0
  0
LINE
  8
0
 62
     0
 10
249.983
 20
58.8215
 30
0.0
 11
249.983
 21
59.8205
 31
0.0
  0
LINE
  8
0
 62
     0
 10
249.983
 20
59.8205
 30
0.0
 11
235.982
 21
59.8205
 31
0.0
  0
LINE
  8
0
 62
     0
 10
255.032
 20
59.8205
 30
0.0
 11
255.032
 21
58.8215
 31
0.0
  0
LINE
  8
0
 62
     0
 10
255.032
 20
58.8215
 30
0.0
 11
254.233
 21
58.8215
 31
0.0
  0
LINE
  8
0
 62
     0
 10
254.233
 20
58.8215
 30
0.0
 11
254.233
 21
55.7209
 31
0.0
  0
LINE
  8
0
 62
     0
 10
254.233
 20
55.7209
 30
0.0
 11
255.032
 21
55.7209
 31
0.0
  0
LINE
  8
0
 62
     0
 10
255.032
 20
55.7209
 30
0.0
 11
255.032
 21
49.9209
 31
0.0
  0
LINE
  8
0
 62
     0
 10
255.032
 20
49.9209
 30
0.0
 11
254.233
 21
49.9209
 31
0.0
  0
LINE
  8
0
 62
     0
 10
254.233
 20
49.9209
 30
0.0
 11
254.233
 21
46.8217
 31
0.0
  0
LINE
  8
0
 62
     0
 10
254.233
 20
46.8217
 30
0.0
 11
255.032
 21
46.8217
 31
0.0
  0
LINE
  8
0
 62
     0
 10
255.032
 20
46.8217
 30
0.0
 11
255.032
 21
45.8212
 31
0.0
  0
LINE
  8
0
 62
     0
 10
255.032
 20
45.8212
 30
0.0
 11
269.033
 21
45.8212
 31
0.0
  0
LINE
  8
0
 62
     0
 10
269.033
 20
45.8212
 30
0.0
 11
269.033
 21
46.8217
 31
0.0
  0
LINE
  8
0
 62
     0
 10
269.033
 20
46.8217
 30
0.0
 11
269.832
 21
46.8217
 31
0.0
  0
LINE
  8
0
 62
     0
 10
269.832
 20
46.8217
 30
0.0
 11
269.832
 21
49.9209
 31
0.0
  0
LINE
  8
0
 62
     0
 10
269.832
 20
49.9209
 30
0.0
 11
269.033
 21
49.9209
 31
0.0
  0
LINE
  8
0
 62
     0
 10
269.033
 20
49.9209
 30
0.0
 11
269.033
 21
55.7209
 31
0.0
  0
LINE
  8
0
 62
     0
 10
269.033
 20
55.7209
 30
0.0
 11
269.832
 21
55.7209
 31
0.0
  0
LINE
  8
0
 62
     0
 10
269.832
 20
55.7209
 30
0.0
 11
269.832
 21
58.8215
 31
0.0
  0
LINE
  8
0
 62
     0
 10
269.832
 20
58.8215
 30
0.0
 11
269.033
 21
58.8215
 31
0.0
  0
LINE
  8
0
 62
     0
 10
269.033
 20
58.8215
 30
0.0
 11
269.033
 21
59.8205
 31
0.0
  0
LINE
  8
0
 62
     0
 10
269.033
 20
59.8205
 30
0.0
 11
255.032
 21
59.8205
 31
0.0
  0
LINE
  8
0
 62
     0
 10
274.082
 20
59.8205
 30
0.0
 11
274.082
 21
58.8215
 31
0.0
  0
LINE
  8
0
 62
     0
 10
274.082
 20
58.8215
 30
0.0
 11
273.283
 21
58.8215
 31
0.0
  0
LINE
  8
0
 62
     0
 10
273.283
 20
58.8215
 30
0.0
 11
273.283
 21
55.7209
 31
0.0
  0
LINE
  8
0
 62
     0
 10
273.283
 20
55.7209
 30
0.0
 11
274.082
 21
55.7209
 31
0.0
  0
LINE
  8
0
 62
     0
 10
274.082
 20
55.7209
 30
0.0
 11
274.082
 21
49.9209
 31
0.0
  0
LINE
  8
0
 62
     0
 10
274.082
 20
49.9209
 30
0.0
 11
273.283
 21
49.9209
 31
0.0
  0
LINE
  8
0
 62
     0
 10
273.283
 20
49.9209
 30
0.0
 11
273.283
 21
46.8217
 31
0.0
  0
LINE
  8
0
 62
     0
 10
273.283
 20
46.8217
 30
0.0
 11
274.082
 21
46.8217
 31
0.0
  0
LINE
  8
0
 62
     0
 10
274.082
 20
46.8217
 30
0.0
 11
274.082
 21
45.8212
 31
0.0
  0
LINE
  8
0
 62
     0
 10
274.082
 20
45.8212
 30
0.0
 11
288.083
 21
45.8212
 31
0.0
  0
LINE
  8
0
 62
     0
 10
288.083
 20
45.8212
 30
0.0
 11
288.083
 21
46.8217
 31
0.0
  0
LINE
  8
0
 62
     0
 10
288.083
 20
46.8217
 30
0.0
 11
288.882
 21
46.8217
 31
0.0
  0
LINE
  8
0
 62
     0
 10
288.882
 20
46.8217
 30
0.0
 11
288.882
 21
49.9209
 31
0.0
  0
LINE
  8
0
 62
     0
 10
288.882
 20
49.9209
 30
0.0
 11
288.083
 21
49.9209
 31
0.0
  0
LINE
  8
0
 62
     0
 10
288.083
 20
49.9209
 30
0.0
 11
288.083
 21
55.7209
 31
0.0
  0
LINE
  8
0
 62
     0
 10
288.083
 20
55.7209
 30
0.0
 11
288.882
 21
55.7209
 31
0.0
  0
LINE
  8
0
 62
     0
 10
288.882
 20
55.7209
 30
0.0
 11
288.882
 21
58.8215
 31
0.0
  0
LINE
  8
0
 62
     0
 10
288.882
 20
58.8215
 30
0.0
 11
288.083
 21
58.8215
 31
0.0
  0
LINE
  8
0
 62
     0
 10
288.083
 20
58.8215
 30
0.0
 11
288.083
 21
59.8205
 31
0.0
  0
LINE
  8
0
 62
     0
 10
288.083
 20
59.8205
 30
0.0
 11
274.082
 21
59.8205
 31
0.0
  0
LINE
  8
0
 62
     0
 10
293.132
 20
59.8205
 30
0.0
 11
293.132
 21
58.8215
 31
0.0
  0
LINE
  8
0
 62
     0
 10
293.132
 20
58.8215
 30
0.0
 11
292.333
 21
58.8215
 31
0.0
  0
LINE
  8
0
 62
     0
 10
292.333
 20
58.8215
 30
0.0
 11
292.333
 21
55.7209
 31
0.0
  0
LINE
  8
0
 62
     0
 10
292.333
 20
55.7209
 30
0.0
 11
293.132
 21
55.7209
 31
0.0
  0
LINE
  8
0
 62
     0
 10
293.132
 20
55.7209
 30
0.0
 11
293.132
 21
49.9209
 31
0.0
  0
LINE
  8
0
 62
     0
 10
293.132
 20
49.9209
 30
0.0
 11
292.333
 21
49.9209
 31
0.0
  0
LINE
  8
0
 62
     0
 10
292.333
 20
49.9209
 30
0.0
 11
292.333
 21
46.8217
 31
0.0
  0
LINE
  8
0
 62
     0
 10
292.333
 20
46.8217
 30
0.0
 11
293.132
 21
46.8217
 31
0.0
  0
LINE
  8
0
 62
     0
 10
293.132
 20
46.8217
 30
0.0
 11
293.132
 21
45.8212
 31
0.0
  0
LINE
  8
0
 62
     0
 10
293.132
 20
45.8212
 30
0.0
 11
307.133
 21
45.8212
 31
0.0
  0
LINE
  8
0
 62
     0
 10
307.133
 20
45.8212
 30
0.0
 11
307.133
 21
46.8217
 31
0.0
  0
LINE
  8
0
 62
     0
 10
307.133
 20
46.8217
 30
0.0
 11
307.932
 21
46.8217
 31
0.0
  0
LINE
  8
0
 62
     0
 10
307.932
 20
46.8217
 30
0.0
 11
307.932
 21
49.9209
 31
0.0
  0
LINE
  8
0
 62
     0
 10
307.932
 20
49.9209
 30
0.0
 11
307.133
 21
49.9209
 31
0.0
  0
LINE
  8
0
 62
     0
 10
307.133
 20
49.9209
 30
0.0
 11
307.133
 21
55.7209
 31
0.0
  0
LINE
  8
0
 62
     0
 10
307.133
 20
55.7209
 30
0.0
 11
307.932
 21
55.7209
 31
0.0
  0
LINE
  8
0
 62
     0
 10
307.932
 20
55.7209
 30
0.0
 11
307.932
 21
58.8215
 31
0.0
  0
LINE
  8
0
 62
     0
 10
307.932
 20
58.8215
 30
0.0
 11
307.133
 21
58.8215
 31
0.0
  0
LINE
  8
0
 62
     0
 10
307.133
 20
58.8215
 30
0.0
 11
307.133
 21
59.8205
 31
0.0
  0
LINE
  8
0
 62
     0
 10
307.133
 20
59.8205
 30
0.0
 11
293.132
 21
59.8205
 31
0.0
  0
LINE
  8
0
 62
     0
 10
312.182
 20
59.8205
 30
0.0
 11
312.182
 21
58.8215
 31
0.0
  0
LINE
  8
0
 62
     0
 10
312.182
 20
58.8215
 30
0.0
 11
311.383
 21
58.8215
 31
0.0
  0
LINE
  8
0
 62
     0
 10
311.383
 20
58.8215
 30
0.0
 11
311.383
 21
55.7209
 31
0.0
  0
LINE
  8
0
 62
     0
 10
311.383
 20
55.7209
 30
0.0
 11
312.182
 21
55.7209
 31
0.0
  0
LINE
  8
0
 62
     0
 10
312.182
 20
55.7209
 30
0.0
 11
312.182
 21
49.9209
 31
0.0
  0
LINE
  8
0
 62
     0
 10
312.182
 20
49.9209
 30
0.0
 11
311.383
 21
49.9209
 31
0.0
  0
LINE
  8
0
 62
     0
 10
311.383
 20
49.9209
 30
0.0
 11
311.383
 21
46.8217
 31
0.0
  0
LINE
  8
0
 62
     0
 10
311.383
 20
46.8217
 30
0.0
 11
312.182
 21
46.8217
 31
0.0
  0
LINE
  8
0
 62
     0
 10
312.182
 20
46.8217
 30
0.0
 11
312.182
 21
45.8212
 31
0.0
  0
LINE
  8
0
 62
     0
 10
312.182
 20
45.8212
 30
0.0
 11
326.183
 21
45.8212
 31
0.0
  0
LINE
  8
0
 62
     0
 10
326.183
 20
45.8212
 30
0.0
 11
326.183
 21
46.8217
 31
0.0
  0
LINE
  8
0
 62
     0
 10
326.183
 20
46.8217
 30
0.0
 11
326.982
 21
46.8217
 31
0.0
  0
LINE
  8
0
 62
     0
 10
326.982
 20
46.8217
 30
0.0
 11
326.982
 21
49.9209
 31
0.0
  0
LINE
  8
0
 62
     0
 10
326.982
 20
49.9209
 30
0.0
 11
326.183
 21
49.9209
 31
0.0
  0
LINE
  8
0
 62
     0
 10
326.183
 20
49.9209
 30
0.0
 11
326.183
 21
55.7209
 31
0.0
  0
LINE
  8
0
 62
     0
 10
326.183
 20
55.7209
 30
0.0
 11
326.982
 21
55.7209
 31
0.0
  0
LINE
  8
0
 62
     0
 10
326.982
 20
55.7209
 30
0.0
 11
326.982
 21
58.8215
 31
0.0
  0
LINE
  8
0
 62
     0
 10
326.982
 20
58.8215
 30
0.0
 11
326.183
 21
58.8215
 31
0.0
  0
LINE
  8
0
 62
     0
 10
326.183
 20
58.8215
 30
0.0
 11
326.183
 21
59.8205
 31
0.0
  0
LINE
  8
0
 62
     0
 10
326.183
 20
59.8205
 30
0.0
 11
312.182
 21
59.8205
 31
0.0
  0
LINE
  8
0
 62
     0
 10
331.232
 20
59.8205
 30
0.0
 11
331.232
 21
58.8215
 31
0.0
  0
LINE
  8
0
 62
     0
 10
331.232
 20
58.8215
 30
0.0
 11
330.433
 21
58.8215
 31
0.0
  0
LINE
  8
0
 62
     0
 10
330.433
 20
58.8215
 30
0.0
 11
330.433
 21
55.7209
 31
0.0
  0
LINE
  8
0
 62
     0
 10
330.433
 20
55.7209
 30
0.0
 11
331.232
 21
55.7209
 31
0.0
  0
LINE
  8
0
 62
     0
 10
331.232
 20
55.7209
 30
0.0
 11
331.232
 21
49.9209
 31
0.0
  0
LINE
  8
0
 62
     0
 10
331.232
 20
49.9209
 30
0.0
 11
330.433
 21
49.9209
 31
0.0
  0
LINE
  8
0
 62
     0
 10
330.433
 20
49.9209
 30
0.0
 11
330.433
 21
46.8217
 31
0.0
  0
LINE
  8
0
 62
     0
 10
330.433
 20
46.8217
 30
0.0
 11
331.232
 21
46.8217
 31
0.0
  0
LINE
  8
0
 62
     0
 10
331.232
 20
46.8217
 30
0.0
 11
331.232
 21
45.8212
 31
0.0
  0
LINE
  8
0
 62
     0
 10
331.232
 20
45.8212
 30
0.0
 11
345.233
 21
45.8212
 31
0.0
  0
LINE
  8
0
 62
     0
 10
345.233
 20
45.8212
 30
0.0
 11
345.233
 21
46.8217
 31
0.0
  0
LINE
  8
0
 62
     0
 10
345.233
 20
46.8217
 30
0.0
 11
346.032
 21
46.8217
 31
0.0
  0
LINE
  8
0
 62
     0
 10
346.032
 20
46.8217
 30
0.0
 11
346.032
 21
49.9209
 31
0.0
  0
LINE
  8
0
 62
     0
 10
346.032
 20
49.9209
 30
0.0
 11
345.233
 21
49.9209
 31
0.0
  0
LINE
  8
0
 62
     0
 10
345.233
 20
49.9209
 30
0.0
 11
345.233
 21
55.7209
 31
0.0
  0
LINE
  8
0
 62
     0
 10
345.233
 20
55.7209
 30
0.0
 11
346.032
 21
55.7209
 31
0.0
  0
LINE
  8
0
 62
     0
 10
346.032
 20
55.7209
 30
0.0
 11
346.032
 21
58.8215
 31
0.0
  0
LINE
  8
0
 62
     0
 10
346.032
 20
58.8215
 30
0.0
 11
345.233
 21
58.8215
 31
0.0
  0
LINE
  8
0
 62
     0
 10
345.233
 20
58.8215
 30
0.0
 11
345.233
 21
59.8205
 31
0.0
  0
LINE
  8
0
 62
     0
 10
345.233
 20
59.8205
 30
0.0
 11
331.232
 21
59.8205
 31
0.0
  0
LINE
  8
0
 62
     0
 10
9.11987
 20
78.4461
 30
0.0
 11
9.11987
 21
77.6206
 31
0.0
  0
LINE
  8
0
 62
     0
 10
9.11987
 20
77.6206
 30
0.0
 11
2.85116
 21
77.6206
 31
0.0
  0
LINE
  8
0
 62
     0
 10
2.85116
 20
77.6206
 30
0.0
 11
2.85116
 21
75.897
 31
0.0
  0
LINE
  8
0
 62
     0
 10
2.85116
 20
75.897
 30
0.0
 11
1.65089
 21
75.897
 31
0.0
  0
LINE
  8
0
 62
     0
 10
1.65089
 20
75.897
 30
0.0
 11
1.65089
 21
72.5964
 31
0.0
  0
LINE
  8
0
 62
     0
 10
1.65089
 20
72.5964
 30
0.0
 11
2.85116
 21
72.5964
 31
0.0
  0
LINE
  8
0
 62
     0
 10
2.85116
 20
72.5964
 30
0.0
 11
2.85116
 21
70.8713
 31
0.0
  0
LINE
  8
0
 62
     0
 10
2.85116
 20
70.8713
 30
0.0
 11
7.32014
 21
70.8713
 31
0.0
  0
LINE
  8
0
 62
     0
 10
7.32014
 20
70.8713
 30
0.0
 11
7.32014
 21
69.3455
 31
0.0
  0
LINE
  8
0
 62
     0
 10
7.32014
 20
69.3455
 30
0.0
 11
6.7207
 21
69.3455
 31
0.0
  0
LINE
  8
0
 62
     0
 10
6.7207
 20
69.3455
 30
0.0
 11
6.7207
 21
70.1463
 31
0.0
  0
LINE
  8
0
 62
     0
 10
6.7207
 20
70.1463
 30
0.0
 11
3.6201
 21
70.1463
 31
0.0
  0
LINE
  8
0
 62
     0
 10
3.6201
 20
70.1463
 30
0.0
 11
3.6201
 21
69.3455
 31
0.0
  0
LINE
  8
0
 62
     0
 10
3.6201
 20
69.3455
 30
0.0
 11
2.62103
 21
69.3455
 31
0.0
  0
LINE
  8
0
 62
     0
 10
2.62103
 20
69.3455
 30
0.0
 11
2.62103
 21
55.3462
 31
0.0
  0
LINE
  8
0
 62
     0
 10
2.62103
 20
55.3462
 30
0.0
 11
3.6201
 21
55.3462
 31
0.0
  0
LINE
  8
0
 62
     0
 10
3.6201
 20
55.3462
 30
0.0
 11
3.6201
 21
54.5454
 31
0.0
  0
LINE
  8
0
 62
     0
 10
3.6201
 20
54.5454
 30
0.0
 11
6.7207
 21
54.5454
 31
0.0
  0
LINE
  8
0
 62
     0
 10
6.7207
 20
54.5454
 30
0.0
 11
6.7207
 21
55.3462
 31
0.0
  0
LINE
  8
0
 62
     0
 10
6.7207
 20
55.3462
 30
0.0
 11
7.32014
 21
55.3462
 31
0.0
  0
LINE
  8
0
 62
     0
 10
7.32014
 20
55.3462
 30
0.0
 11
7.32014
 21
53.8208
 31
0.0
  0
LINE
  8
0
 62
     0
 10
7.32014
 20
53.8208
 30
0.0
 11
2.85116
 21
53.8208
 31
0.0
  0
LINE
  8
0
 62
     0
 10
2.85116
 20
53.8208
 30
0.0
 11
2.85116
 21
52.0968
 31
0.0
  0
LINE
  8
0
 62
     0
 10
2.85116
 20
52.0968
 30
0.0
 11
1.65089
 21
52.0968
 31
0.0
  0
LINE
  8
0
 62
     0
 10
1.65089
 20
52.0968
 30
0.0
 11
1.65089
 21
48.7962
 31
0.0
  0
LINE
  8
0
 62
     0
 10
1.65089
 20
48.7962
 30
0.0
 11
2.85116
 21
48.7962
 31
0.0
  0
LINE
  8
0
 62
     0
 10
2.85116
 20
48.7962
 30
0.0
 11
2.85116
 21
47.0711
 31
0.0
  0
LINE
  8
0
 62
     0
 10
2.85116
 20
47.0711
 30
0.0
 11
9.11987
 21
47.0711
 31
0.0
  0
LINE
  8
0
 62
     0
 10
9.11987
 20
47.0711
 30
0.0
 11
9.11987
 21
46.2456
 31
0.0
  0
LINE
  8
0
 62
     0
 10
9.11987
 20
46.2456
 30
0.0
 11
11.92
 21
46.2456
 31
0.0
  0
LINE
  8
0
 62
     0
 10
11.92
 20
46.2456
 30
0.0
 11
11.92
 21
47.0711
 31
0.0
  0
LINE
  8
0
 62
     0
 10
11.92
 20
47.0711
 30
0.0
 11
15.1501
 21
47.0711
 31
0.0
  0
LINE
  8
0
 62
     0
 10
15.1501
 20
47.0711
 30
0.0
 11
15.1501
 21
53.8208
 31
0.0
  0
LINE
  8
0
 62
     0
 10
15.1501
 20
53.8208
 30
0.0
 11
11.92
 21
53.8208
 31
0.0
  0
LINE
  8
0
 62
     0
 10
11.92
 20
53.8208
 30
0.0
 11
11.92
 21
55.3462
 31
0.0
  0
LINE
  8
0
 62
     0
 10
11.92
 20
55.3462
 30
0.0
 11
12.5209
 21
55.3462
 31
0.0
  0
LINE
  8
0
 62
     0
 10
12.5209
 20
55.3462
 30
0.0
 11
12.5209
 21
54.5454
 31
0.0
  0
LINE
  8
0
 62
     0
 10
12.5209
 20
54.5454
 30
0.0
 11
15.62
 21
54.5454
 31
0.0
  0
LINE
  8
0
 62
     0
 10
15.62
 20
54.5454
 30
0.0
 11
15.62
 21
55.3462
 31
0.0
  0
LINE
  8
0
 62
     0
 10
15.62
 20
55.3462
 30
0.0
 11
16.6205
 21
55.3462
 31
0.0
  0
LINE
  8
0
 62
     0
 10
16.6205
 20
55.3462
 30
0.0
 11
16.6205
 21
69.3455
 31
0.0
  0
LINE
  8
0
 62
     0
 10
16.6205
 20
69.3455
 30
0.0
 11
15.62
 21
69.3455
 31
0.0
  0
LINE
  8
0
 62
     0
 10
15.62
 20
69.3455
 30
0.0
 11
15.62
 21
70.1463
 31
0.0
  0
LINE
  8
0
 62
     0
 10
15.62
 20
70.1463
 30
0.0
 11
12.5209
 21
70.1463
 31
0.0
  0
LINE
  8
0
 62
     0
 10
12.5209
 20
70.1463
 30
0.0
 11
12.5209
 21
69.3455
 31
0.0
  0
LINE
  8
0
 62
     0
 10
12.5209
 20
69.3455
 30
0.0
 11
11.92
 21
69.3455
 31
0.0
  0
LINE
  8
0
 62
     0
 10
11.92
 20
69.3455
 30
0.0
 11
11.92
 21
70.8713
 31
0.0
  0
LINE
  8
0
 62
     0
 10
11.92
 20
70.8713
 30
0.0
 11
15.1501
 21
70.8713
 31
0.0
  0
LINE
  8
0
 62
     0
 10
15.1501
 20
70.8713
 30
0.0
 11
15.1501
 21
77.6206
 31
0.0
  0
LINE
  8
0
 62
     0
 10
15.1501
 20
77.6206
 30
0.0
 11
11.92
 21
77.6206
 31
0.0
  0
LINE
  8
0
 62
     0
 10
11.92
 20
77.6206
 30
0.0
 11
11.92
 21
78.4461
 31
0.0
  0
LINE
  8
0
 62
     0
 10
11.92
 20
78.4461
 30
0.0
 11
9.11987
 21
78.4461
 31
0.0
  0
LINE
  8
0
 62
     0
 10
21.671
 20
78.8705
 30
0.0
 11
21.671
 21
77.8715
 31
0.0
  0
LINE
  8
0
 62
     0
 10
21.671
 20
77.8715
 30
0.0
 11
20.8704
 21
77.8715
 31
0.0
  0
LINE
  8
0
 62
     0
 10
20.8704
 20
77.8715
 30
0.0
 11
20.8704
 21
74.7709
 31
0.0
  0
LINE
  8
0
 62
     0
 10
20.8704
 20
74.7709
 30
0.0
 11
21.671
 21
74.7709
 31
0.0
  0
LINE
  8
0
 62
     0
 10
21.671
 20
74.7709
 30
0.0
 11
21.671
 21
68.9709
 31
0.0
  0
LINE
  8
0
 62
     0
 10
21.671
 20
68.9709
 30
0.0
 11
20.8704
 21
68.9709
 31
0.0
  0
LINE
  8
0
 62
     0
 10
20.8704
 20
68.9709
 30
0.0
 11
20.8704
 21
65.8717
 31
0.0
  0
LINE
  8
0
 62
     0
 10
20.8704
 20
65.8717
 30
0.0
 11
21.671
 21
65.8717
 31
0.0
  0
LINE
  8
0
 62
     0
 10
21.671
 20
65.8717
 30
0.0
 11
21.671
 21
64.8712
 31
0.0
  0
LINE
  8
0
 62
     0
 10
21.671
 20
64.8712
 30
0.0
 11
35.6704
 21
64.8712
 31
0.0
  0
LINE
  8
0
 62
     0
 10
35.6704
 20
64.8712
 30
0.0
 11
35.6704
 21
65.8717
 31
0.0
  0
LINE
  8
0
 62
     0
 10
35.6704
 20
65.8717
 30
0.0
 11
36.4712
 21
65.8717
 31
0.0
  0
LINE
  8
0
 62
     0
 10
36.4712
 20
65.8717
 30
0.0
 11
36.4712
 21
68.9709
 31
0.0
  0
LINE
  8
0
 62
     0
 10
36.4712
 20
68.9709
 30
0.0
 11
35.6704
 21
68.9709
 31
0.0
  0
LINE
  8
0
 62
     0
 10
35.6704
 20
68.9709
 30
0.0
 11
35.6704
 21
74.7709
 31
0.0
  0
LINE
  8
0
 62
     0
 10
35.6704
 20
74.7709
 30
0.0
 11
36.4712
 21
74.7709
 31
0.0
  0
LINE
  8
0
 62
     0
 10
36.4712
 20
74.7709
 30
0.0
 11
36.4712
 21
77.8715
 31
0.0
  0
LINE
  8
0
 62
     0
 10
36.4712
 20
77.8715
 30
0.0
 11
35.6704
 21
77.8715
 31
0.0
  0
LINE
  8
0
 62
     0
 10
35.6704
 20
77.8715
 30
0.0
 11
35.6704
 21
78.8705
 31
0.0
  0
LINE
  8
0
 62
     0
 10
35.6704
 20
78.8705
 30
0.0
 11
21.671
 21
78.8705
 31
0.0
  0
LINE
  8
0
 62
     0
 10
40.7211
 20
78.8705
 30
0.0
 11
40.7211
 21
77.8715
 31
0.0
  0
LINE
  8
0
 62
     0
 10
40.7211
 20
77.8715
 30
0.0
 11
39.9203
 21
77.8715
 31
0.0
  0
LINE
  8
0
 62
     0
 10
39.9203
 20
77.8715
 30
0.0
 11
39.9203
 21
74.7709
 31
0.0
  0
LINE
  8
0
 62
     0
 10
39.9203
 20
74.7709
 30
0.0
 11
40.7211
 21
74.7709
 31
0.0
  0
LINE
  8
0
 62
     0
 10
40.7211
 20
74.7709
 30
0.0
 11
40.7211
 21
68.9709
 31
0.0
  0
LINE
  8
0
 62
     0
 10
40.7211
 20
68.9709
 30
0.0
 11
39.9203
 21
68.9709
 31
0.0
  0
LINE
  8
0
 62
     0
 10
39.9203
 20
68.9709
 30
0.0
 11
39.9203
 21
65.8717
 31
0.0
  0
LINE
  8
0
 62
     0
 10
39.9203
 20
65.8717
 30
0.0
 11
40.7211
 21
65.8717
 31
0.0
  0
LINE
  8
0
 62
     0
 10
40.7211
 20
65.8717
 30
0.0
 11
40.7211
 21
64.8712
 31
0.0
  0
LINE
  8
0
 62
     0
 10
40.7211
 20
64.8712
 30
0.0
 11
54.7204
 21
64.8712
 31
0.0
  0
LINE
  8
0
 62
     0
 10
54.7204
 20
64.8712
 30
0.0
 11
54.7204
 21
65.8717
 31
0.0
  0
LINE
  8
0
 62
     0
 10
54.7204
 20
65.8717
 30
0.0
 11
55.5212
 21
65.8717
 31
0.0
  0
LINE
  8
0
 62
     0
 10
55.5212
 20
65.8717
 30
0.0
 11
55.5212
 21
68.9709
 31
0.0
  0
LINE
  8
0
 62
     0
 10
55.5212
 20
68.9709
 30
0.0
 11
54.7204
 21
68.9709
 31
0.0
  0
LINE
  8
0
 62
     0
 10
54.7204
 20
68.9709
 30
0.0
 11
54.7204
 21
74.7709
 31
0.0
  0
LINE
  8
0
 62
     0
 10
54.7204
 20
74.7709
 30
0.0
 11
55.5212
 21
74.7709
 31
0.0
  0
LINE
  8
0
 62
     0
 10
55.5212
 20
74.7709
 30
0.0
 11
55.5212
 21
77.8715
 31
0.0
  0
LINE
  8
0
 62
     0
 10
55.5212
 20
77.8715
 30
0.0
 11
54.7204
 21
77.8715
 31
0.0
  0
LINE
  8
0
 62
     0
 10
54.7204
 20
77.8715
 30
0.0
 11
54.7204
 21
78.8705
 31
0.0
  0
LINE
  8
0
 62
     0
 10
54.7204
 20
78.8705
 30
0.0
 11
40.7211
 21
78.8705
 31
0.0
  0
LINE
  8
0
 62
     0
 10
59.7711
 20
78.8705
 30
0.0
 11
59.7711
 21
77.8715
 31
0.0
  0
LINE
  8
0
 62
     0
 10
59.7711
 20
77.8715
 30
0.0
 11
58.9703
 21
77.8715
 31
0.0
  0
LINE
  8
0
 62
     0
 10
58.9703
 20
77.8715
 30
0.0
 11
58.9703
 21
74.7709
 31
0.0
  0
LINE
  8
0
 62
     0
 10
58.9703
 20
74.7709
 30
0.0
 11
59.7711
 21
74.7709
 31
0.0
  0
LINE
  8
0
 62
     0
 10
59.7711
 20
74.7709
 30
0.0
 11
59.7711
 21
68.9709
 31
0.0
  0
LINE
  8
0
 62
     0
 10
59.7711
 20
68.9709
 30
0.0
 11
58.9703
 21
68.9709
 31
0.0
  0
LINE
  8
0
 62
     0
 10
58.9703
 20
68.9709
 30
0.0
 11
58.9703
 21
65.8717
 31
0.0
  0
LINE
  8
0
 62
     0
 10
58.9703
 20
65.8717
 30
0.0
 11
59.7711
 21
65.8717
 31
0.0
  0
LINE
  8
0
 62
     0
 10
59.7711
 20
65.8717
 30
0.0
 11
59.7711
 21
64.8712
 31
0.0
  0
LINE
  8
0
 62
     0
 10
59.7711
 20
64.8712
 30
0.0
 11
73.7704
 21
64.8712
 31
0.0
  0
LINE
  8
0
 62
     0
 10
73.7704
 20
64.8712
 30
0.0
 11
73.7704
 21
65.8717
 31
0.0
  0
LINE
  8
0
 62
     0
 10
73.7704
 20
65.8717
 30
0.0
 11
74.5712
 21
65.8717
 31
0.0
  0
LINE
  8
0
 62
     0
 10
74.5712
 20
65.8717
 30
0.0
 11
74.5712
 21
68.9709
 31
0.0
  0
LINE
  8
0
 62
     0
 10
74.5712
 20
68.9709
 30
0.0
 11
73.7704
 21
68.9709
 31
0.0
  0
LINE
  8
0
 62
     0
 10
73.7704
 20
68.9709
 30
0.0
 11
73.7704
 21
74.7709
 31
0.0
  0
LINE
  8
0
 62
     0
 10
73.7704
 20
74.7709
 30
0.0
 11
74.5712
 21
74.7709
 31
0.0
  0
LINE
  8
0
 62
     0
 10
74.5712
 20
74.7709
 30
0.0
 11
74.5712
 21
77.8715
 31
0.0
  0
LINE
  8
0
 62
     0
 10
74.5712
 20
77.8715
 30
0.0
 11
73.7704
 21
77.8715
 31
0.0
  0
LINE
  8
0
 62
     0
 10
73.7704
 20
77.8715
 30
0.0
 11
73.7704
 21
78.8705
 31
0.0
  0
LINE
  8
0
 62
     0
 10
73.7704
 20
78.8705
 30
0.0
 11
59.7711
 21
78.8705
 31
0.0
  0
LINE
  8
0
 62
     0
 10
83.5822
 20
78.8705
 30
0.0
 11
83.5822
 21
77.8715
 31
0.0
  0
LINE
  8
0
 62
     0
 10
83.5822
 20
77.8715
 30
0.0
 11
82.7828
 21
77.8715
 31
0.0
  0
LINE
  8
0
 62
     0
 10
82.7828
 20
77.8715
 30
0.0
 11
82.7828
 21
74.7709
 31
0.0
  0
LINE
  8
0
 62
     0
 10
82.7828
 20
74.7709
 30
0.0
 11
83.5822
 21
74.7709
 31
0.0
  0
LINE
  8
0
 62
     0
 10
83.5822
 20
74.7709
 30
0.0
 11
83.5822
 21
68.9709
 31
0.0
  0
LINE
  8
0
 62
     0
 10
83.5822
 20
68.9709
 30
0.0
 11
82.7828
 21
68.9709
 31
0.0
  0
LINE
  8
0
 62
     0
 10
82.7828
 20
68.9709
 30
0.0
 11
82.7828
 21
65.8717
 31
0.0
  0
LINE
  8
0
 62
     0
 10
82.7828
 20
65.8717
 30
0.0
 11
83.5822
 21
65.8717
 31
0.0
  0
LINE
  8
0
 62
     0
 10
83.5822
 20
65.8717
 30
0.0
 11
83.5822
 21
64.8712
 31
0.0
  0
LINE
  8
0
 62
     0
 10
83.5822
 20
64.8712
 30
0.0
 11
97.5829
 21
64.8712
 31
0.0
  0
LINE
  8
0
 62
     0
 10
97.5829
 20
64.8712
 30
0.0
 11
97.5829
 21
65.8717
 31
0.0
  0
LINE
  8
0
 62
     0
 10
97.5829
 20
65.8717
 30
0.0
 11
98.3823
 21
65.8717
 31
0.0
  0
LINE
  8
0
 62
     0
 10
98.3823
 20
65.8717
 30
0.0
 11
98.3823
 21
68.9709
 31
0.0
  0
LINE
  8
0
 62
     0
 10
98.3823
 20
68.9709
 30
0.0
 11
97.5829
 21
68.9709
 31
0.0
  0
LINE
  8
0
 62
     0
 10
97.5829
 20
68.9709
 30
0.0
 11
97.5829
 21
74.7709
 31
0.0
  0
LINE
  8
0
 62
     0
 10
97.5829
 20
74.7709
 30
0.0
 11
98.3823
 21
74.7709
 31
0.0
  0
LINE
  8
0
 62
     0
 10
98.3823
 20
74.7709
 30
0.0
 11
98.3823
 21
77.8715
 31
0.0
  0
LINE
  8
0
 62
     0
 10
98.3823
 20
77.8715
 30
0.0
 11
97.5829
 21
77.8715
 31
0.0
  0
LINE
  8
0
 62
     0
 10
97.5829
 20
77.8715
 30
0.0
 11
97.5829
 21
78.8705
 31
0.0
  0
LINE
  8
0
 62
     0
 10
97.5829
 20
78.8705
 30
0.0
 11
83.5822
 21
78.8705
 31
0.0
  0
LINE
  8
0
 62
     0
 10
112.157
 20
78.8705
 30
0.0
 11
112.157
 21
77.8715
 31
0.0
  0
LINE
  8
0
 62
     0
 10
112.157
 20
77.8715
 30
0.0
 11
111.358
 21
77.8715
 31
0.0
  0
LINE
  8
0
 62
     0
 10
111.358
 20
77.8715
 30
0.0
 11
111.358
 21
74.7709
 31
0.0
  0
LINE
  8
0
 62
     0
 10
111.358
 20
74.7709
 30
0.0
 11
112.157
 21
74.7709
 31
0.0
  0
LINE
  8
0
 62
     0
 10
112.157
 20
74.7709
 30
0.0
 11
112.157
 21
68.9709
 31
0.0
  0
LINE
  8
0
 62
     0
 10
112.157
 20
68.9709
 30
0.0
 11
111.358
 21
68.9709
 31
0.0
  0
LINE
  8
0
 62
     0
 10
111.358
 20
68.9709
 30
0.0
 11
111.358
 21
65.8717
 31
0.0
  0
LINE
  8
0
 62
     0
 10
111.358
 20
65.8717
 30
0.0
 11
112.157
 21
65.8717
 31
0.0
  0
LINE
  8
0
 62
     0
 10
112.157
 20
65.8717
 30
0.0
 11
112.157
 21
64.8712
 31
0.0
  0
LINE
  8
0
 62
     0
 10
112.157
 20
64.8712
 30
0.0
 11
126.158
 21
64.8712
 31
0.0
  0
LINE
  8
0
 62
     0
 10
126.158
 20
64.8712
 30
0.0
 11
126.158
 21
65.8717
 31
0.0
  0
LINE
  8
0
 62
     0
 10
126.158
 20
65.8717
 30
0.0
 11
126.957
 21
65.8717
 31
0.0
  0
LINE
  8
0
 62
     0
 10
126.957
 20
65.8717
 30
0.0
 11
126.957
 21
68.9709
 31
0.0
  0
LINE
  8
0
 62
     0
 10
126.957
 20
68.9709
 30
0.0
 11
126.158
 21
68.9709
 31
0.0
  0
LINE
  8
0
 62
     0
 10
126.158
 20
68.9709
 30
0.0
 11
126.158
 21
74.7709
 31
0.0
  0
LINE
  8
0
 62
     0
 10
126.158
 20
74.7709
 30
0.0
 11
126.957
 21
74.7709
 31
0.0
  0
LINE
  8
0
 62
     0
 10
126.957
 20
74.7709
 30
0.0
 11
126.957
 21
77.8715
 31
0.0
  0
LINE
  8
0
 62
     0
 10
126.957
 20
77.8715
 30
0.0
 11
126.158
 21
77.8715
 31
0.0
  0
LINE
  8
0
 62
     0
 10
126.158
 20
77.8715
 30
0.0
 11
126.158
 21
78.8705
 31
0.0
  0
LINE
  8
0
 62
     0
 10
126.158
 20
78.8705
 30
0.0
 11
112.157
 21
78.8705
 31
0.0
  0
LINE
  8
0
 62
     0
 10
135.971
 20
78.8705
 30
0.0
 11
135.971
 21
77.8715
 31
0.0
  0
LINE
  8
0
 62
     0
 10
135.971
 20
77.8715
 30
0.0
 11
135.17
 21
77.8715
 31
0.0
  0
LINE
  8
0
 62
     0
 10
135.17
 20
77.8715
 30
0.0
 11
135.17
 21
74.7709
 31
0.0
  0
LINE
  8
0
 62
     0
 10
135.17
 20
74.7709
 30
0.0
 11
135.971
 21
74.7709
 31
0.0
  0
LINE
  8
0
 62
     0
 10
135.971
 20
74.7709
 30
0.0
 11
135.971
 21
68.9709
 31
0.0
  0
LINE
  8
0
 62
     0
 10
135.971
 20
68.9709
 30
0.0
 11
135.17
 21
68.9709
 31
0.0
  0
LINE
  8
0
 62
     0
 10
135.17
 20
68.9709
 30
0.0
 11
135.17
 21
65.8717
 31
0.0
  0
LINE
  8
0
 62
     0
 10
135.17
 20
65.8717
 30
0.0
 11
135.971
 21
65.8717
 31
0.0
  0
LINE
  8
0
 62
     0
 10
135.971
 20
65.8717
 30
0.0
 11
135.971
 21
64.8712
 31
0.0
  0
LINE
  8
0
 62
     0
 10
135.971
 20
64.8712
 30
0.0
 11
149.97
 21
64.8712
 31
0.0
  0
LINE
  8
0
 62
     0
 10
149.97
 20
64.8712
 30
0.0
 11
149.97
 21
65.8717
 31
0.0
  0
LINE
  8
0
 62
     0
 10
149.97
 20
65.8717
 30
0.0
 11
150.771
 21
65.8717
 31
0.0
  0
LINE
  8
0
 62
     0
 10
150.771
 20
65.8717
 30
0.0
 11
150.771
 21
68.9709
 31
0.0
  0
LINE
  8
0
 62
     0
 10
150.771
 20
68.9709
 30
0.0
 11
149.97
 21
68.9709
 31
0.0
  0
LINE
  8
0
 62
     0
 10
149.97
 20
68.9709
 30
0.0
 11
149.97
 21
74.7709
 31
0.0
  0
LINE
  8
0
 62
     0
 10
149.97
 20
74.7709
 30
0.0
 11
150.771
 21
74.7709
 31
0.0
  0
LINE
  8
0
 62
     0
 10
150.771
 20
74.7709
 30
0.0
 11
150.771
 21
77.8715
 31
0.0
  0
LINE
  8
0
 62
     0
 10
150.771
 20
77.8715
 30
0.0
 11
149.97
 21
77.8715
 31
0.0
  0
LINE
  8
0
 62
     0
 10
149.97
 20
77.8715
 30
0.0
 11
149.97
 21
78.8705
 31
0.0
  0
LINE
  8
0
 62
     0
 10
149.97
 20
78.8705
 30
0.0
 11
135.971
 21
78.8705
 31
0.0
  0
LINE
  8
0
 62
     0
 10
155.021
 20
78.8705
 30
0.0
 11
155.021
 21
77.8715
 31
0.0
  0
LINE
  8
0
 62
     0
 10
155.021
 20
77.8715
 30
0.0
 11
154.22
 21
77.8715
 31
0.0
  0
LINE
  8
0
 62
     0
 10
154.22
 20
77.8715
 30
0.0
 11
154.22
 21
74.7709
 31
0.0
  0
LINE
  8
0
 62
     0
 10
154.22
 20
74.7709
 30
0.0
 11
155.021
 21
74.7709
 31
0.0
  0
LINE
  8
0
 62
     0
 10
155.021
 20
74.7709
 30
0.0
 11
155.021
 21
68.9709
 31
0.0
  0
LINE
  8
0
 62
     0
 10
155.021
 20
68.9709
 30
0.0
 11
154.22
 21
68.9709
 31
0.0
  0
LINE
  8
0
 62
     0
 10
154.22
 20
68.9709
 30
0.0
 11
154.22
 21
65.8717
 31
0.0
  0
LINE
  8
0
 62
     0
 10
154.22
 20
65.8717
 30
0.0
 11
155.021
 21
65.8717
 31
0.0
  0
LINE
  8
0
 62
     0
 10
155.021
 20
65.8717
 30
0.0
 11
155.021
 21
64.8712
 31
0.0
  0
LINE
  8
0
 62
     0
 10
155.021
 20
64.8712
 30
0.0
 11
169.02
 21
64.8712
 31
0.0
  0
LINE
  8
0
 62
     0
 10
169.02
 20
64.8712
 30
0.0
 11
169.02
 21
65.8717
 31
0.0
  0
LINE
  8
0
 62
     0
 10
169.02
 20
65.8717
 30
0.0
 11
169.821
 21
65.8717
 31
0.0
  0
LINE
  8
0
 62
     0
 10
169.821
 20
65.8717
 30
0.0
 11
169.821
 21
68.9709
 31
0.0
  0
LINE
  8
0
 62
     0
 10
169.821
 20
68.9709
 30
0.0
 11
169.02
 21
68.9709
 31
0.0
  0
LINE
  8
0
 62
     0
 10
169.02
 20
68.9709
 30
0.0
 11
169.02
 21
74.7709
 31
0.0
  0
LINE
  8
0
 62
     0
 10
169.02
 20
74.7709
 30
0.0
 11
169.821
 21
74.7709
 31
0.0
  0
LINE
  8
0
 62
     0
 10
169.821
 20
74.7709
 30
0.0
 11
169.821
 21
77.8715
 31
0.0
  0
LINE
  8
0
 62
     0
 10
169.821
 20
77.8715
 30
0.0
 11
169.02
 21
77.8715
 31
0.0
  0
LINE
  8
0
 62
     0
 10
169.02
 20
77.8715
 30
0.0
 11
169.02
 21
78.8705
 31
0.0
  0
LINE
  8
0
 62
     0
 10
169.02
 20
78.8705
 30
0.0
 11
155.021
 21
78.8705
 31
0.0
  0
LINE
  8
0
 62
     0
 10
174.071
 20
78.8705
 30
0.0
 11
174.071
 21
77.8715
 31
0.0
  0
LINE
  8
0
 62
     0
 10
174.071
 20
77.8715
 30
0.0
 11
173.27
 21
77.8715
 31
0.0
  0
LINE
  8
0
 62
     0
 10
173.27
 20
77.8715
 30
0.0
 11
173.27
 21
74.7709
 31
0.0
  0
LINE
  8
0
 62
     0
 10
173.27
 20
74.7709
 30
0.0
 11
174.071
 21
74.7709
 31
0.0
  0
LINE
  8
0
 62
     0
 10
174.071
 20
74.7709
 30
0.0
 11
174.071
 21
68.9709
 31
0.0
  0
LINE
  8
0
 62
     0
 10
174.071
 20
68.9709
 30
0.0
 11
173.27
 21
68.9709
 31
0.0
  0
LINE
  8
0
 62
     0
 10
173.27
 20
68.9709
 30
0.0
 11
173.27
 21
65.8717
 31
0.0
  0
LINE
  8
0
 62
     0
 10
173.27
 20
65.8717
 30
0.0
 11
174.071
 21
65.8717
 31
0.0
  0
LINE
  8
0
 62
     0
 10
174.071
 20
65.8717
 30
0.0
 11
174.071
 21
64.8712
 31
0.0
  0
LINE
  8
0
 62
     0
 10
174.071
 20
64.8712
 30
0.0
 11
188.07
 21
64.8712
 31
0.0
  0
LINE
  8
0
 62
     0
 10
188.07
 20
64.8712
 30
0.0
 11
188.07
 21
65.8717
 31
0.0
  0
LINE
  8
0
 62
     0
 10
188.07
 20
65.8717
 30
0.0
 11
188.871
 21
65.8717
 31
0.0
  0
LINE
  8
0
 62
     0
 10
188.871
 20
65.8717
 30
0.0
 11
188.871
 21
68.9709
 31
0.0
  0
LINE
  8
0
 62
     0
 10
188.871
 20
68.9709
 30
0.0
 11
188.07
 21
68.9709
 31
0.0
  0
LINE
  8
0
 62
     0
 10
188.07
 20
68.9709
 30
0.0
 11
188.07
 21
74.7709
 31
0.0
  0
LINE
  8
0
 62
     0
 10
188.07
 20
74.7709
 30
0.0
 11
188.871
 21
74.7709
 31
0.0
  0
LINE
  8
0
 62
     0
 10
188.871
 20
74.7709
 30
0.0
 11
188.871
 21
77.8715
 31
0.0
  0
LINE
  8
0
 62
     0
 10
188.871
 20
77.8715
 30
0.0
 11
188.07
 21
77.8715
 31
0.0
  0
LINE
  8
0
 62
     0
 10
188.07
 20
77.8715
 30
0.0
 11
188.07
 21
78.8705
 31
0.0
  0
LINE
  8
0
 62
     0
 10
188.07
 20
78.8705
 30
0.0
 11
174.071
 21
78.8705
 31
0.0
  0
LINE
  8
0
 62
     0
 10
193.121
 20
78.8705
 30
0.0
 11
193.121
 21
77.8715
 31
0.0
  0
LINE
  8
0
 62
     0
 10
193.121
 20
77.8715
 30
0.0
 11
192.32
 21
77.8715
 31
0.0
  0
LINE
  8
0
 62
     0
 10
192.32
 20
77.8715
 30
0.0
 11
192.32
 21
74.7709
 31
0.0
  0
LINE
  8
0
 62
     0
 10
192.32
 20
74.7709
 30
0.0
 11
193.121
 21
74.7709
 31
0.0
  0
LINE
  8
0
 62
     0
 10
193.121
 20
74.7709
 30
0.0
 11
193.121
 21
68.9709
 31
0.0
  0
LINE
  8
0
 62
     0
 10
193.121
 20
68.9709
 30
0.0
 11
192.32
 21
68.9709
 31
0.0
  0
LINE
  8
0
 62
     0
 10
192.32
 20
68.9709
 30
0.0
 11
192.32
 21
65.8717
 31
0.0
  0
LINE
  8
0
 62
     0
 10
192.32
 20
65.8717
 30
0.0
 11
193.121
 21
65.8717
 31
0.0
  0
LINE
  8
0
 62
     0
 10
193.121
 20
65.8717
 30
0.0
 11
193.121
 21
64.8712
 31
0.0
  0
LINE
  8
0
 62
     0
 10
193.121
 20
64.8712
 30
0.0
 11
207.12
 21
64.8712
 31
0.0
  0
LINE
  8
0
 62
     0
 10
207.12
 20
64.8712
 30
0.0
 11
207.12
 21
65.8717
 31
0.0
  0
LINE
  8
0
 62
     0
 10
207.12
 20
65.8717
 30
0.0
 11
207.921
 21
65.8717
 31
0.0
  0
LINE
  8
0
 62
     0
 10
207.921
 20
65.8717
 30
0.0
 11
207.921
 21
68.9709
 31
0.0
  0
LINE
  8
0
 62
     0
 10
207.921
 20
68.9709
 30
0.0
 11
207.12
 21
68.9709
 31
0.0
  0
LINE
  8
0
 62
     0
 10
207.12
 20
68.9709
 30
0.0
 11
207.12
 21
74.7709
 31
0.0
  0
LINE
  8
0
 62
     0
 10
207.12
 20
74.7709
 30
0.0
 11
207.921
 21
74.7709
 31
0.0
  0
LINE
  8
0
 62
     0
 10
207.921
 20
74.7709
 30
0.0
 11
207.921
 21
77.8715
 31
0.0
  0
LINE
  8
0
 62
     0
 10
207.921
 20
77.8715
 30
0.0
 11
207.12
 21
77.8715
 31
0.0
  0
LINE
  8
0
 62
     0
 10
207.12
 20
77.8715
 30
0.0
 11
207.12
 21
78.8705
 31
0.0
  0
LINE
  8
0
 62
     0
 10
207.12
 20
78.8705
 30
0.0
 11
193.121
 21
78.8705
 31
0.0
  0
LINE
  8
0
 62
     0
 10
212.171
 20
78.8705
 30
0.0
 11
212.171
 21
77.8715
 31
0.0
  0
LINE
  8
0
 62
     0
 10
212.171
 20
77.8715
 30
0.0
 11
211.37
 21
77.8715
 31
0.0
  0
LINE
  8
0
 62
     0
 10
211.37
 20
77.8715
 30
0.0
 11
211.37
 21
74.7709
 31
0.0
  0
LINE
  8
0
 62
     0
 10
211.37
 20
74.7709
 30
0.0
 11
212.171
 21
74.7709
 31
0.0
  0
LINE
  8
0
 62
     0
 10
212.171
 20
74.7709
 30
0.0
 11
212.171
 21
68.9709
 31
0.0
  0
LINE
  8
0
 62
     0
 10
212.171
 20
68.9709
 30
0.0
 11
211.37
 21
68.9709
 31
0.0
  0
LINE
  8
0
 62
     0
 10
211.37
 20
68.9709
 30
0.0
 11
211.37
 21
65.8717
 31
0.0
  0
LINE
  8
0
 62
     0
 10
211.37
 20
65.8717
 30
0.0
 11
212.171
 21
65.8717
 31
0.0
  0
LINE
  8
0
 62
     0
 10
212.171
 20
65.8717
 30
0.0
 11
212.171
 21
64.8712
 31
0.0
  0
LINE
  8
0
 62
     0
 10
212.171
 20
64.8712
 30
0.0
 11
226.17
 21
64.8712
 31
0.0
  0
LINE
  8
0
 62
     0
 10
226.17
 20
64.8712
 30
0.0
 11
226.17
 21
65.8717
 31
0.0
  0
LINE
  8
0
 62
     0
 10
226.17
 20
65.8717
 30
0.0
 11
226.971
 21
65.8717
 31
0.0
  0
LINE
  8
0
 62
     0
 10
226.971
 20
65.8717
 30
0.0
 11
226.971
 21
68.9709
 31
0.0
  0
LINE
  8
0
 62
     0
 10
226.971
 20
68.9709
 30
0.0
 11
226.17
 21
68.9709
 31
0.0
  0
LINE
  8
0
 62
     0
 10
226.17
 20
68.9709
 30
0.0
 11
226.17
 21
74.7709
 31
0.0
  0
LINE
  8
0
 62
     0
 10
226.17
 20
74.7709
 30
0.0
 11
226.971
 21
74.7709
 31
0.0
  0
LINE
  8
0
 62
     0
 10
226.971
 20
74.7709
 30
0.0
 11
226.971
 21
77.8715
 31
0.0
  0
LINE
  8
0
 62
     0
 10
226.971
 20
77.8715
 30
0.0
 11
226.17
 21
77.8715
 31
0.0
  0
LINE
  8
0
 62
     0
 10
226.17
 20
77.8715
 30
0.0
 11
226.17
 21
78.8705
 31
0.0
  0
LINE
  8
0
 62
     0
 10
226.17
 20
78.8705
 30
0.0
 11
212.171
 21
78.8705
 31
0.0
  0
LINE
  8
0
 62
     0
 10
231.221
 20
78.8705
 30
0.0
 11
231.221
 21
77.8715
 31
0.0
  0
LINE
  8
0
 62
     0
 10
231.221
 20
77.8715
 30
0.0
 11
230.42
 21
77.8715
 31
0.0
  0
LINE
  8
0
 62
     0
 10
230.42
 20
77.8715
 30
0.0
 11
230.42
 21
74.7709
 31
0.0
  0
LINE
  8
0
 62
     0
 10
230.42
 20
74.7709
 30
0.0
 11
231.221
 21
74.7709
 31
0.0
  0
LINE
  8
0
 62
     0
 10
231.221
 20
74.7709
 30
0.0
 11
231.221
 21
68.9709
 31
0.0
  0
LINE
  8
0
 62
     0
 10
231.221
 20
68.9709
 30
0.0
 11
230.42
 21
68.9709
 31
0.0
  0
LINE
  8
0
 62
     0
 10
230.42
 20
68.9709
 30
0.0
 11
230.42
 21
65.8717
 31
0.0
  0
LINE
  8
0
 62
     0
 10
230.42
 20
65.8717
 30
0.0
 11
231.221
 21
65.8717
 31
0.0
  0
LINE
  8
0
 62
     0
 10
231.221
 20
65.8717
 30
0.0
 11
231.221
 21
64.8712
 31
0.0
  0
LINE
  8
0
 62
     0
 10
231.221
 20
64.8712
 30
0.0
 11
245.22
 21
64.8712
 31
0.0
  0
LINE
  8
0
 62
     0
 10
245.22
 20
64.8712
 30
0.0
 11
245.22
 21
65.8717
 31
0.0
  0
LINE
  8
0
 62
     0
 10
245.22
 20
65.8717
 30
0.0
 11
246.021
 21
65.8717
 31
0.0
  0
LINE
  8
0
 62
     0
 10
246.021
 20
65.8717
 30
0.0
 11
246.021
 21
68.9709
 31
0.0
  0
LINE
  8
0
 62
     0
 10
246.021
 20
68.9709
 30
0.0
 11
245.22
 21
68.9709
 31
0.0
  0
LINE
  8
0
 62
     0
 10
245.22
 20
68.9709
 30
0.0
 11
245.22
 21
74.7709
 31
0.0
  0
LINE
  8
0
 62
     0
 10
245.22
 20
74.7709
 30
0.0
 11
246.021
 21
74.7709
 31
0.0
  0
LINE
  8
0
 62
     0
 10
246.021
 20
74.7709
 30
0.0
 11
246.021
 21
77.8715
 31
0.0
  0
LINE
  8
0
 62
     0
 10
246.021
 20
77.8715
 30
0.0
 11
245.22
 21
77.8715
 31
0.0
  0
LINE
  8
0
 62
     0
 10
245.22
 20
77.8715
 30
0.0
 11
245.22
 21
78.8705
 31
0.0
  0
LINE
  8
0
 62
     0
 10
245.22
 20
78.8705
 30
0.0
 11
231.221
 21
78.8705
 31
0.0
  0
LINE
  8
0
 62
     0
 10
250.271
 20
78.8705
 30
0.0
 11
250.271
 21
77.8715
 31
0.0
  0
LINE
  8
0
 62
     0
 10
250.271
 20
77.8715
 30
0.0
 11
249.47
 21
77.8715
 31
0.0
  0
LINE
  8
0
 62
     0
 10
249.47
 20
77.8715
 30
0.0
 11
249.47
 21
74.7709
 31
0.0
  0
LINE
  8
0
 62
     0
 10
249.47
 20
74.7709
 30
0.0
 11
250.271
 21
74.7709
 31
0.0
  0
LINE
  8
0
 62
     0
 10
250.271
 20
74.7709
 30
0.0
 11
250.271
 21
68.9709
 31
0.0
  0
LINE
  8
0
 62
     0
 10
250.271
 20
68.9709
 30
0.0
 11
249.47
 21
68.9709
 31
0.0
  0
LINE
  8
0
 62
     0
 10
249.47
 20
68.9709
 30
0.0
 11
249.47
 21
65.8717
 31
0.0
  0
LINE
  8
0
 62
     0
 10
249.47
 20
65.8717
 30
0.0
 11
250.271
 21
65.8717
 31
0.0
  0
LINE
  8
0
 62
     0
 10
250.271
 20
65.8717
 30
0.0
 11
250.271
 21
64.8712
 31
0.0
  0
LINE
  8
0
 62
     0
 10
250.271
 20
64.8712
 30
0.0
 11
264.27
 21
64.8712
 31
0.0
  0
LINE
  8
0
 62
     0
 10
264.27
 20
64.8712
 30
0.0
 11
264.27
 21
65.8717
 31
0.0
  0
LINE
  8
0
 62
     0
 10
264.27
 20
65.8717
 30
0.0
 11
265.071
 21
65.8717
 31
0.0
  0
LINE
  8
0
 62
     0
 10
265.071
 20
65.8717
 30
0.0
 11
265.071
 21
68.9709
 31
0.0
  0
LINE
  8
0
 62
     0
 10
265.071
 20
68.9709
 30
0.0
 11
264.27
 21
68.9709
 31
0.0
  0
LINE
  8
0
 62
     0
 10
264.27
 20
68.9709
 30
0.0
 11
264.27
 21
74.7709
 31
0.0
  0
LINE
  8
0
 62
     0
 10
264.27
 20
74.7709
 30
0.0
 11
265.071
 21
74.7709
 31
0.0
  0
LINE
  8
0
 62
     0
 10
265.071
 20
74.7709
 30
0.0
 11
265.071
 21
77.8715
 31
0.0
  0
LINE
  8
0
 62
     0
 10
265.071
 20
77.8715
 30
0.0
 11
264.27
 21
77.8715
 31
0.0
  0
LINE
  8
0
 62
     0
 10
264.27
 20
77.8715
 30
0.0
 11
264.27
 21
78.8705
 31
0.0
  0
LINE
  8
0
 62
     0
 10
264.27
 20
78.8705
 30
0.0
 11
250.271
 21
78.8705
 31
0.0
  0
LINE
  8
0
 62
     0
 10
269.321
 20
78.8705
 30
0.0
 11
269.321
 21
77.8715
 31
0.0
  0
LINE
  8
0
 62
     0
 10
269.321
 20
77.8715
 30
0.0
 11
268.52
 21
77.8715
 31
0.0
  0
LINE
  8
0
 62
     0
 10
268.52
 20
77.8715
 30
0.0
 11
268.52
 21
74.7709
 31
0.0
  0
LINE
  8
0
 62
     0
 10
268.52
 20
74.7709
 30
0.0
 11
269.321
 21
74.7709
 31
0.0
  0
LINE
  8
0
 62
     0
 10
269.321
 20
74.7709
 30
0.0
 11
269.321
 21
68.9709
 31
0.0
  0
LINE
  8
0
 62
     0
 10
269.321
 20
68.9709
 30
0.0
 11
268.52
 21
68.9709
 31
0.0
  0
LINE
  8
0
 62
     0
 10
268.52
 20
68.9709
 30
0.0
 11
268.52
 21
65.8717
 31
0.0
  0
LINE
  8
0
 62
     0
 10
268.52
 20
65.8717
 30
0.0
 11
269.321
 21
65.8717
 31
0.0
  0
LINE
  8
0
 62
     0
 10
269.321
 20
65.8717
 30
0.0
 11
269.321
 21
64.8712
 31
0.0
  0
LINE
  8
0
 62
     0
 10
269.321
 20
64.8712
 30
0.0
 11
283.32
 21
64.8712
 31
0.0
  0
LINE
  8
0
 62
     0
 10
283.32
 20
64.8712
 30
0.0
 11
283.32
 21
65.8717
 31
0.0
  0
LINE
  8
0
 62
     0
 10
283.32
 20
65.8717
 30
0.0
 11
284.121
 21
65.8717
 31
0.0
  0
LINE
  8
0
 62
     0
 10
284.121
 20
65.8717
 30
0.0
 11
284.121
 21
68.9709
 31
0.0
  0
LINE
  8
0
 62
     0
 10
284.121
 20
68.9709
 30
0.0
 11
283.32
 21
68.9709
 31
0.0
  0
LINE
  8
0
 62
     0
 10
283.32
 20
68.9709
 30
0.0
 11
283.32
 21
74.7709
 31
0.0
  0
LINE
  8
0
 62
     0
 10
283.32
 20
74.7709
 30
0.0
 11
284.121
 21
74.7709
 31
0.0
  0
LINE
  8
0
 62
     0
 10
284.121
 20
74.7709
 30
0.0
 11
284.121
 21
77.8715
 31
0.0
  0
LINE
  8
0
 62
     0
 10
284.121
 20
77.8715
 30
0.0
 11
283.32
 21
77.8715
 31
0.0
  0
LINE
  8
0
 62
     0
 10
283.32
 20
77.8715
 30
0.0
 11
283.32
 21
78.8705
 31
0.0
  0
LINE
  8
0
 62
     0
 10
283.32
 20
78.8705
 30
0.0
 11
269.321
 21
78.8705
 31
0.0
  0
LINE
  8
0
 62
     0
 10
288.371
 20
78.8705
 30
0.0
 11
288.371
 21
77.8715
 31
0.0
  0
LINE
  8
0
 62
     0
 10
288.371
 20
77.8715
 30
0.0
 11
287.57
 21
77.8715
 31
0.0
  0
LINE
  8
0
 62
     0
 10
287.57
 20
77.8715
 30
0.0
 11
287.57
 21
74.7709
 31
0.0
  0
LINE
  8
0
 62
     0
 10
287.57
 20
74.7709
 30
0.0
 11
288.371
 21
74.7709
 31
0.0
  0
LINE
  8
0
 62
     0
 10
288.371
 20
74.7709
 30
0.0
 11
288.371
 21
68.9709
 31
0.0
  0
LINE
  8
0
 62
     0
 10
288.371
 20
68.9709
 30
0.0
 11
287.57
 21
68.9709
 31
0.0
  0
LINE
  8
0
 62
     0
 10
287.57
 20
68.9709
 30
0.0
 11
287.57
 21
65.8717
 31
0.0
  0
LINE
  8
0
 62
     0
 10
287.57
 20
65.8717
 30
0.0
 11
288.371
 21
65.8717
 31
0.0
  0
LINE
  8
0
 62
     0
 10
288.371
 20
65.8717
 30
0.0
 11
288.371
 21
64.8712
 31
0.0
  0
LINE
  8
0
 62
     0
 10
288.371
 20
64.8712
 30
0.0
 11
302.37
 21
64.8712
 31
0.0
  0
LINE
  8
0
 62
     0
 10
302.37
 20
64.8712
 30
0.0
 11
302.37
 21
65.8717
 31
0.0
  0
LINE
  8
0
 62
     0
 10
302.37
 20
65.8717
 30
0.0
 11
303.171
 21
65.8717
 31
0.0
  0
LINE
  8
0
 62
     0
 10
303.171
 20
65.8717
 30
0.0
 11
303.171
 21
68.9709
 31
0.0
  0
LINE
  8
0
 62
     0
 10
303.171
 20
68.9709
 30
0.0
 11
302.37
 21
68.9709
 31
0.0
  0
LINE
  8
0
 62
     0
 10
302.37
 20
68.9709
 30
0.0
 11
302.37
 21
74.7709
 31
0.0
  0
LINE
  8
0
 62
     0
 10
302.37
 20
74.7709
 30
0.0
 11
303.171
 21
74.7709
 31
0.0
  0
LINE
  8
0
 62
     0
 10
303.171
 20
74.7709
 30
0.0
 11
303.171
 21
77.8715
 31
0.0
  0
LINE
  8
0
 62
     0
 10
303.171
 20
77.8715
 30
0.0
 11
302.37
 21
77.8715
 31
0.0
  0
LINE
  8
0
 62
     0
 10
302.37
 20
77.8715
 30
0.0
 11
302.37
 21
78.8705
 31
0.0
  0
LINE
  8
0
 62
     0
 10
302.37
 20
78.8705
 30
0.0
 11
288.371
 21
78.8705
 31
0.0
  0
LINE
  8
0
 62
     0
 10
307.421
 20
78.8705
 30
0.0
 11
307.421
 21
77.8715
 31
0.0
  0
LINE
  8
0
 62
     0
 10
307.421
 20
77.8715
 30
0.0
 11
306.62
 21
77.8715
 31
0.0
  0
LINE
  8
0
 62
     0
 10
306.62
 20
77.8715
 30
0.0
 11
306.62
 21
74.7709
 31
0.0
  0
LINE
  8
0
 62
     0
 10
306.62
 20
74.7709
 30
0.0
 11
307.421
 21
74.7709
 31
0.0
  0
LINE
  8
0
 62
     0
 10
307.421
 20
74.7709
 30
0.0
 11
307.421
 21
68.9709
 31
0.0
  0
LINE
  8
0
 62
     0
 10
307.421
 20
68.9709
 30
0.0
 11
306.62
 21
68.9709
 31
0.0
  0
LINE
  8
0
 62
     0
 10
306.62
 20
68.9709
 30
0.0
 11
306.62
 21
65.8717
 31
0.0
  0
LINE
  8
0
 62
     0
 10
306.62
 20
65.8717
 30
0.0
 11
307.421
 21
65.8717
 31
0.0
  0
LINE
  8
0
 62
     0
 10
307.421
 20
65.8717
 30
0.0
 11
307.421
 21
64.8712
 31
0.0
  0
LINE
  8
0
 62
     0
 10
307.421
 20
64.8712
 30
0.0
 11
321.42
 21
64.8712
 31
0.0
  0
LINE
  8
0
 62
     0
 10
321.42
 20
64.8712
 30
0.0
 11
321.42
 21
65.8717
 31
0.0
  0
LINE
  8
0
 62
     0
 10
321.42
 20
65.8717
 30
0.0
 11
322.221
 21
65.8717
 31
0.0
  0
LINE
  8
0
 62
     0
 10
322.221
 20
65.8717
 30
0.0
 11
322.221
 21
68.9709
 31
0.0
  0
LINE
  8
0
 62
     0
 10
322.221
 20
68.9709
 30
0.0
 11
321.42
 21
68.9709
 31
0.0
  0
LINE
  8
0
 62
     0
 10
321.42
 20
68.9709
 30
0.0
 11
321.42
 21
74.7709
 31
0.0
  0
LINE
  8
0
 62
     0
 10
321.42
 20
74.7709
 30
0.0
 11
322.221
 21
74.7709
 31
0.0
  0
LINE
  8
0
 62
     0
 10
322.221
 20
74.7709
 30
0.0
 11
322.221
 21
77.8715
 31
0.0
  0
LINE
  8
0
 62
     0
 10
322.221
 20
77.8715
 30
0.0
 11
321.42
 21
77.8715
 31
0.0
  0
LINE
  8
0
 62
     0
 10
321.42
 20
77.8715
 30
0.0
 11
321.42
 21
78.8705
 31
0.0
  0
LINE
  8
0
 62
     0
 10
321.42
 20
78.8705
 30
0.0
 11
307.421
 21
78.8705
 31
0.0
  0
LINE
  8
0
 62
     0
 10
326.471
 20
78.8705
 30
0.0
 11
326.471
 21
77.8715
 31
0.0
  0
LINE
  8
0
 62
     0
 10
326.471
 20
77.8715
 30
0.0
 11
325.67
 21
77.8715
 31
0.0
  0
LINE
  8
0
 62
     0
 10
325.67
 20
77.8715
 30
0.0
 11
325.67
 21
74.7709
 31
0.0
  0
LINE
  8
0
 62
     0
 10
325.67
 20
74.7709
 30
0.0
 11
326.471
 21
74.7709
 31
0.0
  0
LINE
  8
0
 62
     0
 10
326.471
 20
74.7709
 30
0.0
 11
326.471
 21
68.9709
 31
0.0
  0
LINE
  8
0
 62
     0
 10
326.471
 20
68.9709
 30
0.0
 11
325.67
 21
68.9709
 31
0.0
  0
LINE
  8
0
 62
     0
 10
325.67
 20
68.9709
 30
0.0
 11
325.67
 21
65.8717
 31
0.0
  0
LINE
  8
0
 62
     0
 10
325.67
 20
65.8717
 30
0.0
 11
326.471
 21
65.8717
 31
0.0
  0
LINE
  8
0
 62
     0
 10
326.471
 20
65.8717
 30
0.0
 11
326.471
 21
64.8712
 31
0.0
  0
LINE
  8
0
 62
     0
 10
326.471
 20
64.8712
 30
0.0
 11
340.47
 21
64.8712
 31
0.0
  0
LINE
  8
0
 62
     0
 10
340.47
 20
64.8712
 30
0.0
 11
340.47
 21
65.8717
 31
0.0
  0
LINE
  8
0
 62
     0
 10
340.47
 20
65.8717
 30
0.0
 11
341.271
 21
65.8717
 31
0.0
  0
LINE
  8
0
 62
     0
 10
341.271
 20
65.8717
 30
0.0
 11
341.271
 21
68.9709
 31
0.0
  0
LINE
  8
0
 62
     0
 10
341.271
 20
68.9709
 30
0.0
 11
340.47
 21
68.9709
 31
0.0
  0
LINE
  8
0
 62
     0
 10
340.47
 20
68.9709
 30
0.0
 11
340.47
 21
74.7709
 31
0.0
  0
LINE
  8
0
 62
     0
 10
340.47
 20
74.7709
 30
0.0
 11
341.271
 21
74.7709
 31
0.0
  0
LINE
  8
0
 62
     0
 10
341.271
 20
74.7709
 30
0.0
 11
341.271
 21
77.8715
 31
0.0
  0
LINE
  8
0
 62
     0
 10
341.271
 20
77.8715
 30
0.0
 11
340.47
 21
77.8715
 31
0.0
  0
LINE
  8
0
 62
     0
 10
340.47
 20
77.8715
 30
0.0
 11
340.47
 21
78.8705
 31
0.0
  0
LINE
  8
0
 62
     0
 10
340.47
 20
78.8705
 30
0.0
 11
326.471
 21
78.8705
 31
0.0
  0
LINE
  8
0
 62
     0
 10
345.521
 20
78.8705
 30
0.0
 11
345.521
 21
77.8715
 31
0.0
  0
LINE
  8
0
 62
     0
 10
345.521
 20
77.8715
 30
0.0
 11
344.72
 21
77.8715
 31
0.0
  0
LINE
  8
0
 62
     0
 10
344.72
 20
77.8715
 30
0.0
 11
344.72
 21
74.7709
 31
0.0
  0
LINE
  8
0
 62
     0
 10
344.72
 20
74.7709
 30
0.0
 11
345.521
 21
74.7709
 31
0.0
  0
LINE
  8
0
 62
     0
 10
345.521
 20
74.7709
 30
0.0
 11
345.521
 21
68.9709
 31
0.0
  0
LINE
  8
0
 62
     0
 10
345.521
 20
68.9709
 30
0.0
 11
344.72
 21
68.9709
 31
0.0
  0
LINE
  8
0
 62
     0
 10
344.72
 20
68.9709
 30
0.0
 11
344.72
 21
65.8717
 31
0.0
  0
LINE
  8
0
 62
     0
 10
344.72
 20
65.8717
 30
0.0
 11
345.521
 21
65.8717
 31
0.0
  0
LINE
  8
0
 62
     0
 10
345.521
 20
65.8717
 30
0.0
 11
345.521
 21
64.8712
 31
0.0
  0
LINE
  8
0
 62
     0
 10
345.521
 20
64.8712
 30
0.0
 11
359.519
 21
64.8712
 31
0.0
  0
LINE
  8
0
 62
     0
 10
359.519
 20
64.8712
 30
0.0
 11
359.519
 21
65.8717
 31
0.0
  0
LINE
  8
0
 62
     0
 10
359.519
 20
65.8717
 30
0.0
 11
360.32
 21
65.8717
 31
0.0
  0
LINE
  8
0
 62
     0
 10
360.32
 20
65.8717
 30
0.0
 11
360.32
 21
68.9709
 31
0.0
  0
LINE
  8
0
 62
     0
 10
360.32
 20
68.9709
 30
0.0
 11
359.519
 21
68.9709
 31
0.0
  0
LINE
  8
0
 62
     0
 10
359.519
 20
68.9709
 30
0.0
 11
359.519
 21
74.7709
 31
0.0
  0
LINE
  8
0
 62
     0
 10
359.519
 20
74.7709
 30
0.0
 11
360.32
 21
74.7709
 31
0.0
  0
LINE
  8
0
 62
     0
 10
360.32
 20
74.7709
 30
0.0
 11
360.32
 21
77.8715
 31
0.0
  0
LINE
  8
0
 62
     0
 10
360.32
 20
77.8715
 30
0.0
 11
359.519
 21
77.8715
 31
0.0
  0
LINE
  8
0
 62
     0
 10
359.519
 20
77.8715
 30
0.0
 11
359.519
 21
78.8705
 31
0.0
  0
LINE
  8
0
 62
     0
 10
359.519
 20
78.8705
 30
0.0
 11
345.521
 21
78.8705
 31
0.0
  0
LINE
  8
0
 62
     0
 10
369.334
 20
78.8705
 30
0.0
 11
369.334
 21
77.8715
 31
0.0
  0
LINE
  8
0
 62
     0
 10
369.334
 20
77.8715
 30
0.0
 11
368.533
 21
77.8715
 31
0.0
  0
LINE
  8
0
 62
     0
 10
368.533
 20
77.8715
 30
0.0
 11
368.533
 21
74.7709
 31
0.0
  0
LINE
  8
0
 62
     0
 10
368.533
 20
74.7709
 30
0.0
 11
369.334
 21
74.7709
 31
0.0
  0
LINE
  8
0
 62
     0
 10
369.334
 20
74.7709
 30
0.0
 11
369.334
 21
68.9709
 31
0.0
  0
LINE
  8
0
 62
     0
 10
369.334
 20
68.9709
 30
0.0
 11
368.533
 21
68.9709
 31
0.0
  0
LINE
  8
0
 62
     0
 10
368.533
 20
68.9709
 30
0.0
 11
368.533
 21
65.8717
 31
0.0
  0
LINE
  8
0
 62
     0
 10
368.533
 20
65.8717
 30
0.0
 11
369.334
 21
65.8717
 31
0.0
  0
LINE
  8
0
 62
     0
 10
369.334
 20
65.8717
 30
0.0
 11
369.334
 21
64.8712
 31
0.0
  0
LINE
  8
0
 62
     0
 10
369.334
 20
64.8712
 30
0.0
 11
383.332
 21
64.8712
 31
0.0
  0
LINE
  8
0
 62
     0
 10
383.332
 20
64.8712
 30
0.0
 11
383.332
 21
65.8717
 31
0.0
  0
LINE
  8
0
 62
     0
 10
383.332
 20
65.8717
 30
0.0
 11
384.133
 21
65.8717
 31
0.0
  0
LINE
  8
0
 62
     0
 10
384.133
 20
65.8717
 30
0.0
 11
384.133
 21
68.9709
 31
0.0
  0
LINE
  8
0
 62
     0
 10
384.133
 20
68.9709
 30
0.0
 11
383.332
 21
68.9709
 31
0.0
  0
LINE
  8
0
 62
     0
 10
383.332
 20
68.9709
 30
0.0
 11
383.332
 21
74.7709
 31
0.0
  0
LINE
  8
0
 62
     0
 10
383.332
 20
74.7709
 30
0.0
 11
384.133
 21
74.7709
 31
0.0
  0
LINE
  8
0
 62
     0
 10
384.133
 20
74.7709
 30
0.0
 11
384.133
 21
77.8715
 31
0.0
  0
LINE
  8
0
 62
     0
 10
384.133
 20
77.8715
 30
0.0
 11
383.332
 21
77.8715
 31
0.0
  0
LINE
  8
0
 62
     0
 10
383.332
 20
77.8715
 30
0.0
 11
383.332
 21
78.8705
 31
0.0
  0
LINE
  8
0
 62
     0
 10
383.332
 20
78.8705
 30
0.0
 11
369.334
 21
78.8705
 31
0.0
  0
LINE
  8
0
 62
     0
 10
2.62103
 20
97.9205
 30
0.0
 11
2.62103
 21
96.9215
 31
0.0
  0
LINE
  8
0
 62
     0
 10
2.62103
 20
96.9215
 30
0.0
 11
1.82039
 21
96.9215
 31
0.0
  0
LINE
  8
0
 62
     0
 10
1.82039
 20
96.9215
 30
0.0
 11
1.82039
 21
93.8209
 31
0.0
  0
LINE
  8
0
 62
     0
 10
1.82039
 20
93.8209
 30
0.0
 11
2.62103
 21
93.8209
 31
0.0
  0
LINE
  8
0
 62
     0
 10
2.62103
 20
93.8209
 30
0.0
 11
2.62103
 21
88.0209
 31
0.0
  0
LINE
  8
0
 62
     0
 10
2.62103
 20
88.0209
 30
0.0
 11
1.82039
 21
88.0209
 31
0.0
  0
LINE
  8
0
 62
     0
 10
1.82039
 20
88.0209
 30
0.0
 11
1.82039
 21
84.9217
 31
0.0
  0
LINE
  8
0
 62
     0
 10
1.82039
 20
84.9217
 30
0.0
 11
2.62103
 21
84.9217
 31
0.0
  0
LINE
  8
0
 62
     0
 10
2.62103
 20
84.9217
 30
0.0
 11
2.62103
 21
83.9212
 31
0.0
  0
LINE
  8
0
 62
     0
 10
2.62103
 20
83.9212
 30
0.0
 11
16.6205
 21
83.9212
 31
0.0
  0
LINE
  8
0
 62
     0
 10
16.6205
 20
83.9212
 30
0.0
 11
16.6205
 21
84.9217
 31
0.0
  0
LINE
  8
0
 62
     0
 10
16.6205
 20
84.9217
 30
0.0
 11
17.4212
 21
84.9217
 31
0.0
  0
LINE
  8
0
 62
     0
 10
17.4212
 20
84.9217
 30
0.0
 11
17.4212
 21
88.0209
 31
0.0
  0
LINE
  8
0
 62
     0
 10
17.4212
 20
88.0209
 30
0.0
 11
16.6205
 21
88.0209
 31
0.0
  0
LINE
  8
0
 62
     0
 10
16.6205
 20
88.0209
 30
0.0
 11
16.6205
 21
93.8209
 31
0.0
  0
LINE
  8
0
 62
     0
 10
16.6205
 20
93.8209
 30
0.0
 11
17.4212
 21
93.8209
 31
0.0
  0
LINE
  8
0
 62
     0
 10
17.4212
 20
93.8209
 30
0.0
 11
17.4212
 21
96.9215
 31
0.0
  0
LINE
  8
0
 62
     0
 10
17.4212
 20
96.9215
 30
0.0
 11
16.6205
 21
96.9215
 31
0.0
  0
LINE
  8
0
 62
     0
 10
16.6205
 20
96.9215
 30
0.0
 11
16.6205
 21
97.9205
 31
0.0
  0
LINE
  8
0
 62
     0
 10
16.6205
 20
97.9205
 30
0.0
 11
2.62103
 21
97.9205
 31
0.0
  0
LINE
  8
0
 62
     0
 10
21.671
 20
97.9205
 30
0.0
 11
21.671
 21
96.9215
 31
0.0
  0
LINE
  8
0
 62
     0
 10
21.671
 20
96.9215
 30
0.0
 11
20.8704
 21
96.9215
 31
0.0
  0
LINE
  8
0
 62
     0
 10
20.8704
 20
96.9215
 30
0.0
 11
20.8704
 21
93.8209
 31
0.0
  0
LINE
  8
0
 62
     0
 10
20.8704
 20
93.8209
 30
0.0
 11
21.671
 21
93.8209
 31
0.0
  0
LINE
  8
0
 62
     0
 10
21.671
 20
93.8209
 30
0.0
 11
21.671
 21
88.0209
 31
0.0
  0
LINE
  8
0
 62
     0
 10
21.671
 20
88.0209
 30
0.0
 11
20.8704
 21
88.0209
 31
0.0
  0
LINE
  8
0
 62
     0
 10
20.8704
 20
88.0209
 30
0.0
 11
20.8704
 21
84.9217
 31
0.0
  0
LINE
  8
0
 62
     0
 10
20.8704
 20
84.9217
 30
0.0
 11
21.671
 21
84.9217
 31
0.0
  0
LINE
  8
0
 62
     0
 10
21.671
 20
84.9217
 30
0.0
 11
21.671
 21
83.9212
 31
0.0
  0
LINE
  8
0
 62
     0
 10
21.671
 20
83.9212
 30
0.0
 11
35.6704
 21
83.9212
 31
0.0
  0
LINE
  8
0
 62
     0
 10
35.6704
 20
83.9212
 30
0.0
 11
35.6704
 21
84.9217
 31
0.0
  0
LINE
  8
0
 62
     0
 10
35.6704
 20
84.9217
 30
0.0
 11
36.4712
 21
84.9217
 31
0.0
  0
LINE
  8
0
 62
     0
 10
36.4712
 20
84.9217
 30
0.0
 11
36.4712
 21
88.0209
 31
0.0
  0
LINE
  8
0
 62
     0
 10
36.4712
 20
88.0209
 30
0.0
 11
35.6704
 21
88.0209
 31
0.0
  0
LINE
  8
0
 62
     0
 10
35.6704
 20
88.0209
 30
0.0
 11
35.6704
 21
93.8209
 31
0.0
  0
LINE
  8
0
 62
     0
 10
35.6704
 20
93.8209
 30
0.0
 11
36.4712
 21
93.8209
 31
0.0
  0
LINE
  8
0
 62
     0
 10
36.4712
 20
93.8209
 30
0.0
 11
36.4712
 21
96.9215
 31
0.0
  0
LINE
  8
0
 62
     0
 10
36.4712
 20
96.9215
 30
0.0
 11
35.6704
 21
96.9215
 31
0.0
  0
LINE
  8
0
 62
     0
 10
35.6704
 20
96.9215
 30
0.0
 11
35.6704
 21
97.9205
 31
0.0
  0
LINE
  8
0
 62
     0
 10
35.6704
 20
97.9205
 30
0.0
 11
21.671
 21
97.9205
 31
0.0
  0
LINE
  8
0
 62
     0
 10
40.7211
 20
97.9205
 30
0.0
 11
40.7211
 21
96.9215
 31
0.0
  0
LINE
  8
0
 62
     0
 10
40.7211
 20
96.9215
 30
0.0
 11
39.9203
 21
96.9215
 31
0.0
  0
LINE
  8
0
 62
     0
 10
39.9203
 20
96.9215
 30
0.0
 11
39.9203
 21
93.8209
 31
0.0
  0
LINE
  8
0
 62
     0
 10
39.9203
 20
93.8209
 30
0.0
 11
40.7211
 21
93.8209
 31
0.0
  0
LINE
  8
0
 62
     0
 10
40.7211
 20
93.8209
 30
0.0
 11
40.7211
 21
88.0209
 31
0.0
  0
LINE
  8
0
 62
     0
 10
40.7211
 20
88.0209
 30
0.0
 11
39.9203
 21
88.0209
 31
0.0
  0
LINE
  8
0
 62
     0
 10
39.9203
 20
88.0209
 30
0.0
 11
39.9203
 21
84.9217
 31
0.0
  0
LINE
  8
0
 62
     0
 10
39.9203
 20
84.9217
 30
0.0
 11
40.7211
 21
84.9217
 31
0.0
  0
LINE
  8
0
 62
     0
 10
40.7211
 20
84.9217
 30
0.0
 11
40.7211
 21
83.9212
 31
0.0
  0
LINE
  8
0
 62
     0
 10
40.7211
 20
83.9212
 30
0.0
 11
54.7204
 21
83.9212
 31
0.0
  0
LINE
  8
0
 62
     0
 10
54.7204
 20
83.9212
 30
0.0
 11
54.7204
 21
84.9217
 31
0.0
  0
LINE
  8
0
 62
     0
 10
54.7204
 20
84.9217
 30
0.0
 11
55.5212
 21
84.9217
 31
0.0
  0
LINE
  8
0
 62
     0
 10
55.5212
 20
84.9217
 30
0.0
 11
55.5212
 21
88.0209
 31
0.0
  0
LINE
  8
0
 62
     0
 10
55.5212
 20
88.0209
 30
0.0
 11
54.7204
 21
88.0209
 31
0.0
  0
LINE
  8
0
 62
     0
 10
54.7204
 20
88.0209
 30
0.0
 11
54.7204
 21
93.8209
 31
0.0
  0
LINE
  8
0
 62
     0
 10
54.7204
 20
93.8209
 30
0.0
 11
55.5212
 21
93.8209
 31
0.0
  0
LINE
  8
0
 62
     0
 10
55.5212
 20
93.8209
 30
0.0
 11
55.5212
 21
96.9215
 31
0.0
  0
LINE
  8
0
 62
     0
 10
55.5212
 20
96.9215
 30
0.0
 11
54.7204
 21
96.9215
 31
0.0
  0
LINE
  8
0
 62
     0
 10
54.7204
 20
96.9215
 30
0.0
 11
54.7204
 21
97.9205
 31
0.0
  0
LINE
  8
0
 62
     0
 10
54.7204
 20
97.9205
 30
0.0
 11
40.7211
 21
97.9205
 31
0.0
  0
LINE
  8
0
 62
     0
 10
59.7711
 20
97.9205
 30
0.0
 11
59.7711
 21
96.9215
 31
0.0
  0
LINE
  8
0
 62
     0
 10
59.7711
 20
96.9215
 30
0.0
 11
58.9703
 21
96.9215
 31
0.0
  0
LINE
  8
0
 62
     0
 10
58.9703
 20
96.9215
 30
0.0
 11
58.9703
 21
93.8209
 31
0.0
  0
LINE
  8
0
 62
     0
 10
58.9703
 20
93.8209
 30
0.0
 11
59.7711
 21
93.8209
 31
0.0
  0
LINE
  8
0
 62
     0
 10
59.7711
 20
93.8209
 30
0.0
 11
59.7711
 21
88.0209
 31
0.0
  0
LINE
  8
0
 62
     0
 10
59.7711
 20
88.0209
 30
0.0
 11
58.9703
 21
88.0209
 31
0.0
  0
LINE
  8
0
 62
     0
 10
58.9703
 20
88.0209
 30
0.0
 11
58.9703
 21
84.9217
 31
0.0
  0
LINE
  8
0
 62
     0
 10
58.9703
 20
84.9217
 30
0.0
 11
59.7711
 21
84.9217
 31
0.0
  0
LINE
  8
0
 62
     0
 10
59.7711
 20
84.9217
 30
0.0
 11
59.7711
 21
83.9212
 31
0.0
  0
LINE
  8
0
 62
     0
 10
59.7711
 20
83.9212
 30
0.0
 11
73.7704
 21
83.9212
 31
0.0
  0
LINE
  8
0
 62
     0
 10
73.7704
 20
83.9212
 30
0.0
 11
73.7704
 21
84.9217
 31
0.0
  0
LINE
  8
0
 62
     0
 10
73.7704
 20
84.9217
 30
0.0
 11
74.5712
 21
84.9217
 31
0.0
  0
LINE
  8
0
 62
     0
 10
74.5712
 20
84.9217
 30
0.0
 11
74.5712
 21
88.0209
 31
0.0
  0
LINE
  8
0
 62
     0
 10
74.5712
 20
88.0209
 30
0.0
 11
73.7704
 21
88.0209
 31
0.0
  0
LINE
  8
0
 62
     0
 10
73.7704
 20
88.0209
 30
0.0
 11
73.7704
 21
93.8209
 31
0.0
  0
LINE
  8
0
 62
     0
 10
73.7704
 20
93.8209
 30
0.0
 11
74.5712
 21
93.8209
 31
0.0
  0
LINE
  8
0
 62
     0
 10
74.5712
 20
93.8209
 30
0.0
 11
74.5712
 21
96.9215
 31
0.0
  0
LINE
  8
0
 62
     0
 10
74.5712
 20
96.9215
 30
0.0
 11
73.7704
 21
96.9215
 31
0.0
  0
LINE
  8
0
 62
     0
 10
73.7704
 20
96.9215
 30
0.0
 11
73.7704
 21
97.9205
 31
0.0
  0
LINE
  8
0
 62
     0
 10
73.7704
 20
97.9205
 30
0.0
 11
59.7711
 21
97.9205
 31
0.0
  0
LINE
  8
0
 62
     0
 10
83.5822
 20
97.9205
 30
0.0
 11
83.5822
 21
96.9215
 31
0.0
  0
LINE
  8
0
 62
     0
 10
83.5822
 20
96.9215
 30
0.0
 11
82.7828
 21
96.9215
 31
0.0
  0
LINE
  8
0
 62
     0
 10
82.7828
 20
96.9215
 30
0.0
 11
82.7828
 21
93.8209
 31
0.0
  0
LINE
  8
0
 62
     0
 10
82.7828
 20
93.8209
 30
0.0
 11
83.5822
 21
93.8209
 31
0.0
  0
LINE
  8
0
 62
     0
 10
83.5822
 20
93.8209
 30
0.0
 11
83.5822
 21
88.0209
 31
0.0
  0
LINE
  8
0
 62
     0
 10
83.5822
 20
88.0209
 30
0.0
 11
82.7828
 21
88.0209
 31
0.0
  0
LINE
  8
0
 62
     0
 10
82.7828
 20
88.0209
 30
0.0
 11
82.7828
 21
84.9217
 31
0.0
  0
LINE
  8
0
 62
     0
 10
82.7828
 20
84.9217
 30
0.0
 11
83.5822
 21
84.9217
 31
0.0
  0
LINE
  8
0
 62
     0
 10
83.5822
 20
84.9217
 30
0.0
 11
83.5822
 21
83.9212
 31
0.0
  0
LINE
  8
0
 62
     0
 10
83.5822
 20
83.9212
 30
0.0
 11
97.5829
 21
83.9212
 31
0.0
  0
LINE
  8
0
 62
     0
 10
97.5829
 20
83.9212
 30
0.0
 11
97.5829
 21
84.9217
 31
0.0
  0
LINE
  8
0
 62
     0
 10
97.5829
 20
84.9217
 30
0.0
 11
98.3823
 21
84.9217
 31
0.0
  0
LINE
  8
0
 62
     0
 10
98.3823
 20
84.9217
 30
0.0
 11
98.3823
 21
88.0209
 31
0.0
  0
LINE
  8
0
 62
     0
 10
98.3823
 20
88.0209
 30
0.0
 11
97.5829
 21
88.0209
 31
0.0
  0
LINE
  8
0
 62
     0
 10
97.5829
 20
88.0209
 30
0.0
 11
97.5829
 21
93.8209
 31
0.0
  0
LINE
  8
0
 62
     0
 10
97.5829
 20
93.8209
 30
0.0
 11
98.3823
 21
93.8209
 31
0.0
  0
LINE
  8
0
 62
     0
 10
98.3823
 20
93.8209
 30
0.0
 11
98.3823
 21
96.9215
 31
0.0
  0
LINE
  8
0
 62
     0
 10
98.3823
 20
96.9215
 30
0.0
 11
97.5829
 21
96.9215
 31
0.0
  0
LINE
  8
0
 62
     0
 10
97.5829
 20
96.9215
 30
0.0
 11
97.5829
 21
97.9205
 31
0.0
  0
LINE
  8
0
 62
     0
 10
97.5829
 20
97.9205
 30
0.0
 11
83.5822
 21
97.9205
 31
0.0
  0
LINE
  8
0
 62
     0
 10
107.396
 20
97.9205
 30
0.0
 11
107.396
 21
96.9215
 31
0.0
  0
LINE
  8
0
 62
     0
 10
107.396
 20
96.9215
 30
0.0
 11
106.595
 21
96.9215
 31
0.0
  0
LINE
  8
0
 62
     0
 10
106.595
 20
96.9215
 30
0.0
 11
106.595
 21
93.8209
 31
0.0
  0
LINE
  8
0
 62
     0
 10
106.595
 20
93.8209
 30
0.0
 11
107.396
 21
93.8209
 31
0.0
  0
LINE
  8
0
 62
     0
 10
107.396
 20
93.8209
 30
0.0
 11
107.396
 21
88.0209
 31
0.0
  0
LINE
  8
0
 62
     0
 10
107.396
 20
88.0209
 30
0.0
 11
106.595
 21
88.0209
 31
0.0
  0
LINE
  8
0
 62
     0
 10
106.595
 20
88.0209
 30
0.0
 11
106.595
 21
84.9217
 31
0.0
  0
LINE
  8
0
 62
     0
 10
106.595
 20
84.9217
 30
0.0
 11
107.396
 21
84.9217
 31
0.0
  0
LINE
  8
0
 62
     0
 10
107.396
 20
84.9217
 30
0.0
 11
107.396
 21
83.9212
 31
0.0
  0
LINE
  8
0
 62
     0
 10
107.396
 20
83.9212
 30
0.0
 11
121.395
 21
83.9212
 31
0.0
  0
LINE
  8
0
 62
     0
 10
121.395
 20
83.9212
 30
0.0
 11
121.395
 21
84.9217
 31
0.0
  0
LINE
  8
0
 62
     0
 10
121.395
 20
84.9217
 30
0.0
 11
122.196
 21
84.9217
 31
0.0
  0
LINE
  8
0
 62
     0
 10
122.196
 20
84.9217
 30
0.0
 11
122.196
 21
88.0209
 31
0.0
  0
LINE
  8
0
 62
     0
 10
122.196
 20
88.0209
 30
0.0
 11
121.395
 21
88.0209
 31
0.0
  0
LINE
  8
0
 62
     0
 10
121.395
 20
88.0209
 30
0.0
 11
121.395
 21
93.8209
 31
0.0
  0
LINE
  8
0
 62
     0
 10
121.395
 20
93.8209
 30
0.0
 11
122.196
 21
93.8209
 31
0.0
  0
LINE
  8
0
 62
     0
 10
122.196
 20
93.8209
 30
0.0
 11
122.196
 21
96.9215
 31
0.0
  0
LINE
  8
0
 62
     0
 10
122.196
 20
96.9215
 30
0.0
 11
121.395
 21
96.9215
 31
0.0
  0
LINE
  8
0
 62
     0
 10
121.395
 20
96.9215
 30
0.0
 11
121.395
 21
97.9205
 31
0.0
  0
LINE
  8
0
 62
     0
 10
121.395
 20
97.9205
 30
0.0
 11
107.396
 21
97.9205
 31
0.0
  0
LINE
  8
0
 62
     0
 10
126.446
 20
97.9205
 30
0.0
 11
126.446
 21
96.9215
 31
0.0
  0
LINE
  8
0
 62
     0
 10
126.446
 20
96.9215
 30
0.0
 11
125.644
 21
96.9215
 31
0.0
  0
LINE
  8
0
 62
     0
 10
125.644
 20
96.9215
 30
0.0
 11
125.644
 21
93.8209
 31
0.0
  0
LINE
  8
0
 62
     0
 10
125.644
 20
93.8209
 30
0.0
 11
126.446
 21
93.8209
 31
0.0
  0
LINE
  8
0
 62
     0
 10
126.446
 20
93.8209
 30
0.0
 11
126.446
 21
88.0209
 31
0.0
  0
LINE
  8
0
 62
     0
 10
126.446
 20
88.0209
 30
0.0
 11
125.644
 21
88.0209
 31
0.0
  0
LINE
  8
0
 62
     0
 10
125.644
 20
88.0209
 30
0.0
 11
125.644
 21
84.9217
 31
0.0
  0
LINE
  8
0
 62
     0
 10
125.644
 20
84.9217
 30
0.0
 11
126.446
 21
84.9217
 31
0.0
  0
LINE
  8
0
 62
     0
 10
126.446
 20
84.9217
 30
0.0
 11
126.446
 21
83.9212
 31
0.0
  0
LINE
  8
0
 62
     0
 10
126.446
 20
83.9212
 30
0.0
 11
140.445
 21
83.9212
 31
0.0
  0
LINE
  8
0
 62
     0
 10
140.445
 20
83.9212
 30
0.0
 11
140.445
 21
84.9217
 31
0.0
  0
LINE
  8
0
 62
     0
 10
140.445
 20
84.9217
 30
0.0
 11
141.246
 21
84.9217
 31
0.0
  0
LINE
  8
0
 62
     0
 10
141.246
 20
84.9217
 30
0.0
 11
141.246
 21
88.0209
 31
0.0
  0
LINE
  8
0
 62
     0
 10
141.246
 20
88.0209
 30
0.0
 11
140.445
 21
88.0209
 31
0.0
  0
LINE
  8
0
 62
     0
 10
140.445
 20
88.0209
 30
0.0
 11
140.445
 21
93.8209
 31
0.0
  0
LINE
  8
0
 62
     0
 10
140.445
 20
93.8209
 30
0.0
 11
141.246
 21
93.8209
 31
0.0
  0
LINE
  8
0
 62
     0
 10
141.246
 20
93.8209
 30
0.0
 11
141.246
 21
96.9215
 31
0.0
  0
LINE
  8
0
 62
     0
 10
141.246
 20
96.9215
 30
0.0
 11
140.445
 21
96.9215
 31
0.0
  0
LINE
  8
0
 62
     0
 10
140.445
 20
96.9215
 30
0.0
 11
140.445
 21
97.9205
 31
0.0
  0
LINE
  8
0
 62
     0
 10
140.445
 20
97.9205
 30
0.0
 11
126.446
 21
97.9205
 31
0.0
  0
LINE
  8
0
 62
     0
 10
145.496
 20
97.9205
 30
0.0
 11
145.496
 21
96.9215
 31
0.0
  0
LINE
  8
0
 62
     0
 10
145.496
 20
96.9215
 30
0.0
 11
144.695
 21
96.9215
 31
0.0
  0
LINE
  8
0
 62
     0
 10
144.695
 20
96.9215
 30
0.0
 11
144.695
 21
93.8209
 31
0.0
  0
LINE
  8
0
 62
     0
 10
144.695
 20
93.8209
 30
0.0
 11
145.496
 21
93.8209
 31
0.0
  0
LINE
  8
0
 62
     0
 10
145.496
 20
93.8209
 30
0.0
 11
145.496
 21
88.0209
 31
0.0
  0
LINE
  8
0
 62
     0
 10
145.496
 20
88.0209
 30
0.0
 11
144.695
 21
88.0209
 31
0.0
  0
LINE
  8
0
 62
     0
 10
144.695
 20
88.0209
 30
0.0
 11
144.695
 21
84.9217
 31
0.0
  0
LINE
  8
0
 62
     0
 10
144.695
 20
84.9217
 30
0.0
 11
145.496
 21
84.9217
 31
0.0
  0
LINE
  8
0
 62
     0
 10
145.496
 20
84.9217
 30
0.0
 11
145.496
 21
83.9212
 31
0.0
  0
LINE
  8
0
 62
     0
 10
145.496
 20
83.9212
 30
0.0
 11
159.495
 21
83.9212
 31
0.0
  0
LINE
  8
0
 62
     0
 10
159.495
 20
83.9212
 30
0.0
 11
159.495
 21
84.9217
 31
0.0
  0
LINE
  8
0
 62
     0
 10
159.495
 20
84.9217
 30
0.0
 11
160.296
 21
84.9217
 31
0.0
  0
LINE
  8
0
 62
     0
 10
160.296
 20
84.9217
 30
0.0
 11
160.296
 21
88.0209
 31
0.0
  0
LINE
  8
0
 62
     0
 10
160.296
 20
88.0209
 30
0.0
 11
159.495
 21
88.0209
 31
0.0
  0
LINE
  8
0
 62
     0
 10
159.495
 20
88.0209
 30
0.0
 11
159.495
 21
93.8209
 31
0.0
  0
LINE
  8
0
 62
     0
 10
159.495
 20
93.8209
 30
0.0
 11
160.296
 21
93.8209
 31
0.0
  0
LINE
  8
0
 62
     0
 10
160.296
 20
93.8209
 30
0.0
 11
160.296
 21
96.9215
 31
0.0
  0
LINE
  8
0
 62
     0
 10
160.296
 20
96.9215
 30
0.0
 11
159.495
 21
96.9215
 31
0.0
  0
LINE
  8
0
 62
     0
 10
159.495
 20
96.9215
 30
0.0
 11
159.495
 21
97.9205
 31
0.0
  0
LINE
  8
0
 62
     0
 10
159.495
 20
97.9205
 30
0.0
 11
145.496
 21
97.9205
 31
0.0
  0
LINE
  8
0
 62
     0
 10
164.546
 20
97.9205
 30
0.0
 11
164.546
 21
96.9215
 31
0.0
  0
LINE
  8
0
 62
     0
 10
164.546
 20
96.9215
 30
0.0
 11
163.745
 21
96.9215
 31
0.0
  0
LINE
  8
0
 62
     0
 10
163.745
 20
96.9215
 30
0.0
 11
163.745
 21
93.8209
 31
0.0
  0
LINE
  8
0
 62
     0
 10
163.745
 20
93.8209
 30
0.0
 11
164.546
 21
93.8209
 31
0.0
  0
LINE
  8
0
 62
     0
 10
164.546
 20
93.8209
 30
0.0
 11
164.546
 21
88.0209
 31
0.0
  0
LINE
  8
0
 62
     0
 10
164.546
 20
88.0209
 30
0.0
 11
163.745
 21
88.0209
 31
0.0
  0
LINE
  8
0
 62
     0
 10
163.745
 20
88.0209
 30
0.0
 11
163.745
 21
84.9217
 31
0.0
  0
LINE
  8
0
 62
     0
 10
163.745
 20
84.9217
 30
0.0
 11
164.546
 21
84.9217
 31
0.0
  0
LINE
  8
0
 62
     0
 10
164.546
 20
84.9217
 30
0.0
 11
164.546
 21
83.9212
 31
0.0
  0
LINE
  8
0
 62
     0
 10
164.546
 20
83.9212
 30
0.0
 11
178.545
 21
83.9212
 31
0.0
  0
LINE
  8
0
 62
     0
 10
178.545
 20
83.9212
 30
0.0
 11
178.545
 21
84.9217
 31
0.0
  0
LINE
  8
0
 62
     0
 10
178.545
 20
84.9217
 30
0.0
 11
179.346
 21
84.9217
 31
0.0
  0
LINE
  8
0
 62
     0
 10
179.346
 20
84.9217
 30
0.0
 11
179.346
 21
88.0209
 31
0.0
  0
LINE
  8
0
 62
     0
 10
179.346
 20
88.0209
 30
0.0
 11
178.545
 21
88.0209
 31
0.0
  0
LINE
  8
0
 62
     0
 10
178.545
 20
88.0209
 30
0.0
 11
178.545
 21
93.8209
 31
0.0
  0
LINE
  8
0
 62
     0
 10
178.545
 20
93.8209
 30
0.0
 11
179.346
 21
93.8209
 31
0.0
  0
LINE
  8
0
 62
     0
 10
179.346
 20
93.8209
 30
0.0
 11
179.346
 21
96.9215
 31
0.0
  0
LINE
  8
0
 62
     0
 10
179.346
 20
96.9215
 30
0.0
 11
178.545
 21
96.9215
 31
0.0
  0
LINE
  8
0
 62
     0
 10
178.545
 20
96.9215
 30
0.0
 11
178.545
 21
97.9205
 31
0.0
  0
LINE
  8
0
 62
     0
 10
178.545
 20
97.9205
 30
0.0
 11
164.546
 21
97.9205
 31
0.0
  0
LINE
  8
0
 62
     0
 10
183.596
 20
97.9205
 30
0.0
 11
183.596
 21
96.9215
 31
0.0
  0
LINE
  8
0
 62
     0
 10
183.596
 20
96.9215
 30
0.0
 11
182.795
 21
96.9215
 31
0.0
  0
LINE
  8
0
 62
     0
 10
182.795
 20
96.9215
 30
0.0
 11
182.795
 21
93.8209
 31
0.0
  0
LINE
  8
0
 62
     0
 10
182.795
 20
93.8209
 30
0.0
 11
183.596
 21
93.8209
 31
0.0
  0
LINE
  8
0
 62
     0
 10
183.596
 20
93.8209
 30
0.0
 11
183.596
 21
88.0209
 31
0.0
  0
LINE
  8
0
 62
     0
 10
183.596
 20
88.0209
 30
0.0
 11
182.795
 21
88.0209
 31
0.0
  0
LINE
  8
0
 62
     0
 10
182.795
 20
88.0209
 30
0.0
 11
182.795
 21
84.9217
 31
0.0
  0
LINE
  8
0
 62
     0
 10
182.795
 20
84.9217
 30
0.0
 11
183.596
 21
84.9217
 31
0.0
  0
LINE
  8
0
 62
     0
 10
183.596
 20
84.9217
 30
0.0
 11
183.596
 21
83.9212
 31
0.0
  0
LINE
  8
0
 62
     0
 10
183.596
 20
83.9212
 30
0.0
 11
197.595
 21
83.9212
 31
0.0
  0
LINE
  8
0
 62
     0
 10
197.595
 20
83.9212
 30
0.0
 11
197.595
 21
84.9217
 31
0.0
  0
LINE
  8
0
 62
     0
 10
197.595
 20
84.9217
 30
0.0
 11
198.396
 21
84.9217
 31
0.0
  0
LINE
  8
0
 62
     0
 10
198.396
 20
84.9217
 30
0.0
 11
198.396
 21
88.0209
 31
0.0
  0
LINE
  8
0
 62
     0
 10
198.396
 20
88.0209
 30
0.0
 11
197.595
 21
88.0209
 31
0.0
  0
LINE
  8
0
 62
     0
 10
197.595
 20
88.0209
 30
0.0
 11
197.595
 21
93.8209
 31
0.0
  0
LINE
  8
0
 62
     0
 10
197.595
 20
93.8209
 30
0.0
 11
198.396
 21
93.8209
 31
0.0
  0
LINE
  8
0
 62
     0
 10
198.396
 20
93.8209
 30
0.0
 11
198.396
 21
96.9215
 31
0.0
  0
LINE
  8
0
 62
     0
 10
198.396
 20
96.9215
 30
0.0
 11
197.595
 21
96.9215
 31
0.0
  0
LINE
  8
0
 62
     0
 10
197.595
 20
96.9215
 30
0.0
 11
197.595
 21
97.9205
 31
0.0
  0
LINE
  8
0
 62
     0
 10
197.595
 20
97.9205
 30
0.0
 11
183.596
 21
97.9205
 31
0.0
  0
LINE
  8
0
 62
     0
 10
202.646
 20
97.9205
 30
0.0
 11
202.646
 21
96.9215
 31
0.0
  0
LINE
  8
0
 62
     0
 10
202.646
 20
96.9215
 30
0.0
 11
201.845
 21
96.9215
 31
0.0
  0
LINE
  8
0
 62
     0
 10
201.845
 20
96.9215
 30
0.0
 11
201.845
 21
93.8209
 31
0.0
  0
LINE
  8
0
 62
     0
 10
201.845
 20
93.8209
 30
0.0
 11
202.646
 21
93.8209
 31
0.0
  0
LINE
  8
0
 62
     0
 10
202.646
 20
93.8209
 30
0.0
 11
202.646
 21
88.0209
 31
0.0
  0
LINE
  8
0
 62
     0
 10
202.646
 20
88.0209
 30
0.0
 11
201.845
 21
88.0209
 31
0.0
  0
LINE
  8
0
 62
     0
 10
201.845
 20
88.0209
 30
0.0
 11
201.845
 21
84.9217
 31
0.0
  0
LINE
  8
0
 62
     0
 10
201.845
 20
84.9217
 30
0.0
 11
202.646
 21
84.9217
 31
0.0
  0
LINE
  8
0
 62
     0
 10
202.646
 20
84.9217
 30
0.0
 11
202.646
 21
83.9212
 31
0.0
  0
LINE
  8
0
 62
     0
 10
202.646
 20
83.9212
 30
0.0
 11
216.645
 21
83.9212
 31
0.0
  0
LINE
  8
0
 62
     0
 10
216.645
 20
83.9212
 30
0.0
 11
216.645
 21
84.9217
 31
0.0
  0
LINE
  8
0
 62
     0
 10
216.645
 20
84.9217
 30
0.0
 11
217.446
 21
84.9217
 31
0.0
  0
LINE
  8
0
 62
     0
 10
217.446
 20
84.9217
 30
0.0
 11
217.446
 21
88.0209
 31
0.0
  0
LINE
  8
0
 62
     0
 10
217.446
 20
88.0209
 30
0.0
 11
216.645
 21
88.0209
 31
0.0
  0
LINE
  8
0
 62
     0
 10
216.645
 20
88.0209
 30
0.0
 11
216.645
 21
93.8209
 31
0.0
  0
LINE
  8
0
 62
     0
 10
216.645
 20
93.8209
 30
0.0
 11
217.446
 21
93.8209
 31
0.0
  0
LINE
  8
0
 62
     0
 10
217.446
 20
93.8209
 30
0.0
 11
217.446
 21
96.9215
 31
0.0
  0
LINE
  8
0
 62
     0
 10
217.446
 20
96.9215
 30
0.0
 11
216.645
 21
96.9215
 31
0.0
  0
LINE
  8
0
 62
     0
 10
216.645
 20
96.9215
 30
0.0
 11
216.645
 21
97.9205
 31
0.0
  0
LINE
  8
0
 62
     0
 10
216.645
 20
97.9205
 30
0.0
 11
202.646
 21
97.9205
 31
0.0
  0
LINE
  8
0
 62
     0
 10
221.696
 20
97.9205
 30
0.0
 11
221.696
 21
96.9215
 31
0.0
  0
LINE
  8
0
 62
     0
 10
221.696
 20
96.9215
 30
0.0
 11
220.895
 21
96.9215
 31
0.0
  0
LINE
  8
0
 62
     0
 10
220.895
 20
96.9215
 30
0.0
 11
220.895
 21
93.8209
 31
0.0
  0
LINE
  8
0
 62
     0
 10
220.895
 20
93.8209
 30
0.0
 11
221.696
 21
93.8209
 31
0.0
  0
LINE
  8
0
 62
     0
 10
221.696
 20
93.8209
 30
0.0
 11
221.696
 21
88.0209
 31
0.0
  0
LINE
  8
0
 62
     0
 10
221.696
 20
88.0209
 30
0.0
 11
220.895
 21
88.0209
 31
0.0
  0
LINE
  8
0
 62
     0
 10
220.895
 20
88.0209
 30
0.0
 11
220.895
 21
84.9217
 31
0.0
  0
LINE
  8
0
 62
     0
 10
220.895
 20
84.9217
 30
0.0
 11
221.696
 21
84.9217
 31
0.0
  0
LINE
  8
0
 62
     0
 10
221.696
 20
84.9217
 30
0.0
 11
221.696
 21
83.9212
 31
0.0
  0
LINE
  8
0
 62
     0
 10
221.696
 20
83.9212
 30
0.0
 11
235.695
 21
83.9212
 31
0.0
  0
LINE
  8
0
 62
     0
 10
235.695
 20
83.9212
 30
0.0
 11
235.695
 21
84.9217
 31
0.0
  0
LINE
  8
0
 62
     0
 10
235.695
 20
84.9217
 30
0.0
 11
236.496
 21
84.9217
 31
0.0
  0
LINE
  8
0
 62
     0
 10
236.496
 20
84.9217
 30
0.0
 11
236.496
 21
88.0209
 31
0.0
  0
LINE
  8
0
 62
     0
 10
236.496
 20
88.0209
 30
0.0
 11
235.695
 21
88.0209
 31
0.0
  0
LINE
  8
0
 62
     0
 10
235.695
 20
88.0209
 30
0.0
 11
235.695
 21
93.8209
 31
0.0
  0
LINE
  8
0
 62
     0
 10
235.695
 20
93.8209
 30
0.0
 11
236.496
 21
93.8209
 31
0.0
  0
LINE
  8
0
 62
     0
 10
236.496
 20
93.8209
 30
0.0
 11
236.496
 21
96.9215
 31
0.0
  0
LINE
  8
0
 62
     0
 10
236.496
 20
96.9215
 30
0.0
 11
235.695
 21
96.9215
 31
0.0
  0
LINE
  8
0
 62
     0
 10
235.695
 20
96.9215
 30
0.0
 11
235.695
 21
97.9205
 31
0.0
  0
LINE
  8
0
 62
     0
 10
235.695
 20
97.9205
 30
0.0
 11
221.696
 21
97.9205
 31
0.0
  0
LINE
  8
0
 62
     0
 10
240.746
 20
97.9205
 30
0.0
 11
240.746
 21
96.9215
 31
0.0
  0
LINE
  8
0
 62
     0
 10
240.746
 20
96.9215
 30
0.0
 11
239.945
 21
96.9215
 31
0.0
  0
LINE
  8
0
 62
     0
 10
239.945
 20
96.9215
 30
0.0
 11
239.945
 21
93.8209
 31
0.0
  0
LINE
  8
0
 62
     0
 10
239.945
 20
93.8209
 30
0.0
 11
240.746
 21
93.8209
 31
0.0
  0
LINE
  8
0
 62
     0
 10
240.746
 20
93.8209
 30
0.0
 11
240.746
 21
88.0209
 31
0.0
  0
LINE
  8
0
 62
     0
 10
240.746
 20
88.0209
 30
0.0
 11
239.945
 21
88.0209
 31
0.0
  0
LINE
  8
0
 62
     0
 10
239.945
 20
88.0209
 30
0.0
 11
239.945
 21
84.9217
 31
0.0
  0
LINE
  8
0
 62
     0
 10
239.945
 20
84.9217
 30
0.0
 11
240.746
 21
84.9217
 31
0.0
  0
LINE
  8
0
 62
     0
 10
240.746
 20
84.9217
 30
0.0
 11
240.746
 21
83.9212
 31
0.0
  0
LINE
  8
0
 62
     0
 10
240.746
 20
83.9212
 30
0.0
 11
254.744
 21
83.9212
 31
0.0
  0
LINE
  8
0
 62
     0
 10
254.744
 20
83.9212
 30
0.0
 11
254.744
 21
84.9217
 31
0.0
  0
LINE
  8
0
 62
     0
 10
254.744
 20
84.9217
 30
0.0
 11
255.546
 21
84.9217
 31
0.0
  0
LINE
  8
0
 62
     0
 10
255.546
 20
84.9217
 30
0.0
 11
255.546
 21
88.0209
 31
0.0
  0
LINE
  8
0
 62
     0
 10
255.546
 20
88.0209
 30
0.0
 11
254.744
 21
88.0209
 31
0.0
  0
LINE
  8
0
 62
     0
 10
254.744
 20
88.0209
 30
0.0
 11
254.744
 21
93.8209
 31
0.0
  0
LINE
  8
0
 62
     0
 10
254.744
 20
93.8209
 30
0.0
 11
255.546
 21
93.8209
 31
0.0
  0
LINE
  8
0
 62
     0
 10
255.546
 20
93.8209
 30
0.0
 11
255.546
 21
96.9215
 31
0.0
  0
LINE
  8
0
 62
     0
 10
255.546
 20
96.9215
 30
0.0
 11
254.744
 21
96.9215
 31
0.0
  0
LINE
  8
0
 62
     0
 10
254.744
 20
96.9215
 30
0.0
 11
254.744
 21
97.9205
 31
0.0
  0
LINE
  8
0
 62
     0
 10
254.744
 20
97.9205
 30
0.0
 11
240.746
 21
97.9205
 31
0.0
  0
LINE
  8
0
 62
     0
 10
259.796
 20
97.9205
 30
0.0
 11
259.796
 21
96.9215
 31
0.0
  0
LINE
  8
0
 62
     0
 10
259.796
 20
96.9215
 30
0.0
 11
258.995
 21
96.9215
 31
0.0
  0
LINE
  8
0
 62
     0
 10
258.995
 20
96.9215
 30
0.0
 11
258.995
 21
93.8209
 31
0.0
  0
LINE
  8
0
 62
     0
 10
258.995
 20
93.8209
 30
0.0
 11
259.796
 21
93.8209
 31
0.0
  0
LINE
  8
0
 62
     0
 10
259.796
 20
93.8209
 30
0.0
 11
259.796
 21
88.0209
 31
0.0
  0
LINE
  8
0
 62
     0
 10
259.796
 20
88.0209
 30
0.0
 11
258.995
 21
88.0209
 31
0.0
  0
LINE
  8
0
 62
     0
 10
258.995
 20
88.0209
 30
0.0
 11
258.995
 21
84.9217
 31
0.0
  0
LINE
  8
0
 62
     0
 10
258.995
 20
84.9217
 30
0.0
 11
259.796
 21
84.9217
 31
0.0
  0
LINE
  8
0
 62
     0
 10
259.796
 20
84.9217
 30
0.0
 11
259.796
 21
83.9212
 31
0.0
  0
LINE
  8
0
 62
     0
 10
259.796
 20
83.9212
 30
0.0
 11
273.795
 21
83.9212
 31
0.0
  0
LINE
  8
0
 62
     0
 10
273.795
 20
83.9212
 30
0.0
 11
273.795
 21
84.9217
 31
0.0
  0
LINE
  8
0
 62
     0
 10
273.795
 20
84.9217
 30
0.0
 11
274.596
 21
84.9217
 31
0.0
  0
LINE
  8
0
 62
     0
 10
274.596
 20
84.9217
 30
0.0
 11
274.596
 21
88.0209
 31
0.0
  0
LINE
  8
0
 62
     0
 10
274.596
 20
88.0209
 30
0.0
 11
273.795
 21
88.0209
 31
0.0
  0
LINE
  8
0
 62
     0
 10
273.795
 20
88.0209
 30
0.0
 11
273.795
 21
93.8209
 31
0.0
  0
LINE
  8
0
 62
     0
 10
273.795
 20
93.8209
 30
0.0
 11
274.596
 21
93.8209
 31
0.0
  0
LINE
  8
0
 62
     0
 10
274.596
 20
93.8209
 30
0.0
 11
274.596
 21
96.9215
 31
0.0
  0
LINE
  8
0
 62
     0
 10
274.596
 20
96.9215
 30
0.0
 11
273.795
 21
96.9215
 31
0.0
  0
LINE
  8
0
 62
     0
 10
273.795
 20
96.9215
 30
0.0
 11
273.795
 21
97.9205
 31
0.0
  0
LINE
  8
0
 62
     0
 10
273.795
 20
97.9205
 30
0.0
 11
259.796
 21
97.9205
 31
0.0
  0
LINE
  8
0
 62
     0
 10
278.846
 20
97.9205
 30
0.0
 11
278.846
 21
96.9215
 31
0.0
  0
LINE
  8
0
 62
     0
 10
278.846
 20
96.9215
 30
0.0
 11
278.045
 21
96.9215
 31
0.0
  0
LINE
  8
0
 62
     0
 10
278.045
 20
96.9215
 30
0.0
 11
278.045
 21
93.8209
 31
0.0
  0
LINE
  8
0
 62
     0
 10
278.045
 20
93.8209
 30
0.0
 11
278.846
 21
93.8209
 31
0.0
  0
LINE
  8
0
 62
     0
 10
278.846
 20
93.8209
 30
0.0
 11
278.846
 21
88.0209
 31
0.0
  0
LINE
  8
0
 62
     0
 10
278.846
 20
88.0209
 30
0.0
 11
278.045
 21
88.0209
 31
0.0
  0
LINE
  8
0
 62
     0
 10
278.045
 20
88.0209
 30
0.0
 11
278.045
 21
84.9217
 31
0.0
  0
LINE
  8
0
 62
     0
 10
278.045
 20
84.9217
 30
0.0
 11
278.846
 21
84.9217
 31
0.0
  0
LINE
  8
0
 62
     0
 10
278.846
 20
84.9217
 30
0.0
 11
278.846
 21
83.9212
 31
0.0
  0
LINE
  8
0
 62
     0
 10
278.846
 20
83.9212
 30
0.0
 11
292.845
 21
83.9212
 31
0.0
  0
LINE
  8
0
 62
     0
 10
292.845
 20
83.9212
 30
0.0
 11
292.845
 21
84.9217
 31
0.0
  0
LINE
  8
0
 62
     0
 10
292.845
 20
84.9217
 30
0.0
 11
293.646
 21
84.9217
 31
0.0
  0
LINE
  8
0
 62
     0
 10
293.646
 20
84.9217
 30
0.0
 11
293.646
 21
88.0209
 31
0.0
  0
LINE
  8
0
 62
     0
 10
293.646
 20
88.0209
 30
0.0
 11
292.845
 21
88.0209
 31
0.0
  0
LINE
  8
0
 62
     0
 10
292.845
 20
88.0209
 30
0.0
 11
292.845
 21
93.8209
 31
0.0
  0
LINE
  8
0
 62
     0
 10
292.845
 20
93.8209
 30
0.0
 11
293.646
 21
93.8209
 31
0.0
  0
LINE
  8
0
 62
     0
 10
293.646
 20
93.8209
 30
0.0
 11
293.646
 21
96.9215
 31
0.0
  0
LINE
  8
0
 62
     0
 10
293.646
 20
96.9215
 30
0.0
 11
292.845
 21
96.9215
 31
0.0
  0
LINE
  8
0
 62
     0
 10
292.845
 20
96.9215
 30
0.0
 11
292.845
 21
97.9205
 31
0.0
  0
LINE
  8
0
 62
     0
 10
292.845
 20
97.9205
 30
0.0
 11
278.846
 21
97.9205
 31
0.0
  0
LINE
  8
0
 62
     0
 10
297.896
 20
97.9205
 30
0.0
 11
297.896
 21
96.9215
 31
0.0
  0
LINE
  8
0
 62
     0
 10
297.896
 20
96.9215
 30
0.0
 11
297.095
 21
96.9215
 31
0.0
  0
LINE
  8
0
 62
     0
 10
297.095
 20
96.9215
 30
0.0
 11
297.095
 21
93.8209
 31
0.0
  0
LINE
  8
0
 62
     0
 10
297.095
 20
93.8209
 30
0.0
 11
297.896
 21
93.8209
 31
0.0
  0
LINE
  8
0
 62
     0
 10
297.896
 20
93.8209
 30
0.0
 11
297.896
 21
88.0209
 31
0.0
  0
LINE
  8
0
 62
     0
 10
297.896
 20
88.0209
 30
0.0
 11
297.095
 21
88.0209
 31
0.0
  0
LINE
  8
0
 62
     0
 10
297.095
 20
88.0209
 30
0.0
 11
297.095
 21
84.9217
 31
0.0
  0
LINE
  8
0
 62
     0
 10
297.095
 20
84.9217
 30
0.0
 11
297.896
 21
84.9217
 31
0.0
  0
LINE
  8
0
 62
     0
 10
297.896
 20
84.9217
 30
0.0
 11
297.896
 21
83.9212
 31
0.0
  0
LINE
  8
0
 62
     0
 10
297.896
 20
83.9212
 30
0.0
 11
311.895
 21
83.9212
 31
0.0
  0
LINE
  8
0
 62
     0
 10
311.895
 20
83.9212
 30
0.0
 11
311.895
 21
84.9217
 31
0.0
  0
LINE
  8
0
 62
     0
 10
311.895
 20
84.9217
 30
0.0
 11
312.696
 21
84.9217
 31
0.0
  0
LINE
  8
0
 62
     0
 10
312.696
 20
84.9217
 30
0.0
 11
312.696
 21
88.0209
 31
0.0
  0
LINE
  8
0
 62
     0
 10
312.696
 20
88.0209
 30
0.0
 11
311.895
 21
88.0209
 31
0.0
  0
LINE
  8
0
 62
     0
 10
311.895
 20
88.0209
 30
0.0
 11
311.895
 21
93.8209
 31
0.0
  0
LINE
  8
0
 62
     0
 10
311.895
 20
93.8209
 30
0.0
 11
312.696
 21
93.8209
 31
0.0
  0
LINE
  8
0
 62
     0
 10
312.696
 20
93.8209
 30
0.0
 11
312.696
 21
96.9215
 31
0.0
  0
LINE
  8
0
 62
     0
 10
312.696
 20
96.9215
 30
0.0
 11
311.895
 21
96.9215
 31
0.0
  0
LINE
  8
0
 62
     0
 10
311.895
 20
96.9215
 30
0.0
 11
311.895
 21
97.9205
 31
0.0
  0
LINE
  8
0
 62
     0
 10
311.895
 20
97.9205
 30
0.0
 11
297.896
 21
97.9205
 31
0.0
  0
LINE
  8
0
 62
     0
 10
316.946
 20
97.9205
 30
0.0
 11
316.946
 21
96.9215
 31
0.0
  0
LINE
  8
0
 62
     0
 10
316.946
 20
96.9215
 30
0.0
 11
316.145
 21
96.9215
 31
0.0
  0
LINE
  8
0
 62
     0
 10
316.145
 20
96.9215
 30
0.0
 11
316.145
 21
93.8209
 31
0.0
  0
LINE
  8
0
 62
     0
 10
316.145
 20
93.8209
 30
0.0
 11
316.946
 21
93.8209
 31
0.0
  0
LINE
  8
0
 62
     0
 10
316.946
 20
93.8209
 30
0.0
 11
316.946
 21
88.0209
 31
0.0
  0
LINE
  8
0
 62
     0
 10
316.946
 20
88.0209
 30
0.0
 11
316.145
 21
88.0209
 31
0.0
  0
LINE
  8
0
 62
     0
 10
316.145
 20
88.0209
 30
0.0
 11
316.145
 21
84.9217
 31
0.0
  0
LINE
  8
0
 62
     0
 10
316.145
 20
84.9217
 30
0.0
 11
316.946
 21
84.9217
 31
0.0
  0
LINE
  8
0
 62
     0
 10
316.946
 20
84.9217
 30
0.0
 11
316.946
 21
83.9212
 31
0.0
  0
LINE
  8
0
 62
     0
 10
316.946
 20
83.9212
 30
0.0
 11
330.945
 21
83.9212
 31
0.0
  0
LINE
  8
0
 62
     0
 10
330.945
 20
83.9212
 30
0.0
 11
330.945
 21
84.9217
 31
0.0
  0
LINE
  8
0
 62
     0
 10
330.945
 20
84.9217
 30
0.0
 11
331.746
 21
84.9217
 31
0.0
  0
LINE
  8
0
 62
     0
 10
331.746
 20
84.9217
 30
0.0
 11
331.746
 21
88.0209
 31
0.0
  0
LINE
  8
0
 62
     0
 10
331.746
 20
88.0209
 30
0.0
 11
330.945
 21
88.0209
 31
0.0
  0
LINE
  8
0
 62
     0
 10
330.945
 20
88.0209
 30
0.0
 11
330.945
 21
93.8209
 31
0.0
  0
LINE
  8
0
 62
     0
 10
330.945
 20
93.8209
 30
0.0
 11
331.746
 21
93.8209
 31
0.0
  0
LINE
  8
0
 62
     0
 10
331.746
 20
93.8209
 30
0.0
 11
331.746
 21
96.9215
 31
0.0
  0
LINE
  8
0
 62
     0
 10
331.746
 20
96.9215
 30
0.0
 11
330.945
 21
96.9215
 31
0.0
  0
LINE
  8
0
 62
     0
 10
330.945
 20
96.9215
 30
0.0
 11
330.945
 21
97.9205
 31
0.0
  0
LINE
  8
0
 62
     0
 10
330.945
 20
97.9205
 30
0.0
 11
316.946
 21
97.9205
 31
0.0
  0
LINE
  8
0
 62
     0
 10
335.996
 20
97.9205
 30
0.0
 11
335.996
 21
96.9215
 31
0.0
  0
LINE
  8
0
 62
     0
 10
335.996
 20
96.9215
 30
0.0
 11
335.195
 21
96.9215
 31
0.0
  0
LINE
  8
0
 62
     0
 10
335.195
 20
96.9215
 30
0.0
 11
335.195
 21
93.8209
 31
0.0
  0
LINE
  8
0
 62
     0
 10
335.195
 20
93.8209
 30
0.0
 11
335.996
 21
93.8209
 31
0.0
  0
LINE
  8
0
 62
     0
 10
335.996
 20
93.8209
 30
0.0
 11
335.996
 21
88.0209
 31
0.0
  0
LINE
  8
0
 62
     0
 10
335.996
 20
88.0209
 30
0.0
 11
335.195
 21
88.0209
 31
0.0
  0
LINE
  8
0
 62
     0
 10
335.195
 20
88.0209
 30
0.0
 11
335.195
 21
84.9217
 31
0.0
  0
LINE
  8
0
 62
     0
 10
335.195
 20
84.9217
 30
0.0
 11
335.996
 21
84.9217
 31
0.0
  0
LINE
  8
0
 62
     0
 10
335.996
 20
84.9217
 30
0.0
 11
335.996
 21
83.9212
 31
0.0
  0
LINE
  8
0
 62
     0
 10
335.996
 20
83.9212
 30
0.0
 11
349.995
 21
83.9212
 31
0.0
  0
LINE
  8
0
 62
     0
 10
349.995
 20
83.9212
 30
0.0
 11
349.995
 21
84.9217
 31
0.0
  0
LINE
  8
0
 62
     0
 10
349.995
 20
84.9217
 30
0.0
 11
350.796
 21
84.9217
 31
0.0
  0
LINE
  8
0
 62
     0
 10
350.796
 20
84.9217
 30
0.0
 11
350.796
 21
88.0209
 31
0.0
  0
LINE
  8
0
 62
     0
 10
350.796
 20
88.0209
 30
0.0
 11
349.995
 21
88.0209
 31
0.0
  0
LINE
  8
0
 62
     0
 10
349.995
 20
88.0209
 30
0.0
 11
349.995
 21
93.8209
 31
0.0
  0
LINE
  8
0
 62
     0
 10
349.995
 20
93.8209
 30
0.0
 11
350.796
 21
93.8209
 31
0.0
  0
LINE
  8
0
 62
     0
 10
350.796
 20
93.8209
 30
0.0
 11
350.796
 21
96.9215
 31
0.0
  0
LINE
  8
0
 62
     0
 10
350.796
 20
96.9215
 30
0.0
 11
349.995
 21
96.9215
 31
0.0
  0
LINE
  8
0
 62
     0
 10
349.995
 20
96.9215
 30
0.0
 11
349.995
 21
97.9205
 31
0.0
  0
LINE
  8
0
 62
     0
 10
349.995
 20
97.9205
 30
0.0
 11
335.996
 21
97.9205
 31
0.0
  0
LINE
  8
0
 62
     0
 10
355.046
 20
97.9205
 30
0.0
 11
355.046
 21
96.9215
 31
0.0
  0
LINE
  8
0
 62
     0
 10
355.046
 20
96.9215
 30
0.0
 11
354.245
 21
96.9215
 31
0.0
  0
LINE
  8
0
 62
     0
 10
354.245
 20
96.9215
 30
0.0
 11
354.245
 21
93.8209
 31
0.0
  0
LINE
  8
0
 62
     0
 10
354.245
 20
93.8209
 30
0.0
 11
355.046
 21
93.8209
 31
0.0
  0
LINE
  8
0
 62
     0
 10
355.046
 20
93.8209
 30
0.0
 11
355.046
 21
88.0209
 31
0.0
  0
LINE
  8
0
 62
     0
 10
355.046
 20
88.0209
 30
0.0
 11
354.245
 21
88.0209
 31
0.0
  0
LINE
  8
0
 62
     0
 10
354.245
 20
88.0209
 30
0.0
 11
354.245
 21
84.9217
 31
0.0
  0
LINE
  8
0
 62
     0
 10
354.245
 20
84.9217
 30
0.0
 11
355.046
 21
84.9217
 31
0.0
  0
LINE
  8
0
 62
     0
 10
355.046
 20
84.9217
 30
0.0
 11
355.046
 21
83.9212
 31
0.0
  0
LINE
  8
0
 62
     0
 10
355.046
 20
83.9212
 30
0.0
 11
369.044
 21
83.9212
 31
0.0
  0
LINE
  8
0
 62
     0
 10
369.044
 20
83.9212
 30
0.0
 11
369.044
 21
84.9217
 31
0.0
  0
LINE
  8
0
 62
     0
 10
369.044
 20
84.9217
 30
0.0
 11
369.845
 21
84.9217
 31
0.0
  0
LINE
  8
0
 62
     0
 10
369.845
 20
84.9217
 30
0.0
 11
369.845
 21
88.0209
 31
0.0
  0
LINE
  8
0
 62
     0
 10
369.845
 20
88.0209
 30
0.0
 11
369.044
 21
88.0209
 31
0.0
  0
LINE
  8
0
 62
     0
 10
369.044
 20
88.0209
 30
0.0
 11
369.044
 21
93.8209
 31
0.0
  0
LINE
  8
0
 62
     0
 10
369.044
 20
93.8209
 30
0.0
 11
369.845
 21
93.8209
 31
0.0
  0
LINE
  8
0
 62
     0
 10
369.845
 20
93.8209
 30
0.0
 11
369.845
 21
96.9215
 31
0.0
  0
LINE
  8
0
 62
     0
 10
369.845
 20
96.9215
 30
0.0
 11
369.044
 21
96.9215
 31
0.0
  0
LINE
  8
0
 62
     0
 10
369.044
 20
96.9215
 30
0.0
 11
369.044
 21
97.9205
 31
0.0
  0
LINE
  8
0
 62
     0
 10
369.044
 20
97.9205
 30
0.0
 11
355.046
 21
97.9205
 31
0.0
  0
LINE
  8
0
 62
     0
 10
374.096
 20
97.9205
 30
0.0
 11
374.096
 21
96.9215
 31
0.0
  0
LINE
  8
0
 62
     0
 10
374.096
 20
96.9215
 30
0.0
 11
373.295
 21
96.9215
 31
0.0
  0
LINE
  8
0
 62
     0
 10
373.295
 20
96.9215
 30
0.0
 11
373.295
 21
93.8209
 31
0.0
  0
LINE
  8
0
 62
     0
 10
373.295
 20
93.8209
 30
0.0
 11
374.096
 21
93.8209
 31
0.0
  0
LINE
  8
0
 62
     0
 10
374.096
 20
93.8209
 30
0.0
 11
374.096
 21
88.0209
 31
0.0
  0
LINE
  8
0
 62
     0
 10
374.096
 20
88.0209
 30
0.0
 11
373.295
 21
88.0209
 31
0.0
  0
LINE
  8
0
 62
     0
 10
373.295
 20
88.0209
 30
0.0
 11
373.295
 21
84.9217
 31
0.0
  0
LINE
  8
0
 62
     0
 10
373.295
 20
84.9217
 30
0.0
 11
374.096
 21
84.9217
 31
0.0
  0
LINE
  8
0
 62
     0
 10
374.096
 20
84.9217
 30
0.0
 11
374.096
 21
83.9212
 31
0.0
  0
LINE
  8
0
 62
     0
 10
374.096
 20
83.9212
 30
0.0
 11
388.094
 21
83.9212
 31
0.0
  0
LINE
  8
0
 62
     0
 10
388.094
 20
83.9212
 30
0.0
 11
388.094
 21
84.9217
 31
0.0
  0
LINE
  8
0
 62
     0
 10
388.094
 20
84.9217
 30
0.0
 11
388.895
 21
84.9217
 31
0.0
  0
LINE
  8
0
 62
     0
 10
388.895
 20
84.9217
 30
0.0
 11
388.895
 21
88.0209
 31
0.0
  0
LINE
  8
0
 62
     0
 10
388.895
 20
88.0209
 30
0.0
 11
388.094
 21
88.0209
 31
0.0
  0
LINE
  8
0
 62
     0
 10
388.094
 20
88.0209
 30
0.0
 11
388.094
 21
93.8209
 31
0.0
  0
LINE
  8
0
 62
     0
 10
388.094
 20
93.8209
 30
0.0
 11
388.895
 21
93.8209
 31
0.0
  0
LINE
  8
0
 62
     0
 10
388.895
 20
93.8209
 30
0.0
 11
388.895
 21
96.9215
 31
0.0
  0
LINE
  8
0
 62
     0
 10
388.895
 20
96.9215
 30
0.0
 11
388.094
 21
96.9215
 31
0.0
  0
LINE
  8
0
 62
     0
 10
388.094
 20
96.9215
 30
0.0
 11
388.094
 21
97.9205
 31
0.0
  0
LINE
  8
0
 62
     0
 10
388.094
 20
97.9205
 30
0.0
 11
374.096
 21
97.9205
 31
0.0
  0
ENDSEC
  0
EOF
